<svg width="260" height="260" viewBox="0 0 260 260" fill="none" xmlns="http://www.w3.org/2000/svg">
<g filter="url(#filter0_d_330_19)">
<path d="M10.4414 156.732C10.9978 159.67 17.3262 208.176 17.3262 208.176L40.5026 219.99L38.4798 188.359L10.4414 156.732Z" fill="#A9D8D9"/>
<path d="M222.128 185.327L228.54 230.973L230.204 231.025C229.143 215.524 228.01 199.71 222.128 185.327Z" fill="#E0E0E0"/>
<path d="M239.928 183.19C235.45 188.094 233.651 194.844 232.518 201.39C230.911 210.672 230.765 221.629 231.244 231.03L233.584 231.082C232.658 214.861 234.811 198.611 239.928 183.19Z" fill="#E0E0E0"/>
<path d="M223.303 212.331C222.783 210.069 222.201 207.771 220.911 205.847C219.169 203.247 216.325 201.598 213.47 200.314C210.615 199.03 207.604 198.011 205.02 196.237C207.901 200.964 214.442 202.223 217.776 206.637C219.429 208.837 220.121 211.598 220.766 214.271C222.185 220.105 223.054 225.154 224.473 230.989H226.366C225.741 224.711 224.718 218.479 223.303 212.331Z" fill="#E0E0E0"/>
<path d="M235.294 231.025C235.294 231.025 236.896 212.898 238.087 209.57C239.278 206.242 250.53 197.048 250.421 197.48C250.312 197.911 241.982 207.999 240.791 210.027C239.6 212.055 237.546 231.025 237.546 231.025H235.294Z" fill="#E0E0E0"/>
<path d="M248.17 250.77L245.263 233.61L215.472 216.97L195.489 224.832L191.973 230.526C189.838 233.968 186.929 236.863 183.477 238.981C179.202 241.613 172.557 246.527 170.477 250.739L248.17 250.77Z" fill="#E0E0E0"/>
<path d="M217.916 40.2268C218.956 41.09 226.584 51.2404 226.584 51.2404L242.496 48.968V32.1876L223.288 18.8184L217.916 40.2268Z" fill="#FAFAFA"/>
<path d="M55.7334 30.3467L62.4414 47.4131L85.1134 55.1299L99.2262 37.0859L84.1878 14.9287L61.9786 16.7591L55.7334 30.3467Z" fill="#FAFAFA"/>
<path d="M175.131 53.2842L181.839 70.3506L204.511 78.0726L218.624 60.0234L203.585 37.8662L181.376 39.6966L175.131 53.2842Z" fill="#A9D8D9"/>
<path d="M143.307 38.3601L152.771 36.4725L158.881 25.4485L150.847 16.4629L137.971 22.1881L136.848 33.8621L143.307 38.3601Z" fill="#F5F5F5"/>
<path d="M68.0315 88.9925L75.4155 82.2845L74.0687 61.0633L50.5855 47.9697L30.5759 69.2845L34.7151 78.9669L24.2267 85.1445L22.9683 98.4461L40.2115 100.895L43.4355 88.5557L57.1115 90.2925L68.0315 88.9925Z" fill="#A9D8D9"/>
<path d="M226.84 75.3262C225.098 76.2726 216.367 86.4126 216.367 86.4126L235.965 131.221L234.406 98.2114L226.84 75.3262Z" fill="#F5F5F5"/>
<path d="M35.3444 51.2405L50.7364 38.3601L46.4256 22.3701L26.1768 25.3133V44.9225L35.3444 51.2405Z" fill="#FAFAFA"/>
<path d="M220.651 163.851L230.204 154.127L248.17 156.54L250.421 167.475L232.304 175.79L219.741 163.851" fill="#FAFAFA"/>
<path d="M44.2 183.653H61.75L78.572 213.642L82.2328 228.275L118.071 231.93L137.821 216.569L169.27 211.447L199.259 192.431L214.62 178.537V164.637L230.708 150.009H240.947L229.247 142.698L208.291 88.9458L172.302 75.0722L158.298 45.4166H129.043L125.258 29.3278L116.61 23.4778L107.609 6.34375L109.294 25.6722L105.638 41.761L104.905 57.1218L81.4996 69.555L82.2328 87.8382L71.2608 97.349L50.778 95.8878L44.2 115.461L20.7896 128.065V146.354L36.1504 172.687L44.2 183.653Z" fill="#E0E0E0"/>
<path d="M110.032 92.4459L105.352 111.093L99.5073 98.9251L94.5205 162.687L103.257 178.36L111.982 172.307C111.982 172.307 114.478 190.476 115.544 191.189C116.61 191.901 127.301 197.949 127.301 197.949L135.138 193.674H143.687L159.006 187.263L161.855 171.6L166.842 164.84L171.117 168.402L173.254 176.597L178.599 169.837L182.161 159.51L175.76 139.313C175.76 139.313 172.91 145.507 170.768 139.313C168.626 133.12 167.565 119.938 167.565 119.938L162.219 102.841L155.459 112.102L152.61 117.089L147.977 110.329L146.91 100.709L145.127 91.4475L138.367 88.5979V98.9303L135.164 104.65L128.752 97.1675L127.327 90.4075V84.6875L119.491 95.3735L110.032 92.4459Z" fill="#EBEBEB"/>
<path d="M82.103 227.76L92.9502 206.336L78.099 196.232L69.1862 183.752L66.5134 182.863C66.5134 182.863 65.6242 139.495 67.1114 134.144C68.5986 128.793 71.2714 121.966 74.537 126.422C77.8026 130.879 81.0058 140.233 83.0858 136.671C85.1658 133.109 88.499 111.571 88.499 111.571L92.9502 91.0725V70.5845C92.9502 70.5845 101.853 92.8666 103.87 93.7245C105.643 94.489 106.039 69.6642 106.039 69.6642L108.68 60.3197L112.45 39.8058C112.45 39.8058 113.969 59.5658 115.742 62.093C117.515 64.6202 120.302 67.1578 121.316 67.6674C122.33 68.177 124.098 56.0141 124.098 54.7505V47.8865C124.098 47.8865 129.251 76.757 130.858 74.4793C132.465 72.2017 132.465 63.5854 132.465 63.5854V50.4398L136.516 47.6525L150.696 49.6805L163.363 63.1017C163.363 63.1017 171.72 101.093 173.493 98.3057C175.266 95.5185 178.053 81.3382 178.053 81.3382L190.211 96.0281L192.489 163.628L186.035 200.813L197.548 193.507L214.609 178.537V164.637L204.657 101.327L208.297 88.9457L172.307 75.0721L158.304 45.4322H129.043L125.258 29.3277L116.61 23.4777L107.609 6.34375L109.294 25.6721L105.654 41.7609L104.921 57.1217L81.5206 69.5549L82.2538 87.8382L71.2402 97.349L50.7782 95.8877L44.2002 115.44L45.417 121.061L44.2002 183.653H61.7502L78.5722 213.642L82.103 227.76Z" fill="#EBEBEB"/>
<path d="M137.821 216.57L139.433 207.319L152.875 207.454L151.284 202.228L151.356 195.094L156 197.059L161.788 206.44L154.497 183.056L154.596 173.176L160.415 167.477L171.584 175.547L178.162 202.987L178.261 193.175L180.788 187.439L183.524 188.563L187.689 199.769L169.27 211.448L137.821 216.57Z" fill="#F5F5F5"/>
<path d="M137.8 216.57L169.234 211.37H169.197L187.605 199.67L187.559 199.81L183.399 188.604L183.466 188.677L180.736 187.554L180.897 187.486C180.112 189.28 179.249 191.235 178.375 193.206V193.154C178.344 196.248 178.308 199.576 178.277 202.967V204.033L178.027 202.993C176.124 195.063 174.111 186.665 172.037 178.033L171.444 175.557L171.496 175.635L160.331 167.565H160.503C158.537 169.492 156.598 171.399 154.684 173.285L154.721 173.191C154.689 176.551 154.655 179.844 154.617 183.071V183.04C157.217 191.391 159.661 199.233 161.897 206.44L162.167 207.309L161.694 206.539L155.911 197.153L155.958 197.195L151.315 195.219L151.455 195.13C151.424 197.647 151.398 200.018 151.372 202.265C151.949 204.157 152.464 205.868 152.958 207.496L152.989 207.6H152.88L139.438 207.433L139.49 207.392L137.8 216.57C137.8 216.57 137.8 216.372 137.893 215.977L138.19 214.204C138.455 212.644 138.85 210.309 139.36 207.309V207.262H139.407L152.849 207.371L152.771 207.48C152.251 205.853 151.731 204.147 151.169 202.254V202.223C151.169 199.977 151.211 197.611 151.237 195.094V194.943L151.372 195L156.021 196.966H156.047V196.997L161.845 206.357L161.637 206.451C159.39 199.254 156.957 191.412 154.331 183.051V183.04C154.362 179.823 154.395 176.53 154.429 173.16V173.108L154.466 173.067L160.285 167.347L160.368 167.269L160.456 167.336L171.626 175.407L171.667 175.433V175.485L172.26 177.96C174.34 186.597 176.342 194.995 178.24 202.92L177.98 202.946C178.017 199.561 178.053 196.233 178.084 193.133V193.107L180.617 187.387L180.669 187.273L180.778 187.32L183.56 188.448H183.607V188.5L187.767 199.706L187.798 199.795L187.72 199.847L169.291 211.51L146.203 215.213L139.963 216.206L138.356 216.461L137.8 216.57Z" fill="#263238"/>
<path d="M73.8086 205.15L76.471 198.213L78.759 197.298L80.8182 202.108V211.957L86.5486 187.449L95.9398 180.804L100.75 185.614V193.861L93.8754 214.245L99.3718 205.54L103.267 203.939V209.893L101.894 214.245H113.115L115.18 226.616L123.635 227.599L118.071 231.93L82.2326 228.274L78.5718 213.642L73.8086 205.15Z" fill="#FAFAFA"/>
<path d="M44.2002 183.654L36.1246 172.708L20.7378 146.385C20.7378 140.915 20.7378 134.748 20.7378 128.102V128.055H20.7794L44.1794 115.44L44.1378 115.487L50.7158 95.9089V95.8361H50.7938L71.2714 97.2921L71.1986 97.3181L82.1602 87.7605L82.1238 87.8437C81.895 82.1913 81.6454 75.9513 81.3854 69.5605V69.4877L81.4478 69.4565L104.848 57.0181L104.785 57.1169C105.009 52.3745 105.264 47.1017 105.513 41.7561C106.642 36.7693 107.895 31.2573 109.153 25.6621V25.7037C108.633 19.6873 108.051 13.0781 107.463 6.37529L107.411 5.74609L107.708 6.30769C110.516 11.6481 113.589 17.5085 116.709 23.4365L116.667 23.3897L125.32 29.2189L125.362 29.2449V29.2969C126.547 34.3305 127.842 39.8321 129.147 45.3857L129.023 45.2869H158.361L158.397 45.3649L172.406 75.0049L172.333 74.9321L183.04 79.0713L208.323 88.8213H208.38V88.8733C215.556 107.281 222.555 125.273 229.331 142.626L229.279 142.563L240.979 149.88L241.369 150.119H230.709L230.797 150.088L214.703 164.71L214.745 164.617C214.745 169.323 214.745 173.945 214.745 178.516V178.568L214.708 178.61L199.342 192.499L169.349 211.51H169.323L137.873 216.622H137.92L118.16 231.972H118.129H118.04L82.2018 228.296H82.1602V228.244C80.7822 222.706 79.6122 218.015 78.5202 213.616C71.1934 200.528 65.6762 190.679 61.7242 183.612H61.7554L44.2002 183.654L61.7502 183.617L78.5982 213.59L82.3058 228.28L82.2382 228.223L118.082 231.863H118.014L137.774 216.497H137.8L169.25 211.37H169.208L199.191 192.348L214.552 178.449L214.511 178.542C214.511 173.971 214.511 169.349 214.511 164.643V164.59L214.552 164.549L230.62 149.916L230.657 149.88H240.947L240.88 150.119L229.175 142.808H229.138V142.766C222.378 125.382 215.358 107.406 208.177 89.0137L208.255 89.0917L182.973 79.3469L172.271 75.2181H172.219V75.1713C167.414 65.0001 162.667 54.9485 158.215 45.5313L158.335 45.6093H128.96L128.934 45.5053C127.629 39.9517 126.334 34.4449 125.149 29.4165L125.206 29.4945L116.537 23.5821H116.506V23.5509C113.386 17.6229 110.318 11.7625 107.51 6.42209L107.749 6.34929C108.332 13.0521 108.909 19.6613 109.434 25.6725V25.7141C108.165 31.3041 106.907 36.8213 105.794 41.8029C105.539 47.1485 105.274 52.4213 105.061 57.1637V57.2001L105.004 57.2313L81.6038 69.6593L81.6662 69.5553C81.9158 75.9461 82.1862 82.1913 82.389 87.8437V87.8957L82.3474 87.9269L71.3754 97.4325H71.3442H71.2402L50.7626 95.9609L50.8614 95.8985L44.2834 115.492V115.523L20.8834 128.118L20.925 128.055C20.925 134.701 20.925 140.868 20.925 146.339V146.307C27.4458 157.503 32.625 166.405 36.2598 172.651L44.2002 183.654Z" fill="#263238"/>
<path d="M20.8623 128.336C21.9439 138.066 25.8127 148.008 30.0299 156.843C29.1459 156.843 35.3443 128.378 35.3443 128.378L41.3243 144.472C41.3243 144.472 48.0063 120.412 49.8211 112.352L20.8623 128.336Z" fill="#EBEBEB"/>
<path d="M108.16 7.49316C108.16 7.49316 108.16 7.60236 108.202 7.81036C108.243 8.01836 108.254 8.33036 108.295 8.75676C108.368 9.59916 108.483 10.8368 108.623 12.3968C108.899 15.5636 109.299 20.1292 109.788 25.7504V25.7816C108.748 30.3472 107.5 35.7396 106.148 41.6624C105.919 46.5192 105.669 51.844 105.404 57.4028V57.4808L105.337 57.5172L101.208 59.696L81.9261 69.8724L81.9937 69.758C82.2589 76.6896 82.5137 82.862 82.6853 87.9268V87.9736L82.6541 87.9996L74.3341 95.2536L72.0773 97.1984L71.4897 97.7184L71.2817 97.8796L71.4741 97.6976L72.0461 97.1776L74.2717 95.1964L82.5501 87.88L82.5189 87.9528C82.3109 82.8932 82.0509 76.7208 81.7649 69.784V69.68L81.8325 69.6436L101.104 59.4516L105.227 57.2728L105.16 57.382C105.425 51.8232 105.68 46.5036 105.919 41.6416L109.611 25.7764V25.8076C109.159 20.176 108.795 15.6104 108.54 12.4436C108.42 10.8836 108.327 9.64596 108.259 8.80356C108.233 8.39796 108.212 8.08076 108.197 7.85716C108.177 7.73668 108.165 7.61512 108.16 7.49316Z" fill="#119496"/>
<path d="M204.194 87.3604C204.14 87.3513 204.088 87.3356 204.038 87.3136L203.57 87.1576L201.776 86.5336L195.042 84.1468L171.642 75.7592H171.59V75.7071C169.234 70.6215 166.655 65.0523 163.967 59.2387C161.824 54.5951 159.749 50.1127 157.805 45.8955L157.924 45.9735L128.804 45.9163H128.747V45.8591C128.076 43.1291 127.541 40.9659 127.187 39.4735C127.01 38.7403 126.875 38.1735 126.776 37.7731C126.735 37.5911 126.703 37.4455 126.677 37.3363C126.663 37.2873 126.654 37.2367 126.651 37.1855C126.672 37.2322 126.688 37.281 126.698 37.3311L126.818 37.7679L127.265 39.4527C127.645 40.9399 128.201 43.0927 128.903 45.8227L128.83 45.7655L157.95 45.7135H158.033L158.065 45.7863L164.237 59.1243C166.92 64.9431 169.494 70.5175 171.845 75.6031L171.772 75.5355L195.135 84.0115L201.843 86.4711L203.627 87.1368L204.085 87.3136C204.122 87.3264 204.159 87.342 204.194 87.3604Z" fill="#119496"/>
<path d="M249.407 151.976C246.427 151.544 243.475 150.935 240.567 150.15C243.548 150.582 246.5 151.191 249.407 151.976Z" fill="#263238"/>
<path d="M94.7909 52.3333C94.4647 50.9633 94.2268 49.5738 94.0785 48.1733C93.8368 46.7842 93.6874 45.3806 93.6313 43.9717C93.9545 45.3423 94.1924 46.7316 94.3437 48.1317C94.5821 49.5213 94.7314 50.9247 94.7909 52.3333Z" fill="#263238"/>
<path d="M105.909 57.2889C105.746 57.2735 105.586 57.2332 105.436 57.1693C105.139 57.0705 104.713 56.9197 104.188 56.7221C103.148 56.3269 101.707 55.7445 100.152 55.0269C98.5976 54.3093 97.2248 53.6021 96.2472 53.0613C95.7272 52.7909 95.3632 52.5413 95.098 52.3957C94.9509 52.3226 94.8145 52.2299 94.6924 52.1201C95.2578 52.3371 95.8069 52.5943 96.3356 52.8897C97.334 53.4097 98.7172 54.0701 100.267 54.7825C101.816 55.4949 103.231 56.1085 104.26 56.5453C104.826 56.7566 105.376 57.005 105.909 57.2889Z" fill="#263238"/>
<path d="M85.5659 51.2412C87.1304 51.2429 88.6933 51.3401 90.2459 51.5324C91.8019 51.6265 93.3508 51.814 94.8843 52.094C93.3201 52.0859 91.7575 51.9887 90.2043 51.8028C88.6489 51.7021 87.1004 51.5146 85.5659 51.2412Z" fill="#263238"/>
<path d="M130.645 22.0479C129.88 23.3084 129.043 24.5237 128.138 25.6879C127.301 26.9012 126.389 28.0614 125.408 29.1615C126.172 27.8988 127.01 26.6832 127.92 25.5215C128.754 24.3075 129.664 23.1473 130.645 22.0479Z" fill="#263238"/>
<path d="M158.99 39.1826C158.993 40.2713 158.906 41.3583 158.73 42.4326C158.647 43.5182 158.473 44.5949 158.21 45.6514C158.207 44.563 158.292 43.4761 158.465 42.4014C158.549 41.3156 158.725 40.2389 158.99 39.1826Z" fill="#263238"/>
<path d="M164.32 37.2734C163.523 37.7739 162.68 38.197 161.803 38.537C160.971 38.9647 160.101 39.3129 159.203 39.577C160.83 38.6446 162.543 37.8731 164.32 37.2734Z" fill="#263238"/>
<path d="M166.816 27.1963C166.529 28.8736 166.154 30.5347 165.693 32.1727C165.324 33.8326 164.866 35.4713 164.32 37.0815C164.607 35.4038 164.984 33.7427 165.448 32.1051C165.816 30.4457 166.273 28.8071 166.816 27.1963Z" fill="#263238"/>
<path d="M171.964 33.1973C171.013 33.2841 170.055 33.2841 169.104 33.1973C168.148 33.2095 167.194 33.1277 166.254 32.9529C167.205 32.8573 168.162 32.8486 169.114 32.9269C170.071 32.9236 171.025 33.0142 171.964 33.1973Z" fill="#263238"/>
<path d="M219.648 81.7803C219.516 81.9076 219.368 82.016 219.206 82.1027C218.858 82.3211 218.442 82.5811 217.958 82.8931C216.918 83.5587 215.452 84.4843 213.881 85.5555C212.311 86.6267 210.912 87.6355 209.908 88.3739L208.712 89.2423C208.573 89.3603 208.42 89.46 208.255 89.5387C208.369 89.3953 208.502 89.2676 208.65 89.1591C208.91 88.9303 209.3 88.6079 209.789 88.2179C210.766 87.4431 212.15 86.4083 213.73 85.3319C215.311 84.2555 216.778 83.3507 217.859 82.7319C218.379 82.4199 218.842 82.1755 219.154 82.0143C219.308 81.9155 219.474 81.8369 219.648 81.7803Z" fill="#263238"/>
<path d="M243.974 159.526C243.368 158.046 242.847 156.532 242.414 154.992C241.899 153.478 241.47 151.936 241.129 150.374C241.734 151.855 242.255 153.369 242.689 154.908C243.205 156.422 243.634 157.964 243.974 159.526Z" fill="#263238"/>
<path d="M10.8264 135.757C10.7796 135.7 12.9064 133.958 15.5636 131.867C18.2208 129.777 20.4152 128.134 20.462 128.191C20.5088 128.248 18.382 129.99 15.73 132.081C13.078 134.171 10.8732 135.814 10.8264 135.757Z" fill="#263238"/>
<path d="M11.1592 129.168C11.8501 129.581 12.492 130.072 13.0728 130.629C13.7126 131.119 14.2952 131.678 14.8096 132.298C14.1198 131.883 13.478 131.393 12.896 130.837C12.2576 130.346 11.6752 129.786 11.1592 129.168Z" fill="#263238"/>
<path d="M37.0137 107.843C38.2164 108.96 39.3553 110.144 40.4249 111.389C41.5603 112.575 42.6313 113.822 43.6333 115.123C42.4313 114.003 41.2925 112.817 40.2221 111.571C39.0875 110.386 38.0165 109.141 37.0137 107.843Z" fill="#263238"/>
<path d="M135.48 113.879L149.167 109.116L145.08 93.6565L149.286 92.1953C149.286 92.1953 158.007 106.485 158.558 111.435C159.109 116.386 143.15 122.574 143.15 122.574L135.48 113.879Z" fill="#FFBE9D"/>
<path d="M153.306 107.738C152.926 107.978 152.515 108.165 152.084 108.295C151.304 108.586 150.222 108.95 149.026 109.335L145.964 110.349C145.549 110.512 145.125 110.653 144.695 110.77C145.063 110.511 145.468 110.308 145.896 110.167C146.66 109.849 147.742 109.47 148.943 109.08C150.144 108.69 151.231 108.352 152.022 108.107C152.441 107.956 152.87 107.832 153.306 107.738Z" fill="#EB996E"/>
<path d="M147.342 85.2802C147.087 84.9578 147.113 84.859 146.822 84.7914C146.531 84.7238 145.922 84.4534 145.714 84.5626C145.506 84.6718 145.361 85.0826 145.361 85.0826C145.361 85.0826 144.648 84.4482 144.149 84.5262C143.65 84.6042 143.452 84.8278 143.442 84.9994C143.332 84.896 143.2 84.8188 143.056 84.7738C142.912 84.7287 142.759 84.717 142.61 84.7394C142.09 84.8226 141.757 85.0566 141.757 85.4102C141.546 85.3724 141.329 85.3724 141.117 85.4102C140.997 85.4517 140.885 85.5133 140.785 85.5922C140.658 85.6892 140.567 85.8257 140.526 85.9802C140.486 86.1347 140.498 86.2982 140.561 86.445L140.826 87.1002C140.826 87.1002 140.244 87.3186 140.213 87.563C140.191 87.7901 140.227 88.0189 140.317 88.2286C140.572 88.7925 140.784 89.3748 140.951 89.9706C141.039 90.2911 141.21 90.5832 141.445 90.8182L144.009 92.1702C144.16 92.2753 144.304 92.3899 144.44 92.5134C144.694 92.899 144.87 93.3298 144.96 93.7822C145.397 94.9886 146.702 97.9422 146.702 97.9422L151.101 96.0494L149.443 92.2014L148.923 90.9534C149 90.4767 148.986 89.9896 148.881 89.5182C148.721 88.9694 148.532 88.4296 148.314 87.901C148.2 87.5994 147.602 85.5922 147.342 85.2802Z" fill="#FFBE9D"/>
<path d="M142.225 86.3196C142.012 86.0444 141.837 85.7418 141.705 85.42V85.368C141.705 85.4564 141.736 85.4252 141.705 85.4356H141.612H141.435C141.306 85.4503 141.179 85.4782 141.055 85.5188C140.931 85.5642 140.824 85.6473 140.75 85.7564C140.675 85.8654 140.637 85.9951 140.639 86.1272V86.0752C140.743 86.304 140.837 86.5432 140.93 86.7876C141.279 87.7028 141.554 88.54 141.757 89.1432C141.887 89.4657 141.984 89.8001 142.048 90.1416C141.843 89.8577 141.684 89.5437 141.575 89.2108C141.326 88.6232 141.024 87.7912 140.676 86.8812C140.582 86.642 140.494 86.4028 140.4 86.1844V86.1584C140.397 85.9731 140.453 85.7917 140.561 85.6409C140.668 85.4902 140.822 85.3781 140.998 85.3212C141.141 85.2823 141.287 85.2562 141.435 85.2432C141.502 85.238 141.57 85.238 141.638 85.2432H141.747H141.814C141.814 85.2432 141.882 85.2432 141.892 85.3732V85.3212C142.046 85.6383 142.158 85.9738 142.225 86.3196Z" fill="#EB996E"/>
<path d="M143.983 85.9348C143.91 85.9348 143.795 85.7684 143.671 85.5448C143.546 85.3212 143.442 85.1184 143.499 85.0664C143.556 85.0144 143.759 85.1548 143.905 85.4096C144.05 85.6644 144.04 85.9192 143.983 85.9348Z" fill="#EB996E"/>
<path d="M145.787 85.8832C145.709 85.8832 145.657 85.7168 145.579 85.54C145.501 85.3632 145.433 85.202 145.491 85.1448C145.548 85.0876 145.735 85.1968 145.834 85.436C145.933 85.6752 145.86 85.8936 145.787 85.8832Z" fill="#EB996E"/>
<path d="M149.105 108.894C149.032 108.894 148.065 105.477 146.936 101.218C145.808 96.9596 144.955 93.4912 145.028 93.4756C145.101 93.46 146.068 96.892 147.196 101.151C148.325 105.41 149.177 108.878 149.105 108.894Z" fill="#119496"/>
<path d="M137.119 83.8293L134.295 82.3525L134.03 84.3389L137.015 85.8209C137.186 86.0081 156.967 95.7009 156.967 95.7009L157.596 94.3645L137.119 83.8293Z" fill="#455A64"/>
<path d="M139.781 67.6623C139.968 64.3343 137.842 61.3755 135.814 58.7339C135.091 57.7875 134.16 56.7423 132.974 56.8359C132.57 56.8989 132.187 57.0597 131.859 57.3044C131.531 57.5491 131.268 57.8702 131.092 58.2399C130.742 58.9719 130.488 59.7462 130.338 60.5435C129.662 63.1851 128.508 65.6707 127.514 68.2031C126.521 70.7355 125.679 73.4031 125.679 76.1175C125.679 78.8319 126.625 81.6711 128.705 83.4339C130.608 85.0511 133.546 85.5139 135.678 84.2763C137.301 84.0059 138.278 82.1339 138.346 80.4491C138.414 78.7643 137.862 76.9443 137.961 75.1815C138.107 72.5815 139.641 70.2363 139.781 67.6623Z" fill="#119496"/>
<g opacity="0.8">
<path opacity="0.8" d="M139.781 67.6623C139.968 64.3343 137.842 61.3755 135.814 58.7339C135.091 57.7875 134.16 56.7423 132.974 56.8359C132.57 56.8989 132.187 57.0597 131.859 57.3044C131.531 57.5491 131.268 57.8702 131.092 58.2399C130.742 58.9719 130.488 59.7462 130.338 60.5435C129.662 63.1851 128.508 65.6707 127.514 68.2031C126.521 70.7355 125.679 73.4031 125.679 76.1175C125.679 78.8319 126.625 81.6711 128.705 83.4339C130.608 85.0511 133.546 85.5139 135.678 84.2763C137.301 84.0059 138.278 82.1339 138.346 80.4491C138.414 78.7643 137.862 76.9443 137.961 75.1815C138.107 72.5815 139.641 70.2363 139.781 67.6623Z" fill="white"/>
</g>
<path d="M136.9 79.6537C136.817 77.5737 136.38 75.4937 136.521 73.4137C136.604 72.1969 136.879 70.9853 136.775 69.7737C136.671 68.5621 136.073 67.2777 134.945 66.8201C134.637 66.6975 134.306 66.6422 133.974 66.6579C133.643 66.6735 133.319 66.7598 133.023 66.911C132.728 67.0621 132.468 67.2747 132.261 67.5343C132.055 67.7939 131.906 68.0947 131.825 68.4165C131.659 69.0977 131.799 69.8413 131.529 70.4965C131.102 71.5365 129.797 71.9525 129.334 72.9665C129.078 73.7193 129.119 74.5414 129.449 75.2649C129.776 75.9802 129.991 76.7412 130.088 77.5217C130.13 78.7853 129.308 79.9449 129.256 81.2085C129.267 81.9009 129.466 82.5773 129.832 83.1647C130.199 83.7521 130.719 84.2283 131.336 84.5417C132.582 85.1544 133.995 85.3373 135.356 85.0617C137.753 83.3977 136.983 81.7389 136.9 79.6537Z" fill="#119496"/>
<g opacity="0.3">
<path opacity="0.3" d="M136.021 79.8876C135.74 78.702 135.064 77.636 134.789 76.4452C134.703 75.8401 134.573 75.2422 134.399 74.6564C134.306 74.3644 134.133 74.1043 133.899 73.9057C133.666 73.7072 133.381 73.5781 133.078 73.5332C132.734 73.56 132.409 73.7 132.153 73.9315C131.897 74.163 131.725 74.4728 131.664 74.8124C131.569 75.5003 131.631 76.2008 131.846 76.8612C132.06 77.5223 132.108 78.2259 131.986 78.91C131.82 79.56 131.357 80.1112 131.216 80.7664C131.146 81.2725 131.221 81.7881 131.433 82.2531C131.645 82.718 131.985 83.1132 132.412 83.3924C132.793 83.6758 133.249 83.8405 133.723 83.8656C134.157 83.8943 134.591 83.7973 134.972 83.5861C135.353 83.375 135.665 83.0586 135.87 82.6748C136.249 81.7928 136.302 80.8053 136.021 79.8876Z" fill="white"/>
</g>
<g opacity="0.3">
<path opacity="0.3" d="M133.541 69.5184C133.41 69.5902 133.301 69.6978 133.229 69.8287C133.156 69.9597 133.122 70.1085 133.131 70.258C133.14 70.4074 133.191 70.5513 133.278 70.6729C133.366 70.7945 133.486 70.8888 133.624 70.9448C133.763 71.0008 133.915 71.0163 134.062 70.9894C134.21 70.9625 134.346 70.8943 134.456 70.7928C134.566 70.6913 134.645 70.5607 134.684 70.4161C134.723 70.2714 134.719 70.1188 134.675 69.976C134.608 69.7904 134.477 69.6353 134.305 69.5396C134.132 69.4439 133.931 69.4142 133.739 69.456" fill="white"/>
</g>
<path d="M134.68 60.5332C134.68 60.5332 133.536 61.8072 133.582 62.7952C133.572 63.0683 133.661 63.3359 133.834 63.5483C134.006 63.7606 134.249 63.9032 134.518 63.9496L134.794 62.2388L134.68 60.5332Z" fill="#119496"/>
<path d="M140.036 87.2663C139.224 87.0156 138.441 86.6792 137.701 86.2626C136.921 85.9246 136.179 85.5064 135.486 85.0146C136.298 85.2648 137.081 85.6012 137.821 86.0182C138.6 86.3568 139.342 86.7751 140.036 87.2663Z" fill="#119496"/>
<path d="M123.001 80.9434C122.911 80.6885 122.847 80.4255 122.808 80.1582C122.694 79.6382 122.579 78.9102 122.47 77.9898C122.351 76.9106 122.292 75.8256 122.293 74.7398C122.296 72.0742 122.656 69.421 123.365 66.8514C123.653 65.803 124 64.7718 124.405 63.7626C124.753 62.9046 125.065 62.2026 125.304 61.7606C125.418 61.5167 125.55 61.282 125.699 61.0586C125.62 61.3156 125.521 61.566 125.403 61.8074C125.19 62.2754 124.883 62.967 124.581 63.8302C124.28 64.6934 123.926 65.7386 123.609 66.9138C122.948 69.4621 122.598 72.0813 122.569 74.7138C122.569 75.9306 122.605 77.0278 122.689 77.9482C122.772 78.8686 122.855 79.607 122.938 80.1166C122.981 80.3901 123.002 80.6666 123.001 80.9434Z" fill="#119496"/>
<path d="M120.359 75.2852C120.269 74.955 120.227 74.6134 120.234 74.2712C120.163 72.6199 120.339 70.9673 120.754 69.3676C120.819 69.0297 120.935 68.7037 121.097 68.4004C121.175 68.4004 120.775 69.9292 120.577 71.8272C120.38 73.7252 120.442 75.28 120.359 75.2852Z" fill="#119496"/>
<path d="M142.1 69.3157C142.017 69.3157 142.381 67.8077 142.35 65.9409C142.318 64.0741 141.928 62.5921 142.006 62.5713C142.169 62.867 142.278 63.1892 142.329 63.5229C142.695 65.11 142.718 66.757 142.396 68.3537C142.353 68.6889 142.253 69.0143 142.1 69.3157Z" fill="#119496"/>
<path d="M143.738 69.4721C144.044 68.2234 144.249 66.9523 144.352 65.6709C144.363 64.385 144.275 63.1002 144.087 61.8281C144.255 62.1736 144.365 62.5442 144.414 62.9253C144.774 64.7454 144.69 66.6253 144.17 68.4061C144.083 68.7821 143.938 69.1419 143.738 69.4721Z" fill="#119496"/>
<path d="M121.347 86.658L121.586 86.5956C121.963 85.9592 122.494 85.428 123.13 85.0508C123.766 84.6737 124.487 84.4628 125.226 84.4376C126.708 84.3979 128.147 84.9348 129.241 85.9352C130.005 86.6112 130.608 87.4484 131.373 88.1244C131.732 88.4867 132.17 88.7618 132.652 88.9286C133.134 89.0953 133.648 89.1493 134.155 89.0864C134.274 89.4608 133.583 89.6792 133.635 90.0692C133.658 90.1596 133.709 90.2408 133.779 90.302C133.85 90.3633 133.937 90.4018 134.03 90.4124C134.302 90.4332 134.575 90.4332 134.846 90.4124C134.983 90.4021 135.12 90.4352 135.236 90.5071C135.353 90.579 135.444 90.686 135.496 90.8128C135.52 90.945 135.509 91.0811 135.465 91.208C135.203 92.3836 134.647 93.4733 133.848 94.3748C133.445 94.8203 132.939 95.1607 132.374 95.3664C131.81 95.5721 131.204 95.6369 130.608 95.5552C129.681 95.3007 128.831 94.8221 128.133 94.1616L123.88 90.7504C123.201 90.2554 122.591 89.6732 122.065 89.0188C121.524 88.3571 121.266 87.5087 121.347 86.658Z" fill="#263238"/>
<path d="M122.236 86.8916C121.664 86.4094 120.985 86.0723 120.255 85.9088C119.89 85.8303 119.513 85.8262 119.147 85.8967C118.781 85.9673 118.432 86.1112 118.123 86.3196C117.602 86.7777 117.162 87.321 116.823 87.9264C116.651 88.2264 116.42 88.489 116.145 88.6988C115.87 88.9086 115.556 89.0615 115.221 89.1484C115.098 89.148 114.978 89.1862 114.878 89.2576C114.722 89.4032 114.836 89.6944 115.029 89.7776C115.235 89.8437 115.457 89.8437 115.663 89.7776C115.32 90.1747 114.849 90.4395 114.332 90.5264C114.365 90.6507 114.422 90.7672 114.499 90.8694C114.577 90.9715 114.675 91.0572 114.786 91.1215C114.897 91.1858 115.02 91.2275 115.147 91.244C115.275 91.2606 115.404 91.2517 115.528 91.218C115.296 92.0151 115.164 92.8377 115.133 93.6672C115.106 94.5044 115.392 95.3216 115.934 95.9604C116.552 96.6312 117.561 97.0004 117.832 97.874" fill="#263238"/>
<path d="M128.206 116.116L117.135 115.96L118.373 106.517C118.373 106.517 117.614 106.355 117.562 102.247C117.51 98.1394 117.322 91.1662 117.322 91.1662C119.654 90.1622 122.212 89.7996 124.73 90.1159C127.249 90.4322 129.638 91.416 131.648 92.9654L132.257 93.4334L128.206 116.116Z" fill="#FFBE9D"/>
<path d="M130.972 98.5036C131.04 98.4724 133.791 97.6664 133.697 100.474C133.603 103.282 130.811 102.612 130.811 102.554C130.811 102.497 130.972 98.5036 130.972 98.5036Z" fill="#FFBE9D"/>
<path d="M117.801 97.9163C117.733 97.8851 115.232 97.2091 115.32 99.9963C115.409 102.783 118.206 102.139 118.211 102.076C118.217 102.014 117.801 97.9163 117.801 97.9163Z" fill="#FFBE9D"/>
<path d="M131.877 98.1859C131.461 100.541 131.544 101.779 131.154 103.349C130.54 105.835 129.308 107.743 127.072 108.986C124.836 110.229 121.81 110.203 119.886 108.513C118.554 107.338 117.608 106.012 117.41 104.249C117.213 102.486 116.693 99.1635 116.677 97.3851C116.677 94.1819 116.766 91.3063 116.766 91.3063L125.907 89.6475L131.107 92.7675L131.877 98.1859Z" fill="#263238"/>
<path d="M122.444 110.401C122.954 110.597 123.509 110.646 124.046 110.541C124.592 110.523 125.122 110.356 125.58 110.058C125.554 109.985 124.878 110.198 124.02 110.287C123.162 110.375 122.455 110.328 122.444 110.401Z" fill="#263238"/>
<path d="M131.435 102.19C131.705 99.7772 131.877 97.0212 132.256 94.4784C132.397 93.5216 132.735 92.1488 132.652 91.1868C132.568 90.2248 132.303 90.516 131.877 89.6268C131.357 88.5348 129.313 87.8068 128.128 87.5468C126.942 87.2868 126.791 86.278 125.876 87.0788C125.537 86.575 125.052 86.1873 124.485 85.968C123.919 85.7487 123.299 85.7082 122.709 85.8522C122.119 85.9962 121.587 86.3176 121.186 86.7731C120.784 87.2286 120.532 87.7963 120.463 88.3996C120.13 88.1003 119.709 87.9165 119.263 87.8755C118.817 87.8346 118.369 87.9387 117.987 88.1724C117.605 88.4061 117.309 88.7569 117.142 89.1726C116.975 89.5883 116.947 90.0467 117.062 90.4796C116.732 90.5356 116.422 90.6726 116.158 90.8781C115.894 91.0837 115.685 91.3515 115.55 91.6576C115.415 91.9636 115.358 92.2984 115.384 92.6318C115.41 92.9653 115.519 93.2871 115.7 93.5684C116.126 94.2236 116.89 94.5824 117.358 95.2064C117.622 95.5709 117.775 96.0032 117.8 96.4521C117.824 96.9009 117.72 97.3475 117.499 97.7388" fill="#263238"/>
<path d="M119.652 101.686C119.523 102.522 119.633 103.378 119.969 104.156C120.225 104.968 120.709 105.69 121.363 106.236C120.922 105.55 120.536 104.83 120.208 104.083C119.962 103.299 119.776 102.498 119.652 101.686Z" fill="#455A64"/>
<path d="M118.425 99.6367C118.174 100.35 118.113 101.116 118.248 101.86C118.383 102.604 118.709 103.3 119.194 103.88C118.902 103.208 118.669 102.512 118.497 101.8C118.411 101.082 118.386 100.359 118.425 99.6367Z" fill="#455A64"/>
<path d="M129.943 89.96C129.29 88.8133 128.29 87.903 127.088 87.36C126.49 87.1019 125.835 87.0087 125.189 87.0901C124.543 87.1715 123.931 87.4245 123.417 87.8228" fill="#263238"/>
<path d="M129.714 96.148C129.667 96.148 129.714 95.8204 129.802 95.316C129.931 94.6754 130.003 94.0245 130.015 93.3712C130.013 92.7273 129.869 92.0918 129.594 91.5096C129.376 91.0676 129.152 90.8388 129.188 90.8024C129.225 90.766 129.5 90.948 129.792 91.3952C130.154 91.9883 130.343 92.671 130.338 93.366C130.333 94.0468 130.228 94.7231 130.026 95.3732C129.972 95.649 129.866 95.9121 129.714 96.148Z" fill="#455A64"/>
<path d="M127.821 97.0737C127.738 97.0321 127.967 96.4757 128.185 95.7789C128.404 95.0821 128.544 94.4945 128.638 94.5101C128.736 94.9693 128.687 95.448 128.497 95.8777C128.263 96.6109 127.92 97.1205 127.821 97.0737Z" fill="#455A64"/>
<path d="M119.038 96.3555C118.747 96.0792 118.531 95.734 118.409 95.3519C118.035 94.4477 117.938 93.4532 118.128 92.4935C118.319 91.5339 118.789 90.6522 119.48 89.9595C119.74 89.6544 120.073 89.42 120.447 89.2783C120.479 89.3199 120.109 89.5799 119.652 90.1155C119.052 90.8115 118.64 91.6492 118.456 92.5491C118.282 93.4517 118.339 94.3838 118.622 95.2583C118.841 95.9447 119.08 96.3243 119.038 96.3555Z" fill="#455A64"/>
<path d="M129.038 85.9095C128.722 85.8196 128.419 85.6922 128.133 85.5299C127.444 85.2001 126.692 85.0228 125.928 85.0099C125.554 85.003 125.182 85.0749 124.837 85.221C124.492 85.367 124.182 85.5838 123.926 85.8575C123.731 86.1092 123.557 86.3771 123.406 86.6583C123.37 86.6583 123.36 86.2319 123.739 85.7119C123.965 85.4112 124.257 85.1659 124.592 84.9943C125.003 84.7924 125.455 84.6875 125.913 84.6875C126.729 84.7007 127.527 84.9285 128.227 85.3479C128.768 85.6287 129.059 85.8731 129.038 85.9095Z" fill="#455A64"/>
<path d="M116.527 88.5095C116.496 88.5095 116.558 88.1819 116.854 87.7659C117.248 87.2218 117.812 86.8242 118.457 86.6359C119.102 86.4476 119.791 86.4793 120.416 86.7259C120.89 86.9183 121.113 87.1471 121.092 87.1783C121.072 87.2095 120.801 87.0691 120.344 86.9443C119.757 86.7745 119.134 86.7748 118.548 86.9451C117.962 87.1154 117.436 87.4487 117.031 87.9063C116.714 88.2599 116.574 88.5303 116.527 88.5095Z" fill="#455A64"/>
<path d="M119.542 98.831C119.542 98.7894 119.995 98.6698 120.733 98.337C121.735 97.8856 122.652 97.2646 123.442 96.5014L123.962 95.9814L123.671 96.6678C123.491 97.0956 123.358 97.5421 123.276 97.999C123.229 98.233 123.193 98.519 123.276 98.5606C123.359 98.6022 123.588 98.5086 123.796 98.3578C124.505 97.9022 125.139 97.3411 125.678 96.6938L126.167 96.1114L125.944 96.8342L125.32 98.8519L125.112 98.7218C125.795 98.0411 126.396 97.2818 126.9 96.4598C126.841 96.7208 126.735 96.969 126.588 97.193C126.236 97.8206 125.799 98.3963 125.288 98.9038L124.945 99.247L125.075 98.7791C125.247 98.1602 125.439 97.4842 125.647 96.751L125.912 96.8914C125.36 97.5723 124.704 98.162 123.968 98.6386C123.851 98.7166 123.73 98.7861 123.604 98.8466C123.525 98.8923 123.435 98.9163 123.344 98.9163C123.252 98.9163 123.163 98.8923 123.084 98.8466C123.017 98.7865 122.966 98.711 122.935 98.6268C122.905 98.5425 122.895 98.452 122.907 98.363C122.917 98.2302 122.936 98.0981 122.964 97.9678C123.052 97.4878 123.197 97.02 123.396 96.5742L123.64 96.7406C122.817 97.5151 121.851 98.121 120.796 98.5242C120.398 98.6954 119.974 98.7991 119.542 98.831Z" fill="#455A64"/>
<path d="M124.893 88.0047C124.799 87.8369 124.673 87.6897 124.521 87.5718C124.369 87.4539 124.195 87.3677 124.009 87.3183C123.636 87.2324 123.249 87.2324 122.876 87.3183C121.943 87.4872 121.099 87.9764 120.489 88.7015C120.348 88.8627 120.229 89.1175 120.374 89.2735C120.462 89.3466 120.573 89.3855 120.686 89.3827C122.065 89.4956 123.453 89.4467 124.82 89.2371" fill="#263238"/>
<path d="M134.201 88.811C134.201 88.811 134.154 88.8838 134.024 88.9722C133.829 89.0986 133.606 89.177 133.374 89.201C133.005 89.2399 132.631 89.1863 132.288 89.045C131.84 88.8518 131.439 88.5645 131.112 88.2026C130.733 87.823 130.39 87.355 129.974 86.9078C129.534 86.4252 129.044 85.9911 128.512 85.613C127.937 85.1874 127.289 84.8718 126.599 84.6822C125.856 84.5029 125.08 84.5136 124.342 84.7134C123.265 84.9525 122.318 85.5895 121.69 86.497L121.596 86.6478L121.482 86.5178C121.115 86.1042 120.607 85.8426 120.057 85.7846C119.55 85.735 119.039 85.8268 118.58 86.0498C117.676 86.4502 117.286 87.2978 116.854 87.8906C116.641 88.1922 116.474 88.473 116.277 88.7018C116.114 88.8993 115.897 89.0455 115.653 89.123C115.501 89.1658 115.342 89.1781 115.185 89.1594C115.131 89.1592 115.077 89.1467 115.029 89.123C115.231 89.122 115.432 89.094 115.627 89.0398C115.847 88.9516 116.039 88.8061 116.183 88.6186C116.355 88.4002 116.516 88.0986 116.703 87.8022C116.89 87.5058 117.109 87.1574 117.364 86.7622C117.651 86.3665 118.029 86.0455 118.466 85.8262C118.961 85.5766 119.516 85.4721 120.068 85.5246C120.68 85.5803 121.249 85.8665 121.659 86.3254H121.451C122.111 85.3553 123.114 84.6715 124.259 84.4118C125.044 84.2117 125.866 84.2117 126.651 84.4118C127.37 84.6125 128.046 84.9458 128.642 85.3946C129.183 85.7873 129.68 86.2371 130.124 86.7362C130.54 87.2094 130.878 87.6774 131.232 88.057C131.482 88.3801 131.803 88.6417 132.17 88.8219C132.537 89.0022 132.94 89.0962 133.348 89.097C133.652 89.0722 133.944 88.974 134.201 88.811Z" fill="#119496"/>
<path d="M120.297 95.8675C120.074 95.5928 119.918 95.2708 119.839 94.9263C119.58 94.1105 119.525 93.2438 119.678 92.4018C119.832 91.5598 120.188 90.768 120.718 90.0955C120.916 89.8024 121.177 89.5572 121.482 89.3779C121.513 89.4091 121.227 89.6899 120.874 90.2099C120.404 90.8831 120.085 91.6495 119.938 92.4571C119.791 93.2646 119.819 94.0943 120.021 94.8899C120.167 95.4879 120.338 95.8467 120.297 95.8675Z" fill="#119496"/>
<path d="M129.714 91.2134C129.672 91.2394 129.464 90.917 129.053 90.4698C128.515 89.8908 127.884 89.4058 127.186 89.0346C126.488 88.6671 125.732 88.4209 124.95 88.3066C124.619 88.2833 124.289 88.2416 123.962 88.1818C124.29 88.0864 124.634 88.0633 124.971 88.1142C125.79 88.1811 126.587 88.4132 127.313 88.7967C128.04 89.1801 128.681 89.7068 129.199 90.345C129.427 90.5969 129.602 90.8923 129.714 91.2134Z" fill="#119496"/>
<path d="M113.469 205.92L119.225 239.949L126.984 242.84C126.984 242.84 126.692 219.918 126.396 217.022C125.808 211.302 125.496 204.417 125.496 204.417L113.469 205.92Z" fill="#FFBE9D"/>
<path d="M131.991 204.037L145.329 240.11L153.186 237.297L143.317 201.521L131.991 204.037Z" fill="#FFBE9D"/>
<path d="M109.824 173.68L111.202 206.17L127.322 204.168L126.693 191.88L127.733 189.28L127.296 190.372L130.364 204.298L144.783 201.24L141.268 167.7C141.268 167.7 139.391 162.932 139.261 162.053C139.131 161.174 134.129 158.543 134.129 158.543L109.824 170.56V173.68Z" fill="#263238"/>
<path d="M132.511 179.535C132.467 179.717 132.397 179.892 132.303 180.055L131.669 181.371C131.149 182.478 130.395 184.012 129.589 185.718L127.566 190.091C127.327 190.611 127.119 191.048 126.942 191.412C126.878 191.581 126.79 191.74 126.682 191.885C126.714 191.705 126.77 191.53 126.849 191.365C126.968 191.043 127.155 190.58 127.369 190.008C127.842 188.869 128.523 187.304 129.319 185.598C130.114 183.893 130.879 182.364 131.461 181.277C131.752 180.731 131.981 180.3 132.173 180.003C132.264 179.833 132.378 179.675 132.511 179.535Z" fill="#455A64"/>
<path d="M117.036 113.172C116.37 113.266 108.134 116.563 106.99 118.643C106.412 119.683 104.598 134.851 104.598 134.851L114.478 135.231C114.478 135.231 112.486 151.678 112.959 153.103C112.959 153.103 112.07 157.612 111.758 158.516C111.061 160.55 109.829 170.56 109.829 170.56C109.829 170.56 143.343 168.599 143.15 168.313C142.958 168.027 142.298 160.55 142.298 160.55L141.258 118.877L135.2 113.131L129.584 112.699L117.036 113.172Z" fill="#119496"/>
<path d="M105.04 134.868C105.109 134.861 105.178 134.861 105.248 134.868H105.851L108.118 134.909L115.98 135.122L115.85 135.247C115.85 133.583 115.804 131.763 115.684 129.865C115.611 128.742 115.518 127.645 115.408 126.589C115.346 126.069 115.289 125.549 115.232 125.029C115.185 124.536 115.107 124.046 114.998 123.563C114.797 122.665 114.535 121.782 114.212 120.921C113.896 120.196 113.392 119.57 112.751 119.106C111.807 118.432 110.659 118.104 109.501 118.176C109.077 118.219 108.657 118.292 108.243 118.394C108.636 118.213 109.059 118.104 109.491 118.072C110.683 117.953 111.878 118.265 112.86 118.95C113.541 119.425 114.08 120.076 114.42 120.833C114.756 121.704 115.03 122.597 115.242 123.506C115.352 123.998 115.436 124.496 115.492 124.998C115.549 125.518 115.611 126.038 115.674 126.558C115.788 127.598 115.882 128.716 115.954 129.844C116.074 131.742 116.121 133.573 116.105 135.242V135.377H115.975L108.113 135.065L105.846 134.951L105.242 134.914C105.173 134.906 105.105 134.891 105.04 134.868Z" fill="#263238"/>
<path d="M144.586 110.495L151.736 119.143L143.702 124.192L134.581 115.321L135.184 113.132L144.586 110.495Z" fill="#119496"/>
<g opacity="0.3">
<path opacity="0.3" d="M115.018 123.359C115.32 126.705 115.623 130.047 115.928 133.385C116.038 133.929 115.971 134.494 115.736 134.997C115.45 135.47 114.696 135.683 114.348 135.262L113.204 146.921C114.515 144.054 115.494 141.046 116.121 137.956C116.331 136.953 116.483 135.939 116.573 134.919C116.885 131.04 115.96 127.155 115.018 123.359Z" fill="black"/>
</g>
<path d="M107.12 174.346C107.9 175.072 108.383 176.061 108.477 177.123C108.481 177.543 108.521 177.962 108.597 178.376C108.784 179.078 109.34 179.619 109.611 180.295C109.741 180.578 109.772 180.896 109.699 181.199C109.658 181.349 109.572 181.482 109.451 181.58C109.331 181.678 109.183 181.736 109.028 181.745C108.909 181.736 108.793 181.702 108.688 181.645C108.582 181.589 108.489 181.511 108.415 181.418C107.786 180.752 107.676 179.707 107.011 179.078" fill="#FFBE9D"/>
<path d="M107.021 179.078C107.021 179.078 107.177 179.161 107.364 179.405C107.604 179.761 107.809 180.139 107.978 180.534C108.096 180.793 108.248 181.036 108.43 181.257C108.617 181.485 108.903 181.693 109.174 181.6C109.321 181.54 109.445 181.433 109.525 181.296C109.605 181.158 109.637 180.998 109.616 180.841C109.564 180.466 109.424 180.109 109.205 179.801C108.979 179.468 108.775 179.121 108.597 178.761C108.45 178.399 108.379 178.012 108.389 177.622C108.397 177.002 108.28 176.386 108.045 175.812C107.803 175.292 107.495 174.804 107.13 174.361C107.13 174.361 107.281 174.445 107.494 174.663C107.793 174.978 108.039 175.34 108.222 175.734C108.493 176.323 108.634 176.963 108.638 177.611C108.636 177.968 108.704 178.322 108.841 178.651C109.017 179.011 109.216 179.359 109.439 179.691C109.679 180.04 109.831 180.441 109.881 180.861C109.904 181.077 109.854 181.294 109.739 181.478C109.624 181.662 109.451 181.802 109.247 181.875C109.147 181.904 109.043 181.912 108.941 181.897C108.839 181.883 108.741 181.847 108.654 181.792C108.5 181.701 108.366 181.581 108.259 181.439C108.072 181.199 107.919 180.935 107.806 180.653C107.657 180.26 107.483 179.876 107.286 179.504C107.12 179.213 107.005 179.093 107.021 179.078Z" fill="#EB996E"/>
<path d="M105.929 134.888C105.929 134.888 104.104 145.319 104.01 146.229C103.917 147.139 102.377 175.401 102.377 175.401C102.377 175.401 101.655 181.672 102.377 182.941C102.644 183.406 103.02 183.798 103.473 184.084C103.927 184.369 104.443 184.539 104.977 184.579C105.539 184.579 108.503 182.603 108.503 182.603L107.64 175.651L107.146 174.345L108.019 169.738L113.318 146.011L114.488 135.231L105.929 134.888Z" fill="#FFBE9D"/>
<path d="M104.244 173.68C104.841 174.452 105.217 175.371 105.333 176.339C105.45 177.308 105.301 178.29 104.905 179.181L108.264 179.608C108.359 179.606 108.455 179.622 108.544 179.657C108.633 179.692 108.715 179.744 108.784 179.811C108.849 179.919 108.872 180.048 108.849 180.172C108.826 180.297 108.758 180.408 108.659 180.487C108.449 180.634 108.203 180.722 107.947 180.741C107.021 180.897 106.092 181.031 105.159 181.142" fill="#FFBE9D"/>
<path d="M105.149 181.153C105.316 181.086 105.491 181.042 105.669 181.023C106.023 180.955 106.532 180.867 107.156 180.763C107.468 180.711 107.827 180.674 108.196 180.586C108.363 180.552 108.515 180.469 108.633 180.347C108.682 180.288 108.713 180.217 108.722 180.141C108.73 180.065 108.715 179.988 108.68 179.92C108.602 179.806 108.404 179.77 108.16 179.744L107.489 179.66L106.08 179.484L104.853 179.328H104.676L104.749 179.161C105.303 177.909 105.366 176.495 104.926 175.199C104.73 174.685 104.49 174.189 104.208 173.717C104.325 173.81 104.425 173.923 104.504 174.05C104.747 174.387 104.944 174.754 105.092 175.142C105.605 176.477 105.57 177.961 104.993 179.27L104.889 179.083L106.111 179.239L107.52 179.421L108.191 179.51C108.318 179.508 108.443 179.533 108.559 179.584C108.675 179.636 108.778 179.711 108.862 179.806C108.925 179.918 108.95 180.048 108.935 180.176C108.92 180.303 108.866 180.423 108.779 180.518C108.632 180.682 108.434 180.792 108.217 180.83C107.832 180.914 107.494 180.934 107.177 180.981C106.543 181.059 106.028 181.116 105.674 181.153C105.5 181.17 105.324 181.17 105.149 181.153Z" fill="#EB996E"/>
<path d="M108.519 182.603C108.784 182.567 109.035 182.461 109.247 182.296C109.352 182.213 109.421 182.093 109.439 181.96C109.457 181.827 109.424 181.692 109.345 181.584C109.148 181.36 108.337 181.615 108.056 181.698C108.397 181.584 108.722 181.426 109.023 181.23C109.089 181.163 109.132 181.076 109.146 180.983C109.16 180.889 109.145 180.794 109.101 180.71C109.03 180.628 108.936 180.569 108.832 180.54C108.727 180.511 108.616 180.514 108.513 180.549C107.424 180.905 106.293 181.115 105.149 181.173" fill="#FFBE9D"/>
<path d="M105.149 181.152C105.149 181.111 105.633 181.09 106.397 180.939C106.782 180.861 107.234 180.757 107.728 180.622C107.983 180.554 108.248 180.476 108.513 180.393C108.688 180.346 108.873 180.366 109.033 180.45C109.124 180.5 109.198 180.577 109.246 180.669C109.293 180.762 109.311 180.867 109.299 180.97C109.283 181.129 109.206 181.276 109.085 181.381C108.98 181.458 108.866 181.524 108.747 181.579C108.524 181.677 108.311 181.766 108.103 181.844L108.019 181.599C108.407 181.451 108.823 181.392 109.236 181.428C109.292 181.44 109.345 181.466 109.39 181.502C109.435 181.538 109.471 181.584 109.496 181.636C109.534 181.728 109.549 181.828 109.538 181.927C109.519 182.09 109.444 182.241 109.325 182.353C109.16 182.491 108.96 182.581 108.747 182.613C108.607 182.639 108.529 182.639 108.524 182.613C108.519 182.587 108.591 182.572 108.727 182.52C108.907 182.462 109.072 182.364 109.21 182.234C109.295 182.143 109.345 182.025 109.351 181.901C109.351 181.776 109.299 181.636 109.184 181.625C108.812 181.622 108.442 181.693 108.097 181.833C108.065 181.843 108.03 181.84 108 181.825C107.97 181.809 107.947 181.782 107.936 181.75C107.927 181.718 107.93 181.684 107.945 181.655C107.959 181.625 107.984 181.602 108.014 181.589C108.212 181.511 108.425 181.423 108.633 181.324C108.732 181.28 108.826 181.226 108.914 181.163C108.978 181.102 109.021 181.021 109.033 180.934C109.07 180.731 108.794 180.601 108.581 180.658C108.368 180.715 108.061 180.814 107.796 180.871C107.347 180.985 106.892 181.073 106.433 181.137C106.009 181.218 105.575 181.223 105.149 181.152Z" fill="#EB996E"/>
<path d="M116.916 194.033C116.422 194.034 115.928 193.98 115.445 193.872C112.72 193.268 110.312 190.882 109.314 187.803C108.458 184.883 108.567 181.764 109.626 178.911C109.83 178.314 110.075 177.732 110.359 177.169C110.509 175.9 110.962 174.685 111.68 173.628C112.281 172.811 113.044 172.126 113.92 171.615C114.797 171.104 115.769 170.779 116.776 170.659C117.876 170.497 118.997 170.563 120.07 170.851C121.144 171.14 122.146 171.646 123.016 172.338C125.71 174.538 127.093 178.578 126.656 182.926C126.412 185.214 125.642 188.474 123.359 191.012C122.553 191.934 121.564 192.679 120.455 193.199C119.346 193.719 118.141 194.003 116.916 194.033ZM110.416 180.44C109.772 182.72 109.788 185.137 110.463 187.408C111.332 190.086 113.391 192.156 115.71 192.67C118.029 193.185 120.619 192.197 122.428 190.18C124.04 188.391 125.106 185.76 125.418 182.775C125.746 179.696 125.08 175.578 122.236 173.254C121.347 172.538 120.289 172.064 119.163 171.876C120.75 172.32 122.111 173.349 122.969 174.756C123.921 176.566 124.176 178.916 123.734 181.704C123.432 183.586 122.538 186.904 119.886 188.152C117.234 189.4 114.405 187.871 112.814 185.994C111.541 184.385 110.714 182.47 110.416 180.44ZM111.534 177.528C111.265 180.275 112.054 183.022 113.739 185.208C115.044 186.768 117.379 187.98 119.381 187.049C121.518 186.061 122.278 183.16 122.538 181.516C122.938 178.979 122.725 176.894 121.898 175.318C121.014 173.628 118.06 172.364 116.355 172.936C114.166 173.768 112.543 175.651 111.534 177.549V177.528Z" fill="#455A64"/>
<path d="M120.12 172.12C120.12 172.167 119.475 171.985 118.425 171.912C117.064 171.806 115.703 172.124 114.53 172.822C113.403 173.58 112.539 174.671 112.06 175.942C111.879 176.48 111.747 177.034 111.665 177.596C111.628 177.442 111.62 177.284 111.639 177.128C111.664 176.703 111.746 176.283 111.883 175.88C112.323 174.527 113.206 173.362 114.39 172.572C115.606 171.841 117.031 171.534 118.44 171.699C118.862 171.745 119.279 171.825 119.688 171.938C119.841 171.974 119.987 172.036 120.12 172.12Z" fill="#263238"/>
<path d="M110.848 182.275C110.383 181.301 110.145 180.235 110.151 179.155C110.047 177.377 110.515 175.973 110.588 176.009C110.457 177.044 110.401 178.087 110.422 179.129C110.507 180.185 110.65 181.235 110.848 182.275Z" fill="#263238"/>
<path d="M111.628 179.701C111.403 179.696 111.178 179.717 110.957 179.764C110.746 179.842 110.543 179.943 110.354 180.066C110.417 179.962 110.501 179.871 110.6 179.801C110.7 179.73 110.812 179.681 110.931 179.655C111.044 179.612 111.164 179.594 111.285 179.602C111.405 179.611 111.522 179.644 111.628 179.701Z" fill="#263238"/>
<path d="M112.84 184.028C112.65 184.097 112.464 184.177 112.283 184.267C112.123 184.389 111.97 184.521 111.826 184.662C111.904 184.461 112.045 184.291 112.228 184.177C112.41 184.063 112.625 184.011 112.84 184.028Z" fill="#263238"/>
<path d="M115.086 187.892C115.056 187.78 115.051 187.663 115.072 187.55C115.094 187.436 115.142 187.329 115.211 187.237C115.263 187.137 115.336 187.049 115.426 186.982C115.516 186.914 115.621 186.868 115.731 186.847C115.563 186.975 115.412 187.125 115.284 187.294C115.191 187.483 115.125 187.684 115.086 187.892Z" fill="#263238"/>
<path d="M120.442 187.903C120.325 187.905 120.209 187.882 120.101 187.836C119.994 187.789 119.897 187.72 119.819 187.634C119.74 187.547 119.681 187.445 119.645 187.333C119.609 187.222 119.597 187.104 119.61 186.987C119.671 187.194 119.77 187.388 119.902 187.559C120.058 187.708 120.241 187.825 120.442 187.903Z" fill="#263238"/>
<path d="M123.437 183.123C123.346 183.196 123.239 183.248 123.125 183.272C123.011 183.297 122.892 183.295 122.779 183.265C122.666 183.236 122.561 183.181 122.473 183.104C122.385 183.026 122.316 182.93 122.272 182.821C122.419 182.97 122.597 183.086 122.792 183.159C123.008 183.192 123.227 183.18 123.437 183.123Z" fill="#263238"/>
<path d="M123.89 178.188C123.926 178.188 123.765 178.532 123.37 178.594C123.25 178.623 123.125 178.617 123.009 178.575C122.894 178.534 122.793 178.459 122.72 178.36C122.913 178.452 123.125 178.496 123.339 178.49C123.545 178.439 123.735 178.335 123.89 178.188Z" fill="#263238"/>
<path d="M121.919 173.425C121.937 173.549 121.922 173.676 121.874 173.792C121.826 173.908 121.749 174.009 121.649 174.085C121.559 174.173 121.448 174.235 121.325 174.263C121.203 174.291 121.076 174.286 120.957 174.246C121.18 174.216 121.392 174.132 121.576 174.002C121.737 173.841 121.855 173.643 121.919 173.425Z" fill="#263238"/>
<path d="M116.22 172.967C116.22 172.967 116.173 173.04 116.069 172.998C116.014 172.971 115.966 172.931 115.928 172.883C115.891 172.834 115.864 172.778 115.851 172.718C115.819 172.64 115.807 172.556 115.815 172.473C115.824 172.389 115.852 172.309 115.897 172.239C115.909 172.389 115.928 172.538 115.955 172.686C115.976 172.782 116.029 172.868 116.105 172.931C116.163 172.978 116.209 172.952 116.22 172.967Z" fill="#263238"/>
<path d="M112.897 175.64C112.897 175.666 112.715 175.64 112.559 175.5C112.403 175.359 112.372 175.177 112.398 175.172C112.424 175.167 112.497 175.297 112.632 175.422C112.767 175.546 112.907 175.609 112.897 175.64Z" fill="#263238"/>
<path d="M112.284 175.193C112.188 174.972 112.037 174.779 111.847 174.632C111.634 174.518 111.396 174.461 111.155 174.465C111.277 174.418 111.409 174.401 111.539 174.415C111.669 174.428 111.794 174.472 111.904 174.543C112.014 174.614 112.106 174.71 112.172 174.823C112.238 174.936 112.276 175.063 112.284 175.193Z" fill="#263238"/>
<path d="M115.7 172.177C115.645 171.972 115.578 171.77 115.497 171.574C115.39 171.391 115.268 171.217 115.133 171.054C115.237 171.097 115.332 171.161 115.411 171.241C115.491 171.322 115.553 171.417 115.596 171.522C115.715 171.718 115.752 171.953 115.7 172.177Z" fill="#263238"/>
<path d="M120.442 170.95C120.487 171.06 120.504 171.179 120.491 171.297C120.478 171.415 120.437 171.528 120.37 171.626C120.32 171.735 120.243 171.829 120.146 171.9C120.05 171.971 119.937 172.016 119.818 172.032C119.818 172.001 120.099 171.891 120.276 171.574C120.369 171.378 120.425 171.167 120.442 170.95Z" fill="#263238"/>
<path d="M124.841 174.512C124.873 174.512 124.763 174.798 124.467 174.974C124.384 175.037 124.288 175.08 124.187 175.1C124.085 175.121 123.98 175.119 123.879 175.094C124.058 175.037 124.232 174.966 124.399 174.881C124.556 174.769 124.704 174.646 124.841 174.512Z" fill="#263238"/>
<path d="M126.531 179.4C126.478 179.493 126.403 179.571 126.312 179.628C126.221 179.684 126.118 179.717 126.011 179.723C125.909 179.75 125.801 179.752 125.698 179.728C125.595 179.705 125.499 179.656 125.418 179.588C125.608 179.626 125.803 179.636 125.996 179.619C126.183 179.57 126.363 179.497 126.531 179.4Z" fill="#263238"/>
<path d="M126.391 184.465C126.313 184.556 126.21 184.623 126.095 184.658C125.98 184.693 125.857 184.694 125.741 184.662C125.622 184.645 125.511 184.595 125.419 184.518C125.327 184.441 125.259 184.34 125.221 184.226C125.365 184.377 125.544 184.491 125.741 184.558C125.962 184.585 126.186 184.553 126.391 184.465Z" fill="#263238"/>
<path d="M123.692 190.455C123.584 190.464 123.475 190.45 123.373 190.415C123.27 190.38 123.175 190.325 123.094 190.253C123.032 190.203 122.982 190.14 122.946 190.069C122.91 189.999 122.89 189.921 122.886 189.842C122.886 189.717 122.933 189.649 122.943 189.655C122.954 189.66 122.943 189.727 122.943 189.831C122.974 189.964 123.047 190.083 123.151 190.169C123.417 190.367 123.708 190.419 123.692 190.455Z" fill="#263238"/>
<path d="M119.371 193.742C119.26 193.693 119.164 193.617 119.091 193.52C119.018 193.424 118.971 193.31 118.955 193.191C118.918 193.076 118.91 192.955 118.932 192.837C118.954 192.719 119.005 192.608 119.08 192.515C119.04 192.731 119.04 192.953 119.08 193.17C119.137 193.378 119.236 193.573 119.371 193.742Z" fill="#263238"/>
<path d="M113.817 193.341C113.703 193.138 113.669 192.898 113.723 192.671C113.777 192.444 113.915 192.245 114.109 192.114C113.994 192.297 113.901 192.492 113.833 192.697C113.799 192.91 113.793 193.127 113.817 193.341Z" fill="#263238"/>
<path d="M111.114 189.113C110.924 189.18 110.748 189.28 110.594 189.41C110.465 189.565 110.363 189.741 110.292 189.93C110.287 189.823 110.304 189.717 110.342 189.618C110.381 189.519 110.44 189.429 110.515 189.354C110.591 189.278 110.681 189.22 110.781 189.182C110.88 189.145 110.986 189.128 111.093 189.134L111.114 189.113Z" fill="#263238"/>
<path d="M109.943 185.499C109.769 185.494 109.595 185.508 109.423 185.541C109.253 185.61 109.089 185.695 108.935 185.796C108.976 185.704 109.04 185.623 109.119 185.56C109.199 185.498 109.293 185.456 109.392 185.437C109.482 185.403 109.579 185.391 109.675 185.402C109.771 185.413 109.863 185.446 109.943 185.499Z" fill="#263238"/>
<path d="M127.519 234.078L128.398 249.777L109.517 251.035C109.517 249.226 119.829 244.962 119.829 244.962L118.471 235.461L127.519 234.078Z" fill="#119496"/>
<g opacity="0.6">
<path opacity="0.6" d="M124.8 243.744C124.986 243.786 125.15 243.895 125.26 244.051C125.369 244.207 125.417 244.398 125.393 244.587C125.357 244.774 125.251 244.94 125.096 245.05C124.941 245.161 124.749 245.207 124.561 245.18C124.365 245.135 124.192 245.018 124.078 244.853C123.963 244.687 123.915 244.485 123.942 244.285C124 244.095 124.129 243.935 124.303 243.838C124.476 243.741 124.68 243.715 124.873 243.765" fill="white"/>
</g>
<g opacity="0.6">
<path opacity="0.6" d="M128.398 249.777L128.247 248.248L110.198 250.026C110.198 250.026 109.382 250.448 109.517 251.035L128.398 249.777Z" fill="white"/>
</g>
<path d="M119.553 245.154C119.553 245.243 120.026 245.258 120.5 245.524C120.973 245.789 121.238 246.158 121.321 246.116C121.404 246.075 121.233 245.55 120.656 245.238C120.078 244.926 119.527 245.071 119.553 245.154Z" fill="#263238"/>
<path d="M117.135 246.173C117.135 246.266 117.53 246.396 117.868 246.766C118.206 247.135 118.326 247.54 118.42 247.53C118.513 247.52 118.534 247.01 118.102 246.542C117.671 246.074 117.135 246.084 117.135 246.173Z" fill="#263238"/>
<path d="M116.204 248.528C116.287 248.528 116.386 248.071 116.116 247.582C115.845 247.093 115.403 246.921 115.367 246.999C115.331 247.077 115.617 247.332 115.835 247.738C116.053 248.144 116.111 248.523 116.204 248.528Z" fill="#263238"/>
<path d="M119.532 242.616C119.579 242.694 119.99 242.538 120.515 242.538C121.04 242.538 121.456 242.679 121.498 242.595C121.539 242.512 121.129 242.211 120.51 242.221C119.891 242.231 119.48 242.543 119.532 242.616Z" fill="#263238"/>
<path d="M119.272 241.088C119.205 240.923 119.177 240.745 119.189 240.568C119.19 240.062 119.325 239.565 119.579 239.127C119.755 238.822 119.986 238.552 120.26 238.332C120.343 238.248 120.449 238.19 120.564 238.165C120.679 238.14 120.799 238.149 120.909 238.191C121.019 238.233 121.115 238.306 121.184 238.401C121.254 238.496 121.294 238.609 121.3 238.727C121.301 239.203 121.159 239.669 120.892 240.063C120.625 240.457 120.245 240.762 119.803 240.937C119.365 241.106 118.887 241.148 118.427 241.055C117.966 240.963 117.542 240.742 117.203 240.417C117.041 240.273 116.911 240.095 116.823 239.897C116.774 239.786 116.761 239.662 116.787 239.543C116.805 239.483 116.836 239.426 116.877 239.378C116.918 239.33 116.969 239.291 117.026 239.263C117.219 239.192 117.431 239.192 117.624 239.263C117.781 239.319 117.934 239.387 118.081 239.465C118.527 239.692 118.923 240.005 119.246 240.386C119.376 240.517 119.479 240.672 119.548 240.843C119.109 240.346 118.579 239.937 117.988 239.637C117.723 239.517 117.374 239.346 117.114 239.455C117.086 239.472 117.061 239.494 117.041 239.52C117.021 239.547 117.007 239.577 116.999 239.609C116.992 239.641 116.99 239.674 116.996 239.707C117.001 239.739 117.013 239.77 117.031 239.798C117.115 239.96 117.227 240.104 117.364 240.225C117.674 240.511 118.058 240.704 118.473 240.782C118.888 240.86 119.316 240.82 119.709 240.667C120.097 240.511 120.431 240.246 120.672 239.905C120.912 239.564 121.049 239.16 121.066 238.743C121.06 238.664 121.033 238.589 120.988 238.524C120.943 238.459 120.882 238.408 120.811 238.373C120.738 238.358 120.662 238.36 120.589 238.38C120.517 238.4 120.451 238.437 120.395 238.488C120.136 238.686 119.914 238.929 119.74 239.205C119.488 239.613 119.335 240.075 119.293 240.552C119.267 240.895 119.298 241.088 119.272 241.088Z" fill="#263238"/>
<path d="M151.788 228.972L155.381 244.301L137.238 249.688C136.832 247.92 145.735 241.519 145.735 241.519L142.058 231.795L151.788 228.972Z" fill="#119496"/>
<g opacity="0.6">
<path opacity="0.6" d="M150.566 239.2C150.756 239.2 150.94 239.271 151.081 239.399C151.222 239.526 151.311 239.702 151.33 239.891C151.335 240.081 151.267 240.266 151.141 240.408C151.014 240.55 150.838 240.639 150.649 240.656C150.448 240.654 150.254 240.577 150.106 240.441C149.958 240.304 149.866 240.118 149.848 239.917C149.862 239.718 149.952 239.531 150.101 239.397C150.249 239.263 150.444 239.193 150.644 239.2" fill="white"/>
</g>
<g opacity="0.6">
<path opacity="0.6" d="M155.381 244.301L154.897 242.845L137.685 248.565C137.685 248.565 136.978 249.152 137.238 249.698L155.381 244.301Z" fill="white"/>
</g>
<path d="M145.647 241.597C145.673 241.685 146.13 241.597 146.65 241.753C147.17 241.909 147.508 242.21 147.581 242.148C147.654 242.086 147.368 241.628 146.739 241.441C146.109 241.254 145.6 241.524 145.647 241.597Z" fill="#263238"/>
<path d="M143.603 243.267C143.603 243.36 144.035 243.397 144.451 243.683C144.867 243.969 145.064 244.338 145.153 244.307C145.241 244.275 145.153 243.761 144.633 243.417C144.113 243.074 143.582 243.183 143.603 243.267Z" fill="#263238"/>
<path d="M143.208 245.767C143.296 245.767 143.286 245.284 142.917 244.868C142.547 244.452 142.074 244.379 142.059 244.462C142.043 244.545 142.376 244.732 142.677 245.081C142.979 245.429 143.119 245.788 143.208 245.767Z" fill="#263238"/>
<path d="M144.882 239.32C144.945 239.387 145.314 239.143 145.823 239.028C146.333 238.914 146.77 238.956 146.796 238.867C146.822 238.779 146.349 238.571 145.756 238.716C145.163 238.862 144.82 239.262 144.882 239.32Z" fill="#263238"/>
<path d="M144.56 237.837C144.457 237.68 144.389 237.503 144.362 237.317C144.25 236.825 144.272 236.311 144.424 235.83C144.525 235.492 144.691 235.178 144.913 234.904C144.974 234.801 145.064 234.717 145.172 234.665C145.28 234.612 145.401 234.593 145.52 234.609C145.639 234.625 145.75 234.676 145.841 234.755C145.931 234.835 145.995 234.939 146.026 235.055C146.131 235.519 146.094 236.004 145.921 236.447C145.747 236.89 145.445 237.271 145.054 237.541C144.664 237.81 144.205 237.961 143.732 237.976C143.259 237.99 142.792 237.868 142.386 237.624C142.196 237.519 142.029 237.376 141.897 237.203C141.826 237.103 141.788 236.983 141.788 236.86C141.792 236.797 141.808 236.736 141.837 236.681C141.866 236.625 141.906 236.576 141.954 236.537C142.127 236.426 142.334 236.382 142.537 236.412C142.703 236.435 142.868 236.468 143.031 236.511C143.516 236.635 143.972 236.854 144.372 237.156C144.527 237.255 144.661 237.382 144.768 237.53C144.233 237.151 143.634 236.871 143 236.704C142.714 236.652 142.334 236.558 142.105 236.704C142.082 236.726 142.063 236.753 142.05 236.783C142.037 236.813 142.03 236.845 142.03 236.878C142.03 236.91 142.037 236.943 142.05 236.973C142.063 237.003 142.082 237.03 142.105 237.052C142.223 237.193 142.366 237.311 142.526 237.4C142.891 237.612 143.309 237.716 143.73 237.7C144.151 237.684 144.56 237.55 144.908 237.312C145.252 237.074 145.52 236.742 145.68 236.355C145.839 235.969 145.884 235.544 145.808 235.133C145.785 235.059 145.743 234.991 145.685 234.939C145.628 234.887 145.557 234.852 145.48 234.837C145.405 234.835 145.33 234.853 145.264 234.888C145.197 234.924 145.141 234.976 145.1 235.04C144.891 235.289 144.728 235.574 144.622 235.882C144.463 236.334 144.413 236.817 144.476 237.291C144.523 237.64 144.591 237.827 144.56 237.837Z" fill="#263238"/>
<g opacity="0.3">
<path opacity="0.3" d="M142.293 160.435L111.753 158.517C121.004 161.434 130.619 163.576 140.311 163.888C141.071 163.827 141.825 163.71 142.568 163.54C142.568 163.54 142.23 160.285 142.293 160.435Z" fill="black"/>
</g>
<path d="M112.673 114.951C112.673 114.951 121.924 118.425 122.735 119.319C124.696 121.483 126.713 124.192 126.713 129.693V150.405C126.714 150.826 126.629 151.242 126.465 151.629C126.3 152.016 126.059 152.365 125.756 152.657C125.453 152.948 125.094 153.175 124.701 153.324C124.308 153.474 123.889 153.542 123.469 153.525L112.954 153.109C112.16 154.803 111.75 156.651 111.753 158.522C111.753 158.522 124.561 160.306 130.509 161.309C136.458 162.313 143.509 161.049 143.509 161.049L141.273 118.883L131.321 112.892L129.579 112.705C129.579 112.705 130.717 114.026 129.61 114.785C128.123 115.799 123.021 115.419 123.021 115.419L116.376 113.36L112.673 114.951Z" fill="#263238"/>
<path d="M130.473 115.571C129.549 116.154 128.799 116.975 128.301 117.947C127.802 118.919 127.574 120.008 127.639 121.098C128.107 130.177 129.48 156.619 129.573 156.895C129.667 157.171 135.179 160.863 138.58 161.242C140.717 161.481 145.672 160.826 149.058 160.301C150.023 160.147 150.903 159.658 151.544 158.921C152.185 158.183 152.545 157.243 152.562 156.266L152.646 150.827C152.646 150.827 154.85 149.974 154.939 149.745C155.209 149.069 155.095 143.089 155.006 139.761C154.988 139.094 154.787 138.445 154.425 137.884C154.062 137.324 153.553 136.874 152.952 136.584L151.975 136.111C151.975 136.111 151.975 125.045 151.736 119.164C151.693 118.149 151.344 117.172 150.734 116.36C150.124 115.549 149.282 114.941 148.319 114.619C147.758 114.431 147.168 114.344 146.577 114.364C143.234 114.473 131.596 114.884 130.509 115.545L130.473 115.571Z" fill="#455A64"/>
<path d="M150.119 115.679H149.968H149.536L147.857 115.747L145.21 115.877C144.17 115.939 143 116.007 141.715 116.199C140.312 116.337 138.921 116.582 137.555 116.932C136.806 117.129 136.114 117.501 135.538 118.019C134.989 118.629 134.649 119.397 134.565 120.213C134.25 121.978 134.132 123.773 134.212 125.564C134.274 127.441 134.331 129.381 134.399 131.367C134.628 139.308 134.841 146.494 134.992 151.72C135.054 154.32 135.106 156.4 135.143 157.887C135.143 158.6 135.143 159.161 135.169 159.567V160.004C135.173 160.052 135.173 160.101 135.169 160.149C135.163 160.101 135.163 160.052 135.169 160.004L135.143 159.567C135.143 159.161 135.101 158.605 135.065 157.893C135.007 156.416 134.929 154.315 134.831 151.725C134.659 146.499 134.42 139.318 134.16 131.378C134.097 129.391 134.035 127.452 133.978 125.58C133.899 123.767 134.025 121.951 134.352 120.167C134.432 119.742 134.547 119.325 134.695 118.919C134.777 118.719 134.874 118.526 134.987 118.341C135.11 118.166 135.249 118.002 135.403 117.853C136.009 117.309 136.736 116.919 137.524 116.714C138.908 116.371 140.316 116.135 141.736 116.007C143.031 115.83 144.211 115.773 145.246 115.726C146.281 115.679 147.175 115.653 147.903 115.643H149.578H150.015L150.119 115.679Z" fill="#263238"/>
<path d="M152.058 136.359C152.058 136.432 148.158 136.806 143.333 137.196C138.507 137.586 134.586 137.836 134.581 137.763C134.576 137.69 138.481 137.316 143.312 136.926C148.143 136.536 152.053 136.286 152.058 136.359Z" fill="#263238"/>
<path d="M154.164 138.101C154.057 138.132 153.947 138.151 153.837 138.159L152.88 138.268L149.307 138.642L137.093 139.838L137.212 139.693C137.436 141.341 137.316 143.088 137.405 144.861C137.422 146.347 137.793 147.807 138.486 149.12C138.804 149.724 139.252 150.25 139.798 150.659C140.344 151.068 140.974 151.351 141.643 151.486C142.277 151.6 142.921 151.656 143.567 151.653H145.402C146.588 151.653 147.69 151.616 148.694 151.528C150.28 151.418 151.841 151.067 153.322 150.488C153.582 150.389 153.811 150.28 154.003 150.186C154.195 150.093 154.362 150.009 154.492 149.937C154.62 149.854 154.756 149.785 154.897 149.729C154.418 150.069 153.904 150.356 153.363 150.587C151.882 151.208 150.311 151.589 148.709 151.715C147.701 151.819 146.593 151.866 145.402 151.876H143.561C142.903 151.881 142.245 151.827 141.596 151.715C140.902 151.59 140.247 151.305 139.682 150.883C139.101 150.435 138.616 149.874 138.257 149.235C137.538 147.886 137.153 146.385 137.134 144.856C137.046 143.062 137.171 141.325 136.952 139.713V139.573H137.093L149.313 138.471L152.89 138.174L153.852 138.107C153.956 138.097 154.06 138.095 154.164 138.101Z" fill="#263238"/>
<path d="M136.032 115.19C135.468 115.385 134.931 115.647 134.43 115.97C133.101 116.918 132.094 118.25 131.544 119.787C130.795 121.716 130.686 124.212 130.837 126.937C130.988 129.662 131.133 132.657 131.3 135.834C131.606 142.137 131.882 147.846 132.085 152.006C132.168 154.055 132.241 155.724 132.293 156.905C132.293 157.466 132.324 157.914 132.334 158.241C132.347 158.395 132.347 158.55 132.334 158.704C132.305 158.551 132.287 158.397 132.282 158.241C132.282 157.914 132.23 157.472 132.189 156.91C132.121 155.73 132.022 154.066 131.898 152.012C131.674 147.852 131.378 142.132 131.034 135.845C130.878 132.688 130.728 129.683 130.592 126.948C130.457 124.212 130.592 121.68 131.372 119.72C131.945 118.156 132.997 116.813 134.378 115.882C134.755 115.642 135.161 115.448 135.584 115.305L135.922 115.211C135.958 115.2 135.995 115.193 136.032 115.19Z" fill="#263238"/>
<path d="M155.106 140.161C155.106 140.239 151.122 140.774 146.182 141.362C141.242 141.949 137.233 142.365 137.228 142.293C137.223 142.22 141.211 141.679 146.151 141.091C151.091 140.504 155.1 140.088 155.106 140.161Z" fill="#263238"/>
<path d="M140.478 126.958L147.919 126.137V122.601L145.621 124.961L145.257 123.433L142.979 125.253V123.88L140.478 126.958Z" fill="white"/>
<g opacity="0.3">
<path opacity="0.3" d="M152.979 150.8C149.004 151.704 144.9 151.897 140.858 151.372C139.199 151.122 138.138 149.042 137.654 147.436C137.795 149.198 137.711 152.703 139.095 153.8C140.069 154.611 141.312 155.027 142.579 154.965C145.065 154.92 147.538 154.584 149.947 153.967C150.76 153.813 151.527 153.479 152.194 152.989C152.521 152.738 152.769 152.398 152.908 152.01C153.047 151.622 153.072 151.202 152.979 150.8Z" fill="black"/>
</g>
<path d="M79.1803 135.871C73.1743 139.651 68.8271 145.652 65.8787 152.105C62.9303 158.559 61.2611 165.516 59.6387 172.417L60.5903 207.225C66.8615 194.184 71.5103 179.083 71.8951 164.617L66.9967 164.591C70.2155 163.821 72.7583 161.231 74.2767 158.283C75.7951 155.335 76.4087 152.043 77.0171 148.783L71.1619 150.155C75.5699 146.6 78.4411 141.486 79.1803 135.871Z" fill="#A3C717"/>
<path d="M60.1584 215.437C60.1584 215.437 42.7176 197.757 41.3864 179.635L47.798 179.115C47.798 179.115 40.4556 175.116 40.7936 172.511C41.1316 169.906 40.5024 160.161 40.5024 160.161L46.4824 161.138C46.4824 161.138 41.9064 159.308 41.0692 155.876C40.232 152.444 40.7156 136.184 40.7156 136.184C40.7156 136.184 48.4792 143.089 51.3184 150.598C54.1576 158.107 60.6784 166.593 60.928 190.165C61.1776 213.736 60.1584 215.437 60.1584 215.437Z" fill="#A3C717"/>
<path d="M68.3485 216.554C68.3485 216.554 84.5777 203.679 87.1777 188.75L81.9101 187.777C81.9101 187.777 88.3269 185.068 88.2645 182.879C88.2021 180.69 89.5229 172.682 89.5229 172.682L84.4841 172.999C84.4841 172.999 88.4257 171.86 89.4085 169.083C90.3913 166.306 91.3273 152.781 91.3273 152.781C91.3273 152.781 84.3177 157.872 81.3433 163.857C78.3689 169.842 72.2693 176.337 70.1061 195.868C67.9429 215.4 68.3485 216.554 68.3485 216.554Z" fill="#A3C717"/>
<path d="M46.4304 152.36C46.4304 152.36 46.4304 152.423 46.498 152.553L46.6852 153.125L47.3768 155.34C47.6732 156.297 48.032 157.477 48.4168 158.85C48.8016 160.223 49.2748 161.783 49.7428 163.53C50.7152 166.993 51.7812 171.143 52.9096 175.76C54.038 180.378 55.1611 185.49 56.2479 190.866C57.3347 196.243 58.2396 201.402 59.004 206.097C59.7683 210.793 60.3664 215.031 60.8083 218.603C61.0476 220.387 61.2243 222.004 61.3907 223.424C61.5571 224.843 61.6871 226.065 61.7807 227.064C61.8743 228.062 61.9472 228.832 61.9992 229.372C61.9992 229.622 62.0355 229.825 62.0459 229.97C62.0517 230.04 62.0517 230.109 62.0459 230.178C62.0283 230.112 62.0161 230.044 62.0095 229.976C62.0095 229.825 61.9627 229.627 61.9315 229.378C61.8691 228.858 61.7807 228.062 61.6611 227.079C61.5415 226.096 61.4115 224.854 61.2295 223.439C61.0475 222.025 60.8603 220.408 60.6107 218.629C60.1427 215.062 59.5084 210.829 58.7492 206.149C57.99 201.469 57.0435 196.311 55.9724 190.934C54.9012 185.557 53.7468 180.456 52.6548 175.828C51.5628 171.2 50.4968 167.061 49.5348 163.592C49.0772 161.85 48.63 160.29 48.2452 158.912C47.8604 157.534 47.5276 156.354 47.2416 155.387C46.9556 154.42 46.7528 153.686 46.602 153.161C46.5344 152.917 46.4824 152.724 46.4408 152.584C46.4306 152.51 46.4271 152.435 46.4304 152.36Z" fill="#263238"/>
<path d="M58.9314 227.24C58.9314 227.24 43.0402 211.978 37.705 202.4L40.9862 200.663C38.5526 201.276 35.937 200.429 33.8934 198.978C31.8498 197.527 30.2534 195.525 28.6934 193.554L33.1134 192.426C28.9089 191.588 25.1864 189.168 22.7134 185.666C28.0746 186.092 33.1134 188.599 37.3462 191.906C40.7886 194.584 43.7734 197.772 46.6594 201.042C48.0731 202.634 49.3303 204.358 50.4138 206.19C53.2686 211.016 58.4322 221.192 58.9314 227.24Z" fill="#A3C717"/>
<path d="M85.2799 162.942C85.2709 163.002 85.2534 163.06 85.2279 163.114C85.1811 163.239 85.1187 163.405 85.0459 163.634C84.8691 164.081 84.6247 164.721 84.3075 165.532C83.9903 166.343 83.5951 167.362 83.1531 168.538C82.7111 169.713 82.1599 171.028 81.6399 172.51C80.5375 175.474 79.2791 179.026 77.9427 182.983C76.6063 186.94 75.2283 191.329 73.8607 195.957C72.4931 200.585 71.3127 205.026 70.2779 209.077C69.2431 213.128 68.3955 216.794 67.7195 219.882C67.3659 221.442 67.0851 222.826 66.8199 224.042C66.5547 225.259 66.3415 226.33 66.1699 227.199C65.9983 228.067 65.8527 228.717 65.7591 229.19L65.6447 229.71C65.6355 229.769 65.6198 229.827 65.5979 229.882C65.5898 229.823 65.5898 229.764 65.5979 229.705C65.5979 229.57 65.6447 229.398 65.6811 229.185C65.7695 228.712 65.8891 228.041 66.0451 227.183C66.2011 226.325 66.3987 225.249 66.6535 224.016C66.9083 222.784 67.1735 221.38 67.5115 219.856C68.1667 216.762 69.0091 213.096 70.0179 209.03C71.0267 204.964 72.2279 200.528 73.5799 195.895C74.9319 191.262 76.3515 186.883 77.6879 182.921C79.0243 178.958 80.3139 175.417 81.4371 172.464C81.9883 170.976 82.5187 169.65 82.9971 168.48C83.4755 167.31 83.8551 166.307 84.1983 165.49C84.5415 164.674 84.7911 164.05 84.9783 163.608L85.1863 163.119C85.2135 163.058 85.2447 162.999 85.2799 162.942Z" fill="#263238"/>
<path d="M174.324 223.194C174.807 223.189 175.286 223.282 175.733 223.466C176.18 223.65 176.585 223.922 176.924 224.265C177.602 224.961 178.11 225.802 178.411 226.725C179.041 228.483 178.931 230.63 178.557 232.445C176.555 231.925 175.177 229.933 174.543 228.883C173.539 227.229 172.733 223.631 174.319 223.163" fill="#119496"/>
<path d="M181.553 234.411C181.221 233.982 181.01 233.473 180.94 232.936C180.869 232.399 180.943 231.853 181.152 231.353C181.369 230.858 181.683 230.411 182.075 230.039C182.467 229.667 182.929 229.376 183.435 229.185C183.657 229.07 183.902 229.006 184.152 228.997C184.402 228.988 184.651 229.034 184.881 229.133C185.079 229.258 185.24 229.434 185.347 229.642C185.454 229.851 185.503 230.084 185.489 230.318C185.451 230.785 185.293 231.235 185.031 231.623C184.189 232.986 183.128 234.145 181.553 234.411Z" fill="#119496"/>
<path d="M182.265 240.407C182.216 240.289 182.176 240.167 182.145 240.043C182.073 239.778 181.979 239.44 181.859 239.034C181.503 237.927 181.328 236.77 181.339 235.607C181.389 234.434 181.747 233.295 182.379 232.305C182.573 232.012 182.8 231.741 183.055 231.499C183.124 231.432 183.197 231.37 183.274 231.312C183.299 231.289 183.327 231.27 183.357 231.255C182.769 231.819 182.3 232.495 181.978 233.244C181.655 233.992 181.486 234.798 181.48 235.612C181.465 236.761 181.619 237.905 181.937 239.008C182.047 239.44 182.13 239.788 182.182 240.048C182.22 240.165 182.248 240.285 182.265 240.407Z" fill="#263238"/>
<path d="M175.177 225.878C175.214 225.923 175.245 225.972 175.271 226.024C175.333 226.128 175.411 226.268 175.505 226.44C175.713 226.804 175.999 227.329 176.347 228C177.049 229.31 177.99 231.12 178.989 233.2C179.987 235.28 180.84 237.115 181.443 238.478C181.745 239.154 181.963 239.71 182.145 240.095L182.327 240.537C182.349 240.587 182.366 240.639 182.379 240.693C182.379 240.693 182.348 240.646 182.301 240.547C182.254 240.448 182.182 240.292 182.093 240.116L181.355 238.514C180.731 237.162 179.857 235.3 178.864 233.257C177.871 231.213 176.94 229.383 176.264 228.057L175.458 226.497C175.375 226.325 175.302 226.18 175.245 226.07C175.217 226.008 175.195 225.944 175.177 225.878Z" fill="#263238"/>
<path d="M179.623 236.6C178.955 235.675 178.077 234.922 177.061 234.402C176.045 233.882 174.92 233.611 173.779 233.61C173.196 233.61 172.515 233.772 172.302 234.312C172.089 234.853 172.484 235.436 172.91 235.831C173.819 236.636 174.947 237.154 176.15 237.319C177.353 237.484 178.578 237.288 179.67 236.756" fill="#119496"/>
<path d="M174.782 235.103C174.903 235.089 175.025 235.089 175.146 235.103C175.288 235.093 175.431 235.093 175.573 235.103C175.734 235.103 175.926 235.103 176.129 235.16C176.332 235.217 176.566 235.228 176.805 235.29C177.06 235.349 177.312 235.422 177.559 235.508C178.702 235.899 179.73 236.565 180.554 237.448C180.74 237.638 180.914 237.839 181.074 238.051C181.225 238.244 181.345 238.441 181.459 238.618C181.558 238.778 181.648 238.943 181.729 239.112C181.807 239.258 181.859 239.388 181.906 239.497C181.96 239.606 182 239.721 182.026 239.84C182.026 239.84 181.818 239.367 181.376 238.67C181.261 238.498 181.137 238.306 180.986 238.119C180.835 237.932 180.663 237.734 180.466 237.531C180.054 237.108 179.597 236.731 179.103 236.408C178.604 236.091 178.073 235.827 177.517 235.623C177.274 235.534 177.026 235.46 176.774 235.399C176.556 235.34 176.336 235.293 176.113 235.259C175.302 235.118 174.782 235.134 174.782 235.103Z" fill="#263238"/>
<path d="M81.411 232.981L66.7678 224.635L41.0434 234L20.2642 251.035L93.7662 250.661L81.411 232.981Z" fill="#F5F5F5"/>
<path d="M20.2642 251.035L46.623 235.742L81.411 232.981L66.1802 223.959L41.0434 234L20.2642 251.035Z" fill="#E0E0E0"/>
<path d="M58.1357 250.843L71.2969 241.821L83.3037 240.968L73.2625 243.199L68.0573 250.791L58.1357 250.843Z" fill="#E0E0E0"/>
<path d="M20.2798 251.035C20.3072 251.002 20.3386 250.972 20.3734 250.947L20.6542 250.697C20.9194 250.473 21.2938 250.177 21.767 249.756L25.9998 246.23L40.9654 233.891L59.3006 226.444L66.0606 223.704L66.1334 223.678L66.201 223.714L81.4578 232.887C85.1498 238.217 88.2178 242.642 90.381 245.752C91.421 247.312 92.2686 248.513 92.851 249.355C93.1266 249.761 93.3398 250.078 93.4906 250.312C93.6414 250.546 93.7038 250.645 93.7038 250.645C93.7038 250.645 93.6154 250.541 93.4594 250.333L92.7834 249.402L90.251 245.845L81.2342 233.038L81.2758 233.079L66.0658 223.964H66.2062L59.4462 226.704L41.0798 234.135H41.1162L26.0986 246.365C24.2682 247.842 22.8174 249.012 21.8138 249.829C21.2938 250.213 20.9402 250.515 20.6698 250.733L20.3734 250.962C20.3451 250.99 20.3137 251.014 20.2798 251.035Z" fill="#263238"/>
<path d="M83.7196 240.937C83.4061 241.003 83.088 241.045 82.768 241.061L80.168 241.295L71.328 241.977H71.406L69.9604 242.97C66.726 245.185 63.788 247.182 61.6404 248.607L59.1028 250.286L58.4008 250.728C58.3229 250.787 58.2371 250.834 58.146 250.869C58.146 250.869 58.2136 250.796 58.3644 250.676L59.03 250.187L61.5156 248.425C63.5956 246.948 66.5336 244.925 69.7732 242.705L71.2188 241.711L71.2552 241.685H71.2968L80.1368 241.108L82.768 240.968C83.0838 240.932 83.4021 240.921 83.7196 240.937Z" fill="#263238"/>
<path d="M201.76 219.659C201.213 216.309 201.56 212.874 202.768 209.702C203.975 206.529 205.998 203.732 208.634 201.594C208.634 201.594 210.137 201.074 209.97 202.753C209.866 203.752 210.792 205.187 211.603 204.594C213.018 203.554 212.643 201.375 213.267 199.748C214.016 197.839 216.086 196.862 217.984 196.108C221.483 194.672 225.035 193.289 228.774 192.707C232.512 192.124 236.475 192.395 239.824 194.142L237.224 199.051C237.145 199.266 237.025 199.464 236.87 199.633C236.716 199.801 236.529 199.938 236.321 200.035C236.114 200.131 235.889 200.186 235.66 200.196C235.431 200.205 235.203 200.17 234.988 200.091L230.495 199.649C229.84 199.586 228.992 199.649 228.789 200.262C228.56 200.964 229.392 201.516 230.084 201.781L234.764 203.596C233.14 205.831 230.936 207.579 228.389 208.65C225.856 209.707 223.233 210.534 220.552 211.12C219.7 211.333 218.79 211.547 217.952 211.255C216.585 210.782 215.675 209.035 214.24 209.212C214.3 210.004 214.517 210.777 214.88 211.484C215.242 212.191 215.743 212.819 216.351 213.33C210.73 215.379 206.783 217.958 201.744 219.664" fill="#455A64"/>
<path d="M196.373 244.27C196.395 244.224 196.411 244.175 196.42 244.124L196.524 243.703C196.617 243.308 196.747 242.762 196.908 242.07L198.271 236.044L199.202 231.884L199.722 229.564C199.81 229.164 199.898 228.758 199.992 228.348C200.086 227.937 200.132 227.516 200.205 227.089C200.803 223.709 201.51 219.944 203.252 216.377C204.994 212.81 207.756 210.096 210.361 207.88C212.711 205.937 215.209 204.181 217.833 202.628C220.064 201.282 221.915 200.273 223.184 199.56L224.64 198.744L225.02 198.526C225.103 198.474 225.15 198.448 225.144 198.442L225.009 198.5L224.619 198.697L223.127 199.467C221.837 200.153 219.97 201.136 217.724 202.467C215.079 203.999 212.559 205.738 210.189 207.667C208.796 208.822 207.491 210.079 206.284 211.427C204.982 212.879 203.877 214.496 202.998 216.237C201.24 219.851 200.538 223.642 199.95 227.027C199.878 227.448 199.81 227.869 199.742 228.285C199.675 228.701 199.566 229.096 199.482 229.497C199.306 230.292 199.139 231.057 198.962 231.816C198.64 233.314 198.338 234.712 198.068 235.976C197.548 238.508 197.096 240.568 196.789 242.013C196.643 242.715 196.534 243.266 196.451 243.662C196.42 243.838 196.394 243.979 196.373 244.088C196.366 244.148 196.366 244.21 196.373 244.27Z" fill="#263238"/>
<path d="M197.802 198.006L197.626 198.167C207.942 192.166 214.401 180.082 213.657 168.168C211.946 168.392 211.016 170.202 210.116 171.673C209.216 173.145 207.454 174.616 205.956 173.753C204.672 173.041 204.672 171.101 205.436 169.853C206.2 168.605 207.485 167.773 208.462 166.671C210.761 164.097 211.224 160.285 210.49 156.91C209.757 153.536 207.989 150.504 206.247 147.524C203.92 148.095 201.734 149.137 199.825 150.585C197.916 152.033 196.323 153.856 195.145 155.943C196.528 157.014 197.969 158.158 198.614 159.786C199.258 161.414 198.718 163.639 197.054 164.211C195.832 164.638 194.454 164.014 193.596 163.041C192.812 162.01 192.243 160.833 191.921 159.578C189.98 165.603 189.182 171.938 189.566 178.256C191.126 176.78 194.272 178.366 194.006 180.508C193.741 182.65 190.325 183.436 189.155 181.621C190.936 187.596 193.875 193.163 197.802 198.006ZM198.172 170.3C198.136 170.588 198.025 170.862 197.851 171.093C197.677 171.325 197.445 171.507 197.178 171.621C196.8 171.785 196.39 171.864 195.978 171.853C195.566 171.842 195.161 171.742 194.792 171.559C194.054 171.181 193.435 170.607 193.003 169.9C192.712 169.485 192.516 169.011 192.431 168.512C192.39 168.263 192.403 168.009 192.469 167.766C192.534 167.523 192.651 167.297 192.81 167.102C192.975 166.91 193.197 166.775 193.444 166.716C193.69 166.657 193.949 166.678 194.183 166.775C195.352 167.16 196.419 167.806 197.303 168.662C197.556 168.858 197.764 169.106 197.913 169.388C198.063 169.671 198.151 169.981 198.172 170.3Z" fill="#455A64"/>
<path d="M194.131 244.213C194.131 244.213 194.131 244.15 194.131 244.026C194.131 243.901 194.131 243.708 194.168 243.506C194.199 242.986 194.246 242.299 194.298 241.394C194.417 239.543 194.589 236.896 194.818 233.626C195.27 227.074 195.951 218.026 196.934 208.042C197.917 198.058 198.988 189.051 199.867 182.562C200.293 179.301 200.678 176.67 200.943 174.855C201.068 173.956 201.167 173.254 201.235 172.775C201.266 172.546 201.287 172.364 201.307 172.229C201.313 172.167 201.313 172.104 201.307 172.042C201.307 172.042 201.307 172.104 201.266 172.224C201.224 172.344 201.214 172.541 201.172 172.744C201.089 173.238 200.975 173.94 200.829 174.824C200.533 176.639 200.117 179.265 199.669 182.52C198.739 189.025 197.626 198.037 196.653 208C195.681 217.963 195.021 227.037 194.62 233.6C194.423 236.881 194.287 239.533 194.204 241.4C194.173 242.304 194.142 243.012 194.126 243.511C194.126 243.745 194.126 243.927 194.126 244.062C194.123 244.112 194.125 244.163 194.131 244.213Z" fill="#263238"/>
<path d="M199.154 241.504L190.351 238.025L175.681 240.693L168.568 250.251L203.387 250.277L199.154 241.504Z" fill="#F5F5F5"/>
<path d="M175.682 240.693C176.108 240.615 199.154 241.504 199.154 241.504L190.351 238.025L175.682 240.693Z" fill="#E0E0E0"/>
<path d="M168.568 250.25C168.6 250.184 168.638 250.121 168.682 250.063L169.046 249.543L170.466 247.577L175.567 240.619L175.598 240.573H175.655L186.575 238.571L190.33 237.895H190.371H190.413L199.206 241.399H199.253V241.446L202.279 247.853L203.101 249.636C203.184 249.829 203.252 249.979 203.304 250.109C203.331 250.162 203.352 250.218 203.366 250.276C203.366 250.276 203.325 250.229 203.273 250.125C203.221 250.021 203.127 249.855 203.028 249.673L202.144 247.915L199.024 241.561L199.092 241.628L190.319 238.16H190.408L186.653 238.841L175.733 240.807L175.817 240.755L170.617 247.645L169.119 249.6L168.719 250.12C168.625 250.198 168.578 250.255 168.568 250.25Z" fill="#263238"/>
<path d="M250.187 250.77C250.187 250.843 196.518 250.905 130.322 250.905C64.1262 250.905 10.4414 250.843 10.4414 250.77C10.4414 250.697 64.1054 250.635 130.322 250.635C196.539 250.635 250.187 250.692 250.187 250.77Z" fill="#263238"/>
</g>
<defs>
<filter id="filter0_d_330_19" x="-4" y="0" width="268" height="268" filterUnits="userSpaceOnUse" color-interpolation-filters="sRGB">
<feFlood flood-opacity="0" result="BackgroundImageFix"/>
<feColorMatrix in="SourceAlpha" type="matrix" values="0 0 0 0 0 0 0 0 0 0 0 0 0 0 0 0 0 0 127 0" result="hardAlpha"/>
<feOffset dy="4"/>
<feGaussianBlur stdDeviation="2"/>
<feComposite in2="hardAlpha" operator="out"/>
<feColorMatrix type="matrix" values="0 0 0 0 0 0 0 0 0 0 0 0 0 0 0 0 0 0 0.25 0"/>
<feBlend mode="normal" in2="BackgroundImageFix" result="effect1_dropShadow_330_19"/>
<feBlend mode="normal" in="SourceGraphic" in2="effect1_dropShadow_330_19" result="shape"/>
</filter>
</defs>
</svg>
