<svg width="11" height="22" viewBox="0 0 11 22" fill="none" xmlns="http://www.w3.org/2000/svg">
<path d="M9.07201 5.16373V15.9117C9.07201 16.9032 8.67813 17.8541 7.97702 18.5553C7.27592 19.2564 6.32501 19.6502 5.3335 19.6502C4.34198 19.6502 3.39109 19.2564 2.68999 18.5553C1.98888 17.8541 1.595 16.9032 1.595 15.9117V4.22873C1.58857 3.91783 1.64424 3.60877 1.75877 3.31967C1.8733 3.03056 2.04439 2.76721 2.26199 2.54506C2.47959 2.32292 2.73934 2.14643 3.02602 2.02594C3.31269 1.90546 3.62054 1.84339 3.9315 1.84339C4.24247 1.84339 4.55031 1.90546 4.83699 2.02594C5.12367 2.14643 5.38341 2.32292 5.60101 2.54506C5.81861 2.76721 5.98969 3.03056 6.10422 3.31967C6.21875 3.60877 6.27444 3.91783 6.26801 4.22873V14.0417C6.26007 14.2843 6.15814 14.5143 5.98375 14.683C5.80936 14.8518 5.57618 14.9462 5.3335 14.9462C5.09081 14.9462 4.85764 14.8518 4.68326 14.683C4.50887 14.5143 4.40694 14.2843 4.399 14.0417V5.16373H2.99901V14.0427C3.01166 14.654 3.26336 15.236 3.70016 15.6639C4.13697 16.0918 4.72406 16.3314 5.33549 16.3314C5.94693 16.3314 6.53402 16.0918 6.97083 15.6639C7.40763 15.236 7.65935 14.654 7.672 14.0427V4.22873C7.672 3.23722 7.27813 2.28632 6.57703 1.58521C5.87592 0.88411 4.92501 0.490234 3.9335 0.490234C2.94199 0.490234 1.99108 0.88411 1.28998 1.58521C0.588873 2.28632 0.195007 3.23722 0.195007 4.22873V15.9117C0.195007 17.2751 0.736592 18.5826 1.70062 19.5466C2.66465 20.5106 3.97215 21.0522 5.33549 21.0522C6.69884 21.0522 8.00635 20.5106 8.97038 19.5466C9.93441 18.5826 10.476 17.2751 10.476 15.9117V5.16373H9.07201Z" fill="#707070"/>
</svg>
