<svg width="14" height="15" viewBox="0 0 14 15" fill="none" xmlns="http://www.w3.org/2000/svg">
<path d="M8.59 13.3003C8.478 13.3283 8.36401 13.3533 8.25101 13.3733C8.18062 13.3864 8.1135 13.4133 8.0535 13.4523C7.99349 13.4914 7.94176 13.542 7.90128 13.601C7.81951 13.7203 7.78845 13.8671 7.81497 14.0093C7.84149 14.1514 7.92342 14.2772 8.04269 14.359C8.16197 14.4408 8.30886 14.4718 8.45102 14.4453C8.58602 14.4203 8.72198 14.3913 8.85098 14.3573C8.92045 14.34 8.98585 14.3093 9.04343 14.2667C9.101 14.2242 9.14964 14.1707 9.18655 14.1094C9.22347 14.048 9.24795 13.98 9.25858 13.9092C9.26921 13.8384 9.26577 13.7662 9.24851 13.6968C9.23124 13.6273 9.20047 13.5619 9.15793 13.5043C9.11539 13.4468 9.06191 13.3982 9.00058 13.3613C8.93925 13.3244 8.87124 13.2999 8.80045 13.2892C8.72966 13.2786 8.65745 13.282 8.58798 13.2993L8.59 13.3003Z" fill="#707070"/>
<path d="M12.622 5.99589C12.6675 6.13314 12.7656 6.24668 12.8949 6.31157C13.0241 6.37645 13.1737 6.38736 13.311 6.34187C13.4482 6.29639 13.5618 6.19826 13.6267 6.06904C13.6916 5.93983 13.7025 5.79013 13.657 5.65288C13.614 5.52288 13.566 5.39188 13.515 5.26488C13.4918 5.19439 13.4544 5.12941 13.4051 5.0739C13.3558 5.01838 13.2957 4.97353 13.2285 4.94206C13.1613 4.91059 13.0884 4.89316 13.0142 4.89088C12.94 4.8886 12.8662 4.9015 12.7971 4.92878C12.7281 4.95607 12.6654 4.99716 12.6128 5.04954C12.5602 5.10193 12.5189 5.16449 12.4913 5.23341C12.4638 5.30233 12.4506 5.37617 12.4527 5.45036C12.4547 5.52455 12.4718 5.59754 12.503 5.66487C12.546 5.77187 12.586 5.88189 12.622 5.99089V5.99589Z" fill="#707070"/>
<path d="M10.362 12.5227C10.262 12.5857 10.162 12.6477 10.062 12.7047C9.93682 12.777 9.84551 12.896 9.80809 13.0356C9.77068 13.1752 9.79027 13.3239 9.86254 13.4491C9.93481 13.5743 10.0538 13.6657 10.1935 13.7031C10.3331 13.7405 10.4819 13.7209 10.607 13.6487C10.726 13.5797 10.844 13.5077 10.959 13.4317C11.0797 13.3521 11.1639 13.2279 11.1929 13.0863C11.222 12.9447 11.1936 12.7973 11.114 12.6767C11.0344 12.556 10.9102 12.4718 10.7686 12.4428C10.627 12.4137 10.4797 12.4421 10.359 12.5216L10.362 12.5227Z" fill="#707070"/>
<path d="M14.0001 7.51831C13.992 7.37556 13.9282 7.24169 13.8224 7.14554C13.7166 7.04939 13.5772 6.99869 13.4344 7.00433C13.2915 7.00997 13.1566 7.07153 13.0587 7.17572C12.9608 7.27991 12.9078 7.41837 12.9111 7.56131C12.9111 7.67631 12.9171 7.79332 12.9111 7.90832C12.9095 7.97989 12.922 8.05107 12.9479 8.1178C12.9739 8.18452 13.0127 8.24549 13.0622 8.29721C13.1117 8.34893 13.1709 8.3904 13.2364 8.41925C13.3019 8.44809 13.3724 8.46375 13.444 8.46533C13.5156 8.46691 13.5868 8.45437 13.6535 8.42843C13.7202 8.4025 13.7812 8.36367 13.8329 8.31418C13.8847 8.26468 13.9261 8.2055 13.9549 8.13998C13.9838 8.07446 13.9995 8.00388 14.001 7.93231C14.001 7.79531 14.001 7.65632 14.001 7.51932L14.0001 7.51831Z" fill="#707070"/>
<path d="M12.532 11.0895C12.4748 11.0465 12.4096 11.0153 12.3403 10.9975C12.271 10.9798 12.1988 10.9758 12.128 10.9859C12.0571 10.9961 11.9889 11.02 11.9273 11.0565C11.8658 11.093 11.812 11.1412 11.769 11.1985C11.7 11.2905 11.627 11.3815 11.552 11.4695C11.4585 11.5795 11.4124 11.7223 11.424 11.8663C11.4357 12.0103 11.504 12.1438 11.614 12.2375C11.627 12.2485 11.64 12.2585 11.654 12.2685C11.765 12.3465 11.9012 12.3804 12.0358 12.3634C12.1704 12.3464 12.2939 12.2797 12.382 12.1765C12.471 12.0765 12.558 11.9625 12.641 11.8525C12.684 11.7952 12.7152 11.7301 12.7329 11.6607C12.7507 11.5914 12.7547 11.5193 12.7445 11.4484C12.7344 11.3776 12.7104 11.3094 12.674 11.2478C12.6375 11.1862 12.5893 11.1324 12.532 11.0895Z" fill="#707070"/>
<path d="M13.333 9.11869C13.1951 9.07548 13.0457 9.08879 12.9176 9.15574C12.7895 9.22269 12.6933 9.33778 12.65 9.47569C12.616 9.58569 12.577 9.69569 12.536 9.80369C12.4845 9.93882 12.4889 10.0889 12.548 10.2208C12.6072 10.3527 12.7164 10.4557 12.8515 10.5072C12.9866 10.5586 13.1367 10.5543 13.2686 10.4952C13.4005 10.436 13.5035 10.3268 13.555 10.1917C13.604 10.0637 13.649 9.93168 13.691 9.80168C13.7342 9.66376 13.7209 9.51435 13.6539 9.38627C13.587 9.25819 13.4719 9.16193 13.334 9.11869H13.333Z" fill="#707070"/>
<path d="M6.21201 13.3802C5.72796 13.2939 5.2573 13.1447 4.81202 12.9362L4.797 12.9282C4.697 12.8792 4.588 12.8282 4.487 12.7712C4.30024 12.6682 4.11931 12.5551 3.94501 12.4322C3.19785 11.9056 2.58858 11.2067 2.1688 10.3947C1.74901 9.58274 1.5311 8.68155 1.53345 7.76747C1.53581 6.85339 1.75838 5.95333 2.18235 5.14351C2.60631 4.33369 3.21917 3.63796 3.96903 3.11522L3.98902 3.10121C4.92671 2.4561 6.03606 2.10648 7.1742 2.0974C8.31233 2.08831 9.42712 2.42017 10.375 3.05022L9.94901 3.66521C9.83101 3.83621 9.90303 3.96521 10.111 3.94221L11.961 3.7762C12.0084 3.77512 12.0549 3.76283 12.0967 3.74031C12.1384 3.71779 12.1742 3.68569 12.2011 3.64665C12.228 3.60762 12.2454 3.56277 12.2516 3.51576C12.2578 3.46875 12.2528 3.42091 12.237 3.3762L11.737 1.5862C11.681 1.3862 11.537 1.36121 11.42 1.53221L10.993 2.14921C9.54673 1.17356 7.77814 0.797463 6.06 1.1002C5.88533 1.1302 5.71334 1.16689 5.54401 1.21022L5.52402 1.21519C4.03198 1.59696 2.71626 2.47951 1.797 3.71519C1.789 3.72419 1.78102 3.73321 1.77402 3.74321C1.74302 3.78521 1.71201 3.82719 1.68201 3.87019C1.63301 3.94019 1.582 4.0112 1.538 4.0832C1.532 4.0922 1.52801 4.10021 1.52301 4.10921C0.760189 5.28612 0.384646 6.67217 0.449008 8.07319C0.449008 8.07319 0.449008 8.0822 0.449008 8.0872C0.455008 8.2242 0.466021 8.36219 0.481021 8.49919C0.481021 8.50819 0.481021 8.51619 0.481021 8.52519C0.496355 8.66252 0.515671 8.79988 0.539005 8.93721C0.775998 10.3217 1.44038 11.5974 2.439 12.5852L2.44602 12.5922C2.71493 12.8576 3.00522 13.1004 3.314 13.3182C4.12 13.8889 5.04186 14.2751 6.01401 14.4492C6.1563 14.4747 6.30287 14.4425 6.42148 14.3599C6.5401 14.2773 6.62106 14.151 6.64652 14.0087C6.67198 13.8664 6.63986 13.7198 6.55725 13.6012C6.47464 13.4826 6.34832 13.4017 6.20603 13.3762L6.21201 13.3802Z" fill="#707070"/>
<path d="M6.88602 3.37695C6.76906 3.37695 6.65686 3.4234 6.57416 3.5061C6.49145 3.58881 6.44501 3.701 6.44501 3.81796V8.21194L10.464 10.2889C10.5159 10.3208 10.5737 10.3416 10.634 10.35C10.6942 10.3585 10.7556 10.3543 10.8141 10.3379C10.8727 10.3214 10.9273 10.293 10.9743 10.2545C11.0214 10.2159 11.06 10.1681 11.0877 10.1139C11.1154 10.0597 11.1315 10.0004 11.1352 9.93967C11.1388 9.87893 11.1299 9.81809 11.1089 9.76099C11.0878 9.70389 11.0552 9.65174 11.0131 9.60785C10.971 9.56396 10.9202 9.52927 10.864 9.50595L7.32199 7.67496V3.81796C7.32199 3.701 7.27554 3.58881 7.19284 3.5061C7.11014 3.4234 6.99797 3.37695 6.88101 3.37695H6.88602Z" fill="#707070"/>
</svg>
