<?xml version="1.0" encoding="UTF-8" standalone="no"?>
<svg
   xmlns:dc="http://purl.org/dc/elements/1.1/"
   xmlns:cc="http://creativecommons.org/ns#"
   xmlns:rdf="http://www.w3.org/1999/02/22-rdf-syntax-ns#"
   xmlns:svg="http://www.w3.org/2000/svg"
   xmlns="http://www.w3.org/2000/svg"
   id="svg6"
   version="1.1"
   fill="none"
   viewBox="0 0 19 18"
   height="18"
   width="19">
  <metadata
     id="metadata12">
    <rdf:RDF>
      <cc:Work
         rdf:about="">
        <dc:format>image/svg+xml</dc:format>
        <dc:type
           rdf:resource="http://purl.org/dc/dcmitype/StillImage" />
      </cc:Work>
    </rdf:RDF>
  </metadata>
  <defs
     id="defs10" />
  <path
     id="path2"
     fill="white"
     d="M14.8401 11.6491C14.7233 11.6491 14.6077 11.672 14.4999 11.7167C14.392 11.7614 14.294 11.8269 14.2115 11.9094C14.1289 11.992 14.0634 12.09 14.0188 12.1978C13.9741 12.3057 13.9511 12.4213 13.9511 12.5381V15.3311C13.9508 15.5667 13.8571 15.7927 13.6904 15.9594C13.5237 16.126 13.2978 16.2198 13.0621 16.2201H3.27908C3.04339 16.2198 2.81742 16.126 2.65076 15.9594C2.4841 15.7927 2.39035 15.5667 2.39008 15.3311V3.77005C2.39035 3.53435 2.4841 3.30839 2.65076 3.14173C2.81742 2.97506 3.04339 2.88131 3.27908 2.88105H8.44608C8.68199 2.88105 8.90824 2.78734 9.07506 2.62052C9.24187 2.45371 9.33558 2.22746 9.33558 1.99155C9.33558 1.75564 9.24187 1.52939 9.07506 1.36258C8.90824 1.19577 8.68199 1.10205 8.44608 1.10205H3.27908C2.57173 1.10284 1.89358 1.38419 1.3934 1.88437C0.893225 2.38454 0.611878 3.0627 0.611084 3.77005L0.611084 15.3311C0.611878 16.0384 0.893225 16.7166 1.3934 17.2167C1.89358 17.7169 2.57173 17.9983 3.27908 17.9991H13.0621C13.7694 17.9983 14.4476 17.7169 14.9478 17.2167C15.4479 16.7166 15.7293 16.0384 15.7301 15.3311V12.5381C15.7301 12.4212 15.7071 12.3055 15.6623 12.1976C15.6176 12.0897 15.552 11.9916 15.4693 11.9091C15.3867 11.8265 15.2886 11.7611 15.1806 11.7164C15.0726 11.6718 14.9569 11.6489 14.8401 11.6491V11.6491Z" />
  <path
     id="path4"
     fill="white"
     d="M17.9242 0.989039C17.2847 0.356326 16.4219 0.00076943 15.5223 -0.000727675C14.6227 -0.00222478 13.7587 0.350458 13.1172 0.981039L7.09616 7.00204C6.66253 7.43495 6.31892 7.94945 6.08516 8.51584C5.85139 9.08223 5.7321 9.68931 5.73416 10.302V12.29C5.73416 12.5258 5.82781 12.7519 5.99453 12.9187C6.16125 13.0854 6.38739 13.179 6.62316 13.179H8.61515C9.22795 13.1809 9.83505 13.0614 10.4014 12.8275C10.9678 12.5936 11.4823 12.2498 11.9152 11.816L17.9282 5.80304C18.5643 5.16323 18.921 4.29745 18.9203 3.39521C18.9195 2.49298 18.5614 1.62779 17.9242 0.989039V0.989039ZM13.5812 3.03204L14.3662 2.24704C14.5172 2.09602 14.6965 1.97622 14.8938 1.89449C15.0911 1.81276 15.3026 1.77069 15.5162 1.77069C15.7297 1.77069 15.9412 1.81276 16.1385 1.89449C16.3358 1.97622 16.5151 2.09602 16.6662 2.24704C16.8172 2.39806 16.937 2.57735 17.0187 2.77466C17.1004 2.97198 17.1425 3.18346 17.1425 3.39704C17.1425 3.61061 17.1004 3.8221 17.0187 4.01941C16.937 4.21673 16.8172 4.39602 16.6662 4.54704L15.8812 5.33204L13.5812 3.03204ZM10.6552 10.558C10.3875 10.8261 10.0694 11.0385 9.71931 11.1832C9.36921 11.3279 8.99397 11.4019 8.61515 11.401H7.51516V10.301C7.51425 9.92246 7.58816 9.54743 7.73266 9.1975C7.87716 8.84758 8.08939 8.52967 8.35716 8.26204L12.3262 4.29304L14.6262 6.59304L10.6552 10.558Z" />
</svg>
