<svg width="512" height="512" viewBox="0 0 512 512" fill="none" xmlns="http://www.w3.org/2000/svg">
<path d="M256 0C114.836 0 0 114.836 0 256C0 397.164 114.836 512 256 512C397.164 512 512 397.164 512 256C512 114.836 397.164 0 256 0Z" fill="#ED928C"/>
<path d="M277.332 384C277.332 395.781 267.781 405.332 256 405.332C244.219 405.332 234.668 395.781 234.668 384C234.668 372.219 244.219 362.668 256 362.668C267.781 362.668 277.332 372.219 277.332 384Z" fill="#ECEFF1"/>
<path d="M277.332 298.668C277.332 310.441 267.777 320 256 320C244.223 320 234.668 310.441 234.668 298.668V128C234.668 116.223 244.223 106.668 256 106.668C267.777 106.668 277.332 116.223 277.332 128V298.668Z" fill="#FAFAFA"/>
</svg>
