<?xml version="1.0" encoding="UTF-8" standalone="no"?>
<svg
   xmlns:dc="http://purl.org/dc/elements/1.1/"
   xmlns:cc="http://creativecommons.org/ns#"
   xmlns:rdf="http://www.w3.org/1999/02/22-rdf-syntax-ns#"
   xmlns:svg="http://www.w3.org/2000/svg"
   xmlns="http://www.w3.org/2000/svg"
   id="svg4"
   version="1.1"
   fill="none"
   viewBox="0 0 16 17"
   height="17"
   width="16">
  <metadata
     id="metadata10">
    <rdf:RDF>
      <cc:Work
         rdf:about="">
        <dc:format>image/svg+xml</dc:format>
        <dc:type
           rdf:resource="http://purl.org/dc/dcmitype/StillImage" />
      </cc:Work>
    </rdf:RDF>
  </metadata>
  <defs
     id="defs8" />
  <path
     id="path2"
     fill="#F6F6F6"
     d="M3.70503 6.49789C3.70583 7.19384 3.98264 7.86105 4.47475 8.35316C4.96686 8.84528 5.63408 9.1221 6.33003 9.12289C6.41321 9.11955 6.49621 9.13304 6.57405 9.16257C6.65189 9.19209 6.72297 9.23702 6.783 9.29469C6.84304 9.35236 6.8908 9.42158 6.92343 9.49817C6.95606 9.57476 6.97289 9.65714 6.97289 9.74039C6.97289 9.82364 6.95606 9.90603 6.92343 9.98262C6.8908 10.0592 6.84304 10.1284 6.783 10.1861C6.72297 10.2438 6.65189 10.2887 6.57405 10.3182C6.49621 10.3477 6.41321 10.3612 6.33003 10.3579C5.5666 10.3579 4.82031 10.1315 4.18553 9.70737C3.55076 9.28322 3.05601 8.68037 2.76385 7.97505C2.4717 7.26973 2.39527 6.49361 2.5442 5.74484C2.69314 4.99608 3.06077 4.30829 3.6006 3.76846C4.14043 3.22863 4.82821 2.86101 5.57698 2.71207C6.32575 2.56313 7.10187 2.63956 7.80719 2.93172C8.51251 3.22387 9.11536 3.71862 9.53951 4.35339C9.96365 4.98817 10.19 5.73446 10.19 6.49789C10.1934 6.58108 10.1799 6.66407 10.1504 6.74191C10.1208 6.81975 10.0759 6.89083 10.0182 6.95087C9.96055 7.0109 9.89135 7.05866 9.81476 7.09129C9.73817 7.12392 9.65577 7.14075 9.57253 7.14075C9.48928 7.14075 9.4069 7.12392 9.33031 7.09129C9.25372 7.05866 9.1845 7.0109 9.12683 6.95087C9.06916 6.89083 9.02423 6.81975 8.99471 6.74191C8.96518 6.66407 8.95168 6.58108 8.95503 6.49789C8.96184 6.14893 8.89899 5.80211 8.77016 5.47772C8.64132 5.15334 8.44909 4.8579 8.20471 4.6087C7.96033 4.3595 7.6687 4.16155 7.34689 4.02641C7.02509 3.89127 6.67957 3.82166 6.33054 3.82166C5.9815 3.82166 5.63597 3.89127 5.31416 4.02641C4.99236 4.16155 4.70073 4.3595 4.45634 4.6087C4.21196 4.8579 4.01973 5.15334 3.8909 5.47772C3.76207 5.80211 3.69921 6.14893 3.70602 6.49789H3.70503ZM4.19003 11.9599C2.60503 10.2249 1.23702 8.7259 1.23402 6.4919C1.23402 5.14062 1.77082 3.84469 2.72632 2.88919C3.68182 1.93369 4.97775 1.3969 6.32903 1.3969C7.6803 1.3969 8.97623 1.93369 9.93173 2.88919C10.8872 3.84469 11.424 5.14062 11.424 6.4919C11.4243 6.65563 11.4895 6.81256 11.6054 6.92824C11.7213 7.04392 11.8783 7.10889 12.042 7.10889V7.10889C12.2058 7.10862 12.3627 7.0434 12.4784 6.92754C12.594 6.81167 12.659 6.65462 12.659 6.49089C12.659 4.81207 11.9921 3.20201 10.805 2.01491C9.61792 0.827803 8.00785 0.160889 6.32903 0.160889C4.6502 0.160889 3.04015 0.827803 1.85304 2.01491C0.665937 3.20201 -0.000976563 4.81207 -0.000976562 6.49089C0.00626482 7.74274 0.368651 8.96683 1.04404 10.0209C1.69935 11.0132 2.44737 11.941 3.27803 12.7919C4.14346 13.6874 4.92785 14.6579 5.62202 15.6919C5.66376 15.7638 5.71958 15.8265 5.78612 15.8763C5.85266 15.9261 5.92856 15.962 6.00928 15.9818C6.09 16.0016 6.17388 16.0048 6.25591 15.9915C6.33793 15.9781 6.41643 15.9483 6.48668 15.9039C6.55693 15.8595 6.61751 15.8014 6.66478 15.733C6.71205 15.6647 6.74504 15.5874 6.76178 15.506C6.77852 15.4246 6.77867 15.3407 6.76222 15.2592C6.74577 15.1777 6.71305 15.1004 6.66603 15.0319C5.93412 13.9366 5.10547 12.9092 4.19003 11.9619V11.9599ZM15.647 12.2599C15.5365 12.3805 15.3826 12.4524 15.2191 12.4597C15.0556 12.467 14.8959 12.4092 14.775 12.2989L14.698 12.2279V14.2679C14.6978 14.7291 14.5145 15.1714 14.1884 15.4976C13.8624 15.8238 13.4203 16.0074 12.959 16.0079H9.48903C9.02781 16.0074 8.58564 15.8238 8.2596 15.4976C7.93356 15.1714 7.7503 14.7291 7.75003 14.2679V12.2529L7.70403 12.2949C7.64479 12.3531 7.57443 12.3988 7.49713 12.4292C7.41984 12.4597 7.3372 12.4742 7.25417 12.472C7.17113 12.4698 7.08939 12.4508 7.01384 12.4163C6.93829 12.3817 6.87047 12.3323 6.81445 12.271C6.75843 12.2096 6.71536 12.1377 6.68779 12.0593C6.66022 11.9809 6.64873 11.8978 6.65401 11.8149C6.65929 11.732 6.68123 11.651 6.71852 11.5768C6.75581 11.5026 6.80768 11.4366 6.87103 11.3829L10.059 8.46889C10.3808 8.17189 10.8026 8.00697 11.2405 8.00697C11.6784 8.00697 12.1002 8.17189 12.422 8.46889L14.464 10.3359C14.4867 10.3537 14.5081 10.3731 14.528 10.3939L15.61 11.3829C15.6699 11.4376 15.7184 11.5035 15.7527 11.5769C15.7871 11.6504 15.8066 11.7298 15.8102 11.8108C15.8138 11.8918 15.8015 11.9727 15.7738 12.0489C15.7461 12.1251 15.7037 12.1951 15.649 12.2549L15.647 12.2599ZM13.462 11.0989L11.587 9.38489C11.492 9.29624 11.367 9.24695 11.237 9.24695C11.1071 9.24695 10.982 9.29624 10.887 9.38489L8.98103 11.1269V14.2679C8.98103 14.4005 9.0337 14.5277 9.12747 14.6214C9.22124 14.7152 9.34843 14.7679 9.48103 14.7679H12.951C13.0836 14.7679 13.2108 14.7152 13.3046 14.6214C13.3984 14.5277 13.451 14.4005 13.451 14.2679L13.462 11.0989Z" />
</svg>
