<svg width="25" height="25" viewBox="0 0 25 25" fill="none" xmlns="http://www.w3.org/2000/svg">
<path d="M18.532 9.76705C18.532 8.01827 18.0135 6.30876 17.0419 4.8547C16.0703 3.40064 14.6894 2.26734 13.0737 1.59811C11.458 0.92888 9.68022 0.753779 7.96504 1.09495C6.24986 1.43612 4.67436 2.27824 3.43779 3.51481C2.20121 4.75139 1.35909 6.32688 1.01792 8.04206C0.676752 9.75724 0.851854 11.5351 1.52108 13.1507C2.19031 14.7664 3.32362 16.1473 4.77767 17.1189C6.23173 18.0905 7.94125 18.6091 9.69003 18.6091C12.035 18.6088 14.2838 17.6771 15.942 16.019C17.6001 14.3609 18.5318 12.112 18.532 9.76705ZM9.69003 16.3981C8.37858 16.3979 7.09664 16.0088 6.00631 15.28C4.91598 14.5513 4.06623 13.5156 3.56449 12.3039C3.06276 11.0923 2.93159 9.75902 3.18756 8.4728C3.44353 7.18657 4.07515 6.00514 5.00255 5.07787C5.92996 4.15061 7.11149 3.51917 8.39775 3.26339C9.68401 3.00762 11.0172 3.13899 12.2288 3.6409C13.4404 4.14282 14.476 4.99273 15.2046 6.08317C15.9332 7.17361 16.322 8.45561 16.322 9.76705C16.3199 11.5252 15.6205 13.2108 14.3772 14.4539C13.1338 15.697 11.4482 16.3962 9.69003 16.3981Z" fill="#707070"/>
<path d="M23.78 20.731L18.371 15.321C17.5648 16.5748 16.4987 17.6408 15.245 18.447L20.655 23.857C21.0695 24.2716 21.6317 24.5045 22.218 24.5045C22.8042 24.5045 23.3665 24.2716 23.781 23.857C24.1955 23.4425 24.4284 22.8803 24.4284 22.294C24.4284 21.7078 24.1955 21.1456 23.781 20.731H23.78Z" fill="#707070"/>
</svg>
