<svg width="24" height="23" viewBox="0 0 24 23" fill="none" xmlns="http://www.w3.org/2000/svg">
<path d="M15.78 13.8476C15.6355 13.6865 15.4595 13.5569 15.2628 13.4667C15.0661 13.3766 14.8529 13.3279 14.6366 13.3237C14.4188 13.3287 14.2042 13.3774 14.0055 13.4668C13.8068 13.5561 13.628 13.6844 13.4798 13.8441L12.4127 14.9111C12.3215 14.8609 12.2367 14.8199 12.1525 14.7754C12.0309 14.7145 11.9157 14.6573 11.8174 14.5958C10.7576 13.9069 9.81724 13.0497 9.03349 12.058C8.67013 11.6175 8.36321 11.1334 8.11989 10.6169C8.39779 10.363 8.65447 10.0993 8.90408 9.84542L9.18692 9.56258C9.35416 9.4169 9.48822 9.23706 9.58009 9.03519C9.67196 8.83332 9.71952 8.61411 9.71952 8.39232C9.71952 8.17053 9.67199 7.9513 9.58011 7.74943C9.48824 7.54756 9.35416 7.36774 9.18692 7.22206L8.26132 6.29646C8.15667 6.19181 8.04919 6.08433 7.94383 5.97897C7.73735 5.77249 7.5245 5.54974 7.31096 5.3461C7.1645 5.19212 6.98886 5.06885 6.79424 4.9835C6.59963 4.89815 6.38997 4.85243 6.17749 4.849C5.74371 4.85769 5.33063 5.03617 5.02701 5.3461L5.01994 5.35317L3.86946 6.51353C3.44302 6.93196 3.18234 7.49053 3.13551 8.08613C3.09626 8.94434 3.24391 9.80083 3.56826 10.5964C4.17401 12.1743 5.04972 13.6348 6.15625 14.9125C7.60697 16.6582 9.41422 18.0734 11.4567 19.0633C12.3845 19.542 13.3947 19.8405 14.4337 19.9429C14.5051 19.9464 14.5807 19.9485 14.6472 19.95C15.0137 19.9587 15.3777 19.8884 15.7145 19.7436C16.0513 19.5989 16.353 19.3832 16.5988 19.1114C16.6038 19.1064 16.6087 19.1015 16.6137 19.0965C16.7997 18.8816 16.9975 18.6771 17.2062 18.4842C17.3476 18.3427 17.5004 18.1999 17.6439 18.0464C17.9611 17.7384 18.1447 17.3182 18.1552 16.8762C18.1507 16.6577 18.1023 16.4423 18.0128 16.2429C17.9232 16.0436 17.7944 15.8643 17.634 15.7158L15.78 13.8476ZM16.9912 17.4093C16.859 17.5515 16.7226 17.678 16.5783 17.8223C16.349 18.0362 16.1311 18.262 15.9256 18.499C15.7659 18.6763 15.5692 18.8164 15.3494 18.9093C15.1296 19.0023 14.8921 19.0459 14.6536 19.0371C14.6027 19.0371 14.5489 19.0371 14.498 19.0343C13.5765 18.9394 12.6814 18.6709 11.8598 18.243C9.93491 17.3089 8.23169 15.9746 6.86407 14.3292C5.8238 13.1283 4.99982 11.7559 4.4288 10.2732C4.14492 9.605 4.01536 8.88135 4.04978 8.15614C4.07662 7.7751 4.24306 7.41735 4.51721 7.15135L5.67048 5.99807C5.80497 5.8555 5.9889 5.76972 6.18456 5.75834C6.374 5.76948 6.55149 5.85454 6.67884 5.99522L6.68872 6.0051C6.89519 6.19744 7.09107 6.39755 7.29613 6.61251C7.4029 6.71929 7.50827 6.82466 7.6207 6.93709L8.54418 7.86057C8.62719 7.92042 8.69478 7.99914 8.7414 8.09023C8.78802 8.18133 8.81231 8.2822 8.81231 8.38453C8.81231 8.48686 8.78802 8.58773 8.7414 8.67883C8.69478 8.76992 8.62716 8.84866 8.54416 8.90852C8.44587 9.0068 8.34972 9.10296 8.25356 9.19912C7.96576 9.48692 7.69566 9.75703 7.40433 10.0243C7.39789 10.0291 7.39216 10.0349 7.38735 10.0413C7.28326 10.1361 7.21065 10.2605 7.1793 10.3978C7.14795 10.535 7.15936 10.6786 7.21197 10.8092L7.22259 10.8396C7.5007 11.4824 7.86851 12.0826 8.31506 12.6222C9.15951 13.6921 10.1744 14.6157 11.3189 15.3559C11.4535 15.4384 11.5922 15.514 11.7346 15.5822C11.8562 15.643 11.9715 15.7003 12.0698 15.7618C12.0797 15.7717 12.0967 15.7787 12.1101 15.7851C12.2139 15.8408 12.3296 15.8706 12.4474 15.8721C12.5446 15.8699 12.6403 15.8482 12.7288 15.8083C12.8174 15.7683 12.897 15.7109 12.9629 15.6395L14.1197 14.4826C14.251 14.3352 14.4342 14.2442 14.6309 14.2288C14.7247 14.2345 14.8163 14.2593 14.9001 14.3017C14.9839 14.3442 15.0581 14.4033 15.1181 14.4756L16.9884 16.3458C17.0695 16.4081 17.1352 16.4881 17.1806 16.5797C17.2259 16.6713 17.2497 16.7721 17.25 16.8743C17.2504 16.9765 17.2273 17.0774 17.1825 17.1693C17.1378 17.2612 17.0726 17.3416 16.992 17.4044L16.9912 17.4093Z" fill="#F6F6F6"/>
<path d="M11.7752 7.73115C12.6595 7.88461 13.4748 8.30764 14.1095 8.9423C14.7441 9.57697 15.1672 10.3923 15.3206 11.2766C15.3384 11.3829 15.3934 11.4793 15.4758 11.5487C15.5582 11.6182 15.6626 11.6561 15.7703 11.6556C15.7964 11.6549 15.8224 11.6525 15.8481 11.6485C15.9075 11.6387 15.9644 11.6172 16.0154 11.5852C16.0665 11.5533 16.1108 11.5116 16.1457 11.4625C16.1806 11.4134 16.2054 11.3579 16.2188 11.2992C16.2322 11.2405 16.2338 11.1797 16.2236 11.1204C16.0384 10.0503 15.5268 9.06363 14.7589 8.29572C13.991 7.52782 13.0043 7.01622 11.9343 6.83104C11.8151 6.81112 11.6929 6.83896 11.5941 6.90859C11.4954 6.97822 11.428 7.08403 11.4068 7.20298C11.3959 7.26189 11.3969 7.32236 11.4096 7.3809C11.4224 7.43943 11.4466 7.49487 11.4809 7.54395C11.5153 7.59303 11.5591 7.6348 11.6097 7.66682C11.6603 7.69884 11.7168 7.72046 11.7759 7.73046L11.7752 7.73115Z" fill="#F6F6F6"/>
<path d="M19.1226 10.9888C18.8177 9.22669 17.9753 7.60198 16.7107 6.33744C15.4462 5.0729 13.8215 4.23043 12.0593 3.92553C11.9995 3.91385 11.9379 3.9143 11.8782 3.92685C11.8185 3.9394 11.7619 3.96384 11.7118 3.99864C11.6617 4.03345 11.6191 4.07791 11.5866 4.12948C11.554 4.18104 11.5321 4.23863 11.5221 4.29881C11.5122 4.35899 11.5144 4.42058 11.5287 4.47988C11.543 4.53918 11.569 4.59502 11.6053 4.64408C11.6415 4.69314 11.6872 4.73443 11.7397 4.7655C11.7922 4.79658 11.8504 4.81677 11.9109 4.82495C13.4859 5.09696 14.9381 5.84971 16.0683 6.97989C17.1985 8.11008 17.9512 9.5623 18.2232 11.1373C18.241 11.2436 18.296 11.3401 18.3784 11.4095C18.4608 11.4789 18.5652 11.5168 18.6729 11.5163C18.699 11.5157 18.725 11.5134 18.7507 11.5093C18.8097 11.5001 18.8662 11.4793 18.9171 11.4481C18.9679 11.4168 19.012 11.3757 19.0467 11.3271C19.0814 11.2786 19.106 11.2236 19.1192 11.1654C19.1324 11.1072 19.1338 11.0469 19.1233 10.9881L19.1226 10.9888Z" fill="#F6F6F6"/>
</svg>
