<svg width="26" height="26" viewBox="0 0 26 26" fill="none" xmlns="http://www.w3.org/2000/svg">
<path d="M24.032 0.988475L1.48401 8.35649C1.34165 8.40332 1.21589 8.49024 1.12176 8.60685C1.02764 8.72346 0.969167 8.86481 0.95343 9.01383C0.937692 9.16286 0.965327 9.31324 1.03302 9.44694C1.10071 9.58064 1.20559 9.69197 1.33502 9.7675L9.85602 14.7225C9.98745 14.7989 10.1384 14.8351 10.2902 14.8266C10.442 14.818 10.588 14.7652 10.71 14.6745L13.11 12.8955L11.3311 15.2955C11.2404 15.4177 11.1875 15.5639 11.179 15.7158C11.1705 15.8677 11.2066 16.0189 11.283 16.1505L16.238 24.6715C16.3136 24.8009 16.4249 24.9058 16.5586 24.9735C16.6923 25.0412 16.8427 25.0688 16.9917 25.0531C17.1407 25.0373 17.2821 24.9789 17.3987 24.8848C17.5153 24.7907 17.6022 24.6648 17.649 24.5225L25.017 1.9745C25.0616 1.83793 25.0675 1.69166 25.0341 1.55195C25.0006 1.41224 24.9292 1.28454 24.8276 1.18296C24.726 1.08138 24.5983 1.00989 24.4586 0.976451C24.3188 0.943008 24.1726 0.948907 24.036 0.99348L24.032 0.988475ZM16.7061 22.3885L12.881 15.8105L17.493 9.5995C17.6037 9.44965 17.6569 9.26505 17.643 9.0793C17.6291 8.89354 17.549 8.71894 17.4173 8.58723C17.2856 8.45552 17.111 8.37546 16.9252 8.36155C16.7395 8.34765 16.5549 8.40085 16.405 8.51149L10.194 13.1235L3.61603 9.29847L23.058 2.94648L16.7061 22.3885ZM9.11304 17.9885L3.94904 23.1465C3.80211 23.2872 3.60593 23.3647 3.40253 23.3625C3.19912 23.3603 3.00468 23.2785 2.86084 23.1347C2.717 22.9908 2.6352 22.7964 2.633 22.593C2.63079 22.3896 2.70837 22.1934 2.84906 22.0465L8.01202 16.8835C8.15789 16.7376 8.35572 16.6557 8.56201 16.6557C8.7683 16.6557 8.96619 16.7376 9.11206 16.8835C9.25793 17.0294 9.33984 17.2272 9.33984 17.4335C9.33984 17.6398 9.25793 17.8376 9.11206 17.9835L9.11304 17.9885ZM2.29303 18.1885C2.14721 18.0426 2.06531 17.8447 2.06531 17.6385C2.06531 17.4322 2.14721 17.2344 2.29303 17.0885L4.33002 15.0515C4.47694 14.9108 4.67312 14.8333 4.87653 14.8355C5.07993 14.8377 5.27443 14.9194 5.41827 15.0633C5.56211 15.2071 5.64385 15.4016 5.64606 15.605C5.64826 15.8084 5.57074 16.0045 5.43005 16.1515L3.39301 18.1885C3.24711 18.3343 3.04929 18.4162 2.84302 18.4162C2.63674 18.4162 2.43892 18.3343 2.29303 18.1885ZM10.949 20.5725C11.0949 20.7184 11.1768 20.9162 11.1768 21.1225C11.1768 21.3288 11.0949 21.5266 10.949 21.6725L8.91205 23.7095C8.83982 23.7817 8.75404 23.839 8.65967 23.8781C8.5653 23.9172 8.4642 23.9373 8.36206 23.9373C8.25992 23.9373 8.15876 23.9172 8.06439 23.8781C7.97002 23.839 7.88424 23.7817 7.81201 23.7095C7.73978 23.6373 7.68252 23.5515 7.64343 23.4571C7.60434 23.3628 7.58423 23.2616 7.58423 23.1595C7.58423 23.0574 7.60434 22.9562 7.64343 22.8618C7.68252 22.7675 7.73978 22.6817 7.81201 22.6095L9.84906 20.5725C9.92123 20.5002 10.0069 20.4428 10.1013 20.4036C10.1957 20.3645 10.2969 20.3443 10.399 20.3443C10.5012 20.3443 10.6024 20.3645 10.6968 20.4036C10.7912 20.4428 10.8769 20.5002 10.949 20.5725Z" fill="white"/>
</svg>
