<svg width="60" height="60" viewBox="0 0 60 60" fill="none" xmlns="http://www.w3.org/2000/svg">
<path d="M58.8334 35.2895C58.092 34.8803 57.1513 34.9703 56.2522 35.5362L39.644 45.9944C39.1818 46.2856 39.0431 46.8961 39.3341 47.3583C39.6253 47.8205 40.2358 47.9593 40.698 47.6682L57.3062 37.21C57.657 36.9891 57.849 37.0054 57.8773 37.0212C57.9061 37.037 58.0219 37.1906 58.0219 37.6051C58.0219 38.7192 57.1949 40.2172 56.2522 40.8109L40.1514 50.9495C39.2953 51.4885 38.5127 51.6367 38.0041 51.3561C37.4956 51.0754 37.2041 50.3342 37.2041 49.3224C37.2041 46.7591 39.0365 43.4398 41.2056 42.074L59.5381 30.5302C59.8257 30.3491 60 30.033 60 29.6932C60 29.3534 59.8255 29.0373 59.5381 28.8563L24.312 6.67445C23.99 6.47164 23.58 6.47164 23.258 6.67445L4.70237 18.3589C2.06556 20.0194 0 23.7608 0 26.8768V27.4043C0 30.5203 2.06556 34.2619 4.70237 35.9222L32.301 53.301C32.7632 53.5921 33.3739 53.4532 33.6649 52.9912C33.9559 52.529 33.8172 51.9183 33.355 51.6273L5.75638 34.2484C3.70822 32.9589 1.978 29.8246 1.978 27.4043V26.8768C1.978 24.4565 3.70822 21.3223 5.75638 20.0327L23.7849 8.68014L57.155 29.6931L40.1516 40.4001C37.3896 42.1393 35.2261 46.0584 35.2261 49.3224C35.2261 51.1019 35.8731 52.4392 37.0482 53.0878C37.5202 53.3484 38.0406 53.4776 38.5922 53.4776C39.4139 53.4776 40.3045 53.1907 41.2054 52.6232L57.3062 42.4847C58.8168 41.5335 59.9999 39.3902 59.9999 37.6051C59.9999 36.5428 59.5747 35.6988 58.8334 35.2895Z" fill="#9269AD"/>
<path d="M46.6365 30.6822C46.9651 30.6822 47.2864 30.5186 47.4744 30.2201C47.7654 29.7579 47.6267 29.1473 47.1645 28.8562L24.312 14.4662C23.8497 14.1751 23.2392 14.314 22.9481 14.776C22.6571 15.2382 22.7958 15.8489 23.258 16.1399L46.1105 30.53C46.2742 30.633 46.4564 30.6822 46.6365 30.6822Z" fill="#9269AD"/>
<path d="M42.6826 33.3069C43.0119 33.3069 43.3338 33.1426 43.5214 32.8431C43.8116 32.3804 43.6717 31.77 43.2089 31.4799L33.5548 25.4266C33.0918 25.1362 32.4815 25.2764 32.1916 25.7391C31.9013 26.2019 32.0412 26.8122 32.5041 27.1023L42.1582 33.1557C42.3214 33.2581 42.503 33.3069 42.6826 33.3069Z" fill="#9269AD"/>
<path d="M29.5254 28.0295C29.0622 27.7401 28.452 27.8812 28.1627 28.3446C27.8734 28.808 28.0145 29.418 28.4779 29.7073L38.2061 35.7814C38.3691 35.883 38.55 35.9316 38.7289 35.9316C39.0587 35.9316 39.3813 35.7666 39.5688 35.4662C39.8581 35.0028 39.717 34.3928 39.2536 34.1035L29.5254 28.0295Z" fill="#9269AD"/>
<path d="M19.1482 17.0544L10.929 22.2306C10.6406 22.4122 10.466 22.7295 10.467 23.0704C10.4681 23.4113 10.6444 23.7275 10.9339 23.9075L20.7362 30.0022C20.8961 30.1016 21.0772 30.1513 21.2584 30.1513C21.4452 30.1513 21.6319 30.0985 21.7952 29.993L23.9784 28.582C24.4371 28.2854 24.5686 27.6733 24.2722 27.2145C23.9757 26.7558 23.3635 26.6244 22.9047 26.9207L21.2482 27.9914L13.3205 23.0622L19.6765 19.0594L27.4888 23.9578L26.578 24.5465C26.1192 24.8431 25.9878 25.4552 26.2842 25.9139C26.5808 26.3727 27.1933 26.5042 27.6517 26.2077L29.867 24.7758C30.1509 24.5922 30.3214 24.2764 30.3192 23.9383C30.3168 23.6003 30.142 23.2869 29.8555 23.1073L20.2005 17.0534C19.8788 16.8515 19.4697 16.8519 19.1482 17.0544Z" fill="#9269AD"/>
<path d="M35.6158 38.0892C35.9042 37.6253 35.762 37.0155 35.2981 36.7271L25.4956 30.6321C25.0316 30.3436 24.4218 30.4859 24.1335 30.9498C23.8451 31.4137 23.9873 32.0234 24.4512 32.3118L34.2537 38.4068C34.4162 38.508 34.5967 38.5561 34.775 38.5561C35.1055 38.5561 35.4285 38.3905 35.6158 38.0892Z" fill="#9269AD"/>
<path d="M7.05843 25.4324C6.77004 25.8963 6.91219 26.506 7.3761 26.7944L31.5707 41.8379C31.7332 41.939 31.9137 41.9872 32.092 41.9872C32.4225 41.9872 32.7455 41.8215 32.9328 41.5202C33.2212 41.0563 33.079 40.4466 32.6151 40.1582L8.42048 25.1147C7.95657 24.826 7.34682 24.9685 7.05843 25.4324Z" fill="#9269AD"/>
</svg>
