<svg width="351" height="351" viewBox="0 0 351 351" fill="none" xmlns="http://www.w3.org/2000/svg">
<path d="M179.01 325.047C244.931 325.047 298.371 294.193 298.371 256.132C298.371 218.071 244.931 187.216 179.01 187.216C113.089 187.216 59.649 218.071 59.649 256.132C59.649 294.193 113.089 325.047 179.01 325.047Z" fill="#263238"/>
<path d="M260.119 198.217C215.324 172.355 142.695 172.355 97.9079 198.217C75.5071 211.148 64.3102 228.101 64.3102 245.047V249.849C64.3102 266.795 75.5422 283.741 97.9079 296.672C142.703 322.541 215.324 322.541 260.119 296.672C282.52 283.741 293.717 266.795 293.71 249.849V245.103C293.738 228.15 282.541 211.162 260.119 198.217Z" fill="#9269AD"/>
<path opacity="0.3" d="M260.119 198.217C215.324 172.355 142.695 172.355 97.9079 198.217C75.5071 211.148 64.3102 228.101 64.3102 245.047V249.849C64.3102 266.795 75.5422 283.741 97.9079 296.672C142.703 322.541 215.324 322.541 260.119 296.672C282.52 283.741 293.717 266.795 293.71 249.849V245.103C293.738 228.15 282.541 211.162 260.119 198.217Z" fill="white"/>
<path opacity="0.1" d="M140.926 307.532V182.576C125.216 185.763 110.467 191 97.9079 198.231C75.5071 211.162 64.3102 228.115 64.3102 245.061V249.863C64.3102 266.809 75.5422 283.755 97.9079 296.693C113.022 305.37 131.274 311.162 150.516 314.005C141.453 312.39 140.926 307.532 140.926 307.532Z" fill="black"/>
<path d="M260.12 198.217C215.325 172.355 142.696 172.355 97.9087 198.217C53.1211 224.078 53.1141 266.009 97.9087 291.871C142.703 317.732 215.325 317.732 260.12 291.871C304.914 266.009 304.914 224.078 260.12 198.217Z" fill="#9269AD"/>
<path opacity="0.8" d="M260.12 198.217C215.325 172.355 142.696 172.355 97.9087 198.217C53.1211 224.078 53.1141 266.009 97.9087 291.871C142.703 317.732 215.325 317.732 260.12 291.871C304.914 266.009 304.914 224.078 260.12 198.217Z" fill="white"/>
<path opacity="0.15" d="M238.42 213.155C205.609 194.201 152.418 194.201 119.607 213.155C86.7952 232.109 86.8023 262.808 119.607 281.748C152.411 300.688 205.609 300.702 238.42 281.748C271.232 262.794 271.225 232.095 238.42 213.155Z" fill="#9269AD"/>
<path d="M231.063 220.66C202.316 204.064 155.711 204.064 126.964 220.66C98.2168 237.255 98.1817 264.184 126.964 280.765C155.746 297.346 202.316 297.36 231.063 280.765C259.81 264.17 259.81 237.276 231.063 220.66Z" fill="#9269AD"/>
<path opacity="0.8" d="M231.063 220.66C202.316 204.064 155.711 204.064 126.964 220.66C98.2168 237.255 98.1817 264.184 126.964 280.765C155.746 297.346 202.316 297.36 231.063 280.765C259.81 264.17 259.81 237.276 231.063 220.66Z" fill="white"/>
<path d="M97.234 288.052C106.784 293.03 116.891 296.857 127.343 299.452C137.748 302.077 148.363 303.79 159.066 304.57C169.756 305.358 180.491 305.326 191.176 304.472C201.85 303.643 212.436 301.92 222.822 299.319C233.198 296.787 243.25 293.077 252.783 288.262C262.232 283.412 271.098 277.192 277.929 269.105C281.364 265.095 284.092 260.53 285.995 255.605C287.9 250.665 288.703 245.367 288.346 240.084C287.973 234.765 286.515 229.579 284.064 224.844C282.844 222.458 281.436 220.174 279.852 218.013C278.273 215.833 276.552 213.76 274.7 211.807C276.668 213.66 278.513 215.639 280.224 217.732C281.923 219.85 283.449 222.102 284.787 224.465C287.516 229.229 289.239 234.502 289.849 239.958C290.388 245.471 289.72 251.036 287.89 256.265C286.022 261.469 283.277 266.315 279.775 270.593C276.304 274.859 272.33 278.689 267.939 282C263.588 285.317 258.967 288.264 254.124 290.811C244.414 295.784 234.159 299.612 223.566 302.218C202.421 307.398 180.552 308.969 158.884 306.865C148.08 305.867 137.395 303.851 126.971 300.842C121.777 299.312 116.675 297.488 111.688 295.381C106.697 293.296 101.866 290.846 97.234 288.052Z" fill="white"/>
<path opacity="0.2" d="M220.316 221.979C197.508 208.81 160.519 208.81 137.711 221.979C114.903 235.149 114.896 256.504 137.711 269.673C160.526 282.843 197.508 282.843 220.316 269.673C243.124 256.504 243.131 235.17 220.316 221.979Z" fill="#9269AD"/>
<path opacity="0.2" d="M220.182 261.446L145.005 219.789L64.3102 245.209C64.3804 262.099 75.5422 278.982 97.9079 291.871C110.467 299.129 125.216 304.345 140.926 307.525L220.182 261.446Z" fill="#9269AD"/>
<path d="M60.4562 196.314C60.4562 213.942 77.3744 222.99 90.4035 228.487C100.182 232.594 107.624 233.977 112.706 238.161C112.243 235.725 101.011 176.062 101.011 176.062C96.3 173.167 90.8307 171.749 85.307 171.99C81.9523 172.086 78.6722 173.002 75.7528 174.658L69.7015 178.168C64.7314 180.983 60.4562 186.507 60.4562 196.314ZM77.7465 192.804C77.7861 190.293 78.7024 187.874 80.3369 185.967C81.0059 185.842 81.685 185.778 82.3656 185.777C84.7147 185.718 87.0519 186.128 89.2408 186.983C91.4297 187.837 93.4263 189.119 95.114 190.754C98.0959 199.011 100.443 207.483 102.134 216.097C101.579 215.879 101.025 215.654 100.442 215.395C84.1347 208.585 77.7465 201.614 77.7465 192.832V192.804Z" fill="#FAFAFA"/>
<path d="M60.4562 196.314C60.4562 213.942 77.3744 222.99 90.4035 228.487C100.182 232.594 107.624 233.977 112.706 238.161C109.105 219.207 100.175 191.695 94.9876 179.544C90.2794 176.634 84.8066 175.203 79.2768 175.437C72.0954 175.605 60.4562 180.133 60.4562 196.314ZM71.6882 196.314C71.6956 194.924 71.9767 193.549 72.5155 192.267C73.0543 190.986 73.8403 189.823 74.8285 188.845C75.8167 187.867 76.9879 187.094 78.2751 186.569C79.5623 186.043 80.9403 185.777 82.3305 185.784C84.6796 185.725 87.0168 186.135 89.2057 186.99C91.3946 187.844 93.3912 189.126 95.0789 190.762C98.2519 199.024 102.66 215.718 102.899 222.113C100.147 221.137 97.4657 220.189 94.3909 218.898C78.1115 212.06 71.7233 205.089 71.7233 196.314H71.6882Z" fill="#E0E0E0"/>
<path opacity="0.1" d="M93.4502 218.498C95.5314 223.378 98.0649 228.052 101.018 232.46C105.756 234.152 109.659 235.654 112.706 238.161C109.105 219.207 100.175 191.695 94.9876 179.544C92.4158 177.961 89.6039 176.806 86.6619 176.125V185.117C86.6619 185.497 86.6619 185.869 86.6619 186.248C89.831 186.962 92.7442 188.531 95.0859 190.783C98.2589 199.045 102.667 215.739 102.906 222.134C100.154 221.158 97.4727 220.21 94.3979 218.919L93.4502 218.498Z" fill="black"/>
<path d="M265.454 167.652C265.454 155.058 257.136 142.464 240.491 132.854C207.202 113.64 153.24 113.64 119.951 132.854C103.313 142.464 94.9876 155.058 94.9876 167.652V186.142C94.9876 208.749 103.968 230.429 119.953 246.414C127.868 254.329 137.264 260.607 147.606 264.891C157.947 269.174 169.031 271.379 180.224 271.379C202.829 271.377 224.508 262.396 240.491 246.411C256.475 230.427 265.454 208.747 265.454 186.142V167.652Z" fill="#FAFAFA"/>
<path d="M180.224 119.186C202.864 119.186 224.134 124.268 240.119 133.499C255.977 142.625 264.689 154.784 264.689 167.652V186.142C264.689 197.238 262.504 208.225 258.257 218.476C254.011 228.727 247.788 238.042 239.942 245.888C232.096 253.734 222.781 259.957 212.53 264.203C202.279 268.45 191.292 270.635 180.196 270.635C169.101 270.635 158.113 268.45 147.862 264.203C137.611 259.957 128.297 253.734 120.451 245.888C112.605 238.042 106.381 228.727 102.135 218.476C97.8891 208.225 95.7036 197.238 95.7036 186.142V167.652C95.7036 154.784 104.436 142.653 120.274 133.499C136.265 124.268 157.536 119.186 180.175 119.186H180.224ZM180.175 118.441C158.357 118.441 136.546 123.243 119.902 132.854C103.257 142.464 94.9384 155.058 94.9384 167.652V186.142C94.9384 197.34 97.1448 208.428 101.431 218.772C105.718 229.117 112.001 238.516 119.921 246.431C127.841 254.347 137.243 260.624 147.591 264.905C157.938 269.186 169.027 271.386 180.224 271.379C202.829 271.377 224.508 262.396 240.491 246.411C256.475 230.427 265.454 208.747 265.454 186.142V167.652C265.454 155.058 257.136 142.464 240.491 132.854C223.847 123.243 202.036 118.441 180.224 118.441H180.175Z" fill="#E0E0E0"/>
<path d="M153.619 258.294C118.027 243.082 119.424 214.77 131.267 216.125C143.11 217.48 164.963 221.671 193.871 216.223L194.131 137.669L108.894 140.695C99.6278 148.852 94.9876 158.245 94.9876 167.652V186.142C94.9876 208.749 103.968 230.429 119.953 246.414C135.938 262.399 157.618 271.379 180.224 271.379C200.233 271.406 219.608 264.365 234.931 251.499C221.32 261.432 189.217 273.506 153.619 258.294Z" fill="#E0E0E0"/>
<path d="M240.491 132.854C207.202 113.64 153.24 113.64 119.951 132.854C86.6619 152.067 86.6689 183.229 119.951 202.45C153.233 221.671 207.209 221.664 240.491 202.45C273.773 183.236 273.78 152.074 240.491 132.854ZM237.894 197.964C222.576 206.809 202.092 211.681 180.224 211.681C158.357 211.681 137.873 206.795 122.548 197.964C108.122 189.638 100.182 178.877 100.182 167.666C100.182 156.455 108.122 145.693 122.548 137.36C137.873 128.515 158.35 123.643 180.224 123.643C202.099 123.643 222.576 128.515 237.894 137.36C252.32 145.693 260.266 156.455 260.266 167.666C260.266 178.877 252.32 189.624 237.894 197.964Z" fill="white"/>
<path d="M237.894 137.353C222.576 128.501 202.092 123.629 180.224 123.629C158.357 123.629 137.866 128.501 122.548 137.353C108.108 145.679 100.175 156.434 100.175 167.652C100.187 170.869 100.828 174.053 102.064 177.023C105.195 169.301 112.208 162.064 122.548 156.097C137.866 147.252 158.35 142.38 180.224 142.38C202.099 142.38 222.576 147.252 237.894 156.097C248.234 162.064 255.24 169.28 258.385 177.023C259.618 174.052 260.257 170.868 260.266 167.652C260.266 156.441 252.32 145.679 237.894 137.353Z" fill="#EBEBEB"/>
<path d="M180.224 123.629C158.35 123.629 137.866 128.501 122.548 137.353C108.108 145.679 100.175 156.434 100.175 167.652C100.187 170.869 100.828 174.053 102.064 177.023C105.195 169.301 112.208 162.064 122.548 156.097C137.866 147.252 158.35 142.38 180.224 142.38C181.586 142.38 182.948 142.38 184.303 142.436C179.045 142.38 167.953 139.726 171.667 132.531C175.57 125.005 185.44 123.699 192.727 124.177C188.627 123.819 184.45 123.629 180.224 123.629Z" fill="#E0E0E0"/>
<path opacity="0.1" d="M180.224 123.629C158.35 123.629 137.866 128.501 122.548 137.353C108.108 145.679 100.175 156.434 100.175 167.652C100.187 170.869 100.828 174.053 102.064 177.023C105.195 169.301 112.208 162.064 122.548 156.097C137.866 147.252 158.35 142.38 180.224 142.38C181.586 142.38 182.948 142.38 184.303 142.436C179.045 142.38 167.953 139.726 171.667 132.531C175.57 125.005 185.44 123.699 192.727 124.177C188.627 123.819 184.45 123.629 180.224 123.629Z" fill="black"/>
<path d="M260.266 167.652C260.266 157.746 254.061 148.192 242.667 140.358C248.017 146.557 245.005 157.648 233.45 153.696H233.366C234.917 154.461 236.434 155.254 237.894 156.104C248.234 162.071 255.24 169.287 258.385 177.03C259.619 174.057 260.258 170.871 260.266 167.652Z" fill="#E0E0E0"/>
<path opacity="0.1" d="M260.266 167.652C260.266 157.746 254.061 148.192 242.667 140.358C248.017 146.557 245.005 157.648 233.45 153.696H233.366C234.917 154.461 236.434 155.254 237.894 156.104C248.234 162.071 255.24 169.287 258.385 177.03C259.619 174.057 260.258 170.871 260.266 167.652Z" fill="black"/>
<path d="M237.894 156.097C222.576 147.252 202.092 142.38 180.224 142.38C158.357 142.38 137.866 147.252 122.548 156.097C112.208 162.064 105.195 169.28 102.064 177.023C105.202 184.745 112.208 191.983 122.555 197.95C137.866 206.795 158.357 211.667 180.224 211.667C202.092 211.667 222.576 206.795 237.894 197.95C248.234 191.983 255.24 184.759 258.385 177.023C255.24 169.28 248.234 162.064 237.894 156.097Z" fill="#9269AD"/>
<path opacity="0.4" d="M237.894 156.097C222.576 147.252 202.092 142.38 180.224 142.38C158.357 142.38 137.866 147.252 122.548 156.097C112.208 162.064 105.195 169.28 102.064 177.023C105.202 184.745 112.208 191.983 122.555 197.95C137.866 206.795 158.357 211.667 180.224 211.667C202.092 211.667 222.576 206.795 237.894 197.95C248.234 191.983 255.24 184.759 258.385 177.023C255.24 169.28 248.234 162.064 237.894 156.097Z" fill="black"/>
<path opacity="0.3" d="M122.548 156.097C112.208 162.064 105.195 169.28 102.064 177.023C105.202 184.745 112.208 191.983 122.555 197.95C133.829 204.465 147.904 208.81 163.271 210.656C158.673 208.199 152.601 203.292 147.525 202.232C145.77 201.867 144.078 201.334 142.352 200.828C137.473 199.424 135.942 197.831 134.966 196.616C133.331 194.651 132.545 191.829 133.492 189.456C134.2 187.953 135.304 186.671 136.686 185.749C141.397 182.288 147.378 180.983 152.292 177.824C153.562 177.009 154.819 175.977 155.24 174.538C155.711 172.952 155.051 171.239 154.082 169.905C153.113 168.571 151.85 167.476 150.853 166.163C149.856 164.851 149.126 163.18 149.484 161.572C149.714 160.554 150.265 159.636 151.056 158.954C154.426 156.146 158.778 155.633 161.635 154.967C162.691 154.742 163.688 154.297 164.56 153.66C165.432 153.024 166.161 152.211 166.697 151.274C167.799 149.414 166.613 147.097 167.687 145.23C168.315 144.175 169.202 143.298 170.263 142.682C152.187 143.98 135.486 148.606 122.548 156.097ZM121.664 181.151C121.466 181.252 121.247 181.305 121.025 181.305C120.803 181.305 120.584 181.252 120.386 181.151C120.307 181.127 120.239 181.078 120.19 181.011C120.141 180.945 120.115 180.865 120.115 180.783C120.115 180.7 120.141 180.62 120.19 180.554C120.239 180.488 120.307 180.439 120.386 180.414C120.584 180.313 120.803 180.26 121.025 180.26C121.247 180.26 121.466 180.313 121.664 180.414C121.739 180.442 121.804 180.492 121.85 180.558C121.895 180.624 121.92 180.702 121.92 180.783C121.92 180.863 121.895 180.941 121.85 181.007C121.804 181.073 121.739 181.123 121.664 181.151ZM129.673 192.72C129.06 193.031 128.382 193.194 127.694 193.194C127.006 193.194 126.328 193.031 125.714 192.72C124.619 192.088 124.619 191.07 125.714 190.439C126.328 190.127 127.006 189.965 127.694 189.965C128.382 189.965 129.06 190.127 129.673 190.439C130.769 191.07 130.769 192.088 129.673 192.72ZM131.386 187.56C131.189 187.661 130.97 187.714 130.747 187.714C130.525 187.714 130.306 187.661 130.109 187.56C130.03 187.536 129.961 187.487 129.913 187.421C129.864 187.354 129.838 187.274 129.838 187.192C129.838 187.11 129.864 187.029 129.913 186.963C129.961 186.897 130.03 186.848 130.109 186.823C130.308 186.726 130.526 186.676 130.747 186.676C130.969 186.676 131.187 186.726 131.386 186.823C131.462 186.851 131.526 186.901 131.572 186.967C131.618 187.033 131.643 187.112 131.643 187.192C131.643 187.272 131.618 187.35 131.572 187.416C131.526 187.482 131.462 187.532 131.386 187.56ZM132.201 179.136C131.231 179.628 130.16 179.884 129.073 179.884C127.986 179.884 126.915 179.628 125.946 179.136C124.219 178.14 124.219 176.525 125.946 175.528C126.915 175.037 127.986 174.78 129.073 174.78C130.16 174.78 131.231 175.037 132.201 175.528C133.928 176.539 133.928 178.154 132.201 179.15V179.136ZM145.44 158.652C145.752 158.493 146.098 158.41 146.448 158.41C146.798 158.41 147.143 158.493 147.455 158.652C147.579 158.691 147.687 158.768 147.764 158.873C147.841 158.978 147.883 159.105 147.883 159.235C147.883 159.365 147.841 159.491 147.764 159.596C147.687 159.701 147.579 159.778 147.455 159.817C147.143 159.976 146.798 160.059 146.448 160.059C146.098 160.059 145.752 159.976 145.44 159.817C145.32 159.775 145.215 159.696 145.141 159.592C145.068 159.487 145.028 159.363 145.028 159.235C145.028 159.107 145.068 158.982 145.141 158.878C145.215 158.773 145.32 158.695 145.44 158.652ZM136.272 165.89C134.545 164.893 134.545 163.278 136.272 162.281C137.24 161.79 138.311 161.534 139.396 161.534C140.482 161.534 141.552 161.79 142.52 162.281C144.247 163.278 144.247 164.893 142.52 165.89C141.553 166.382 140.483 166.64 139.397 166.641C138.311 166.642 137.241 166.387 136.272 165.897V165.89ZM140.4 179.551C140.087 179.71 139.74 179.793 139.389 179.793C139.038 179.793 138.691 179.71 138.378 179.551C138.257 179.51 138.151 179.432 138.076 179.328C138.002 179.224 137.961 179.099 137.961 178.971C137.961 178.843 138.002 178.719 138.076 178.615C138.151 178.511 138.257 178.433 138.378 178.392C138.691 178.233 139.038 178.15 139.389 178.15C139.74 178.15 140.087 178.233 140.4 178.392C140.521 178.433 140.627 178.511 140.702 178.615C140.777 178.719 140.817 178.843 140.817 178.971C140.817 179.099 140.777 179.224 140.702 179.328C140.627 179.432 140.521 179.51 140.4 179.551ZM149.442 170.586C151.414 171.73 151.414 173.577 149.442 174.714C148.335 175.274 147.112 175.567 145.872 175.567C144.632 175.567 143.409 175.274 142.302 174.714C140.33 173.577 140.33 171.73 142.302 170.586C143.409 170.025 144.632 169.733 145.872 169.733C147.112 169.733 148.335 170.025 149.442 170.586ZM155.998 153.633C155.802 153.733 155.584 153.785 155.363 153.785C155.142 153.785 154.925 153.733 154.728 153.633C154.663 153.6 154.608 153.55 154.57 153.488C154.532 153.426 154.512 153.354 154.512 153.282C154.512 153.209 154.532 153.138 154.57 153.076C154.608 153.014 154.663 152.963 154.728 152.931C154.925 152.831 155.142 152.779 155.363 152.779C155.584 152.779 155.802 152.831 155.998 152.931C156.074 152.957 156.14 153.006 156.187 153.072C156.234 153.137 156.259 153.215 156.259 153.296C156.259 153.376 156.234 153.455 156.187 153.52C156.14 153.585 156.074 153.635 155.998 153.661V153.633Z" fill="#9269AD"/>
<path opacity="0.3" d="M237.894 156.097C234.284 154.026 230.531 152.217 226.662 150.684C225.599 150.915 224.558 151.24 223.552 151.653C222.417 152.03 221.425 152.746 220.709 153.703C219.178 156.104 221.053 159.207 223.074 161.207C226.175 164.144 229.602 166.717 233.289 168.873C235.219 170.06 237.234 171.218 238.666 172.973C240.098 174.728 240.849 177.248 239.88 179.291C239.178 180.793 237.711 181.762 236.469 182.871C235.226 183.98 234.096 185.532 234.405 187.16C234.643 188.41 235.661 189.336 236.511 190.305C237.36 191.274 238.041 192.608 237.529 193.773C237.016 194.938 235.591 195.31 234.335 195.486C229.666 196.132 224.837 195.837 220.295 197.143C218.541 197.536 216.955 198.469 215.76 199.81C214.791 201.053 214.398 202.674 213.373 203.868C211.056 206.578 206.837 205.974 203.278 206.177C198.701 206.43 194.398 208.375 190.291 210.425C189.624 210.754 188.971 211.127 188.311 211.435C207.09 210.396 224.471 205.686 237.894 197.964C248.234 191.997 255.24 184.773 258.385 177.037C255.24 169.28 248.234 162.064 237.894 156.097ZM231.407 158.743C230.438 159.235 229.367 159.491 228.28 159.491C227.193 159.491 226.122 159.235 225.152 158.743C223.426 157.746 223.426 156.132 225.152 155.135C226.122 154.644 227.193 154.387 228.28 154.387C229.367 154.387 230.438 154.644 231.407 155.135C233.134 156.132 233.134 157.746 231.407 158.743ZM236.637 163.868C236.108 164.135 235.524 164.273 234.931 164.273C234.339 164.273 233.755 164.135 233.225 163.868C232.285 163.32 232.285 162.464 233.225 161.895C233.755 161.629 234.339 161.49 234.931 161.49C235.524 161.49 236.108 161.629 236.637 161.895C237.578 162.443 237.578 163.32 236.637 163.868ZM223.798 202.078C223.2 202.382 222.538 202.541 221.867 202.541C221.196 202.541 220.535 202.382 219.937 202.078C218.87 201.467 218.87 200.463 219.937 199.852C220.535 199.548 221.196 199.389 221.867 199.389C222.538 199.389 223.2 199.548 223.798 199.852C224.865 200.463 224.865 201.474 223.798 202.078ZM228.466 200.028C228.121 200.204 227.74 200.296 227.353 200.296C226.966 200.296 226.585 200.204 226.241 200.028C226.118 199.972 226.014 199.882 225.941 199.769C225.868 199.656 225.83 199.524 225.83 199.389C225.83 199.254 225.868 199.123 225.941 199.009C226.014 198.896 226.118 198.806 226.241 198.75C226.585 198.574 226.966 198.482 227.353 198.482C227.74 198.482 228.121 198.574 228.466 198.75C228.588 198.806 228.692 198.896 228.765 199.009C228.838 199.123 228.877 199.254 228.877 199.389C228.877 199.524 228.838 199.656 228.765 199.769C228.692 199.882 228.588 199.972 228.466 200.028ZM244.612 178.736C244.894 178.594 245.205 178.52 245.521 178.52C245.837 178.52 246.148 178.594 246.43 178.736C246.935 179.031 246.935 179.501 246.43 179.789C246.149 179.935 245.837 180.01 245.521 180.01C245.205 180.01 244.893 179.935 244.612 179.789C244.113 179.501 244.113 179.01 244.619 178.736H244.612ZM247.272 189.035C246.007 189.675 244.609 190.009 243.19 190.009C241.772 190.009 240.374 189.675 239.108 189.035C236.855 187.729 236.855 185.616 239.108 184.317C240.374 183.677 241.772 183.343 243.19 183.343C244.609 183.343 246.007 183.677 247.272 184.317C249.54 185.616 249.54 187.729 247.279 189.035H247.272ZM250.179 173.935C249.484 174.288 248.715 174.472 247.936 174.472C247.156 174.472 246.388 174.288 245.693 173.935C244.45 173.233 244.45 172.053 245.693 171.337C246.388 170.984 247.156 170.8 247.936 170.8C248.715 170.8 249.484 170.984 250.179 171.337C251.428 172.053 251.428 173.219 250.186 173.935H250.179ZM254.854 175.254C254.573 175.4 254.261 175.475 253.945 175.475C253.629 175.475 253.317 175.4 253.036 175.254C252.53 174.967 252.53 174.496 253.036 174.201C253.318 174.059 253.629 173.985 253.945 173.985C254.261 173.985 254.572 174.059 254.854 174.201C255.367 174.496 255.366 174.967 254.861 175.254H254.854Z" fill="#9269AD"/>
<path opacity="0.4" d="M168.957 142.822C151.407 144.226 135.205 148.789 122.548 156.097C112.208 162.064 105.195 169.28 102.064 177.023C105.202 184.745 112.208 191.983 122.555 197.95C126.509 200.218 130.633 202.175 134.889 203.805C126.465 198.947 117.901 191.632 117.866 181.874C117.803 162.548 141.242 145.862 168.957 142.822Z" fill="black"/>
<path opacity="0.1" d="M190.474 318.076C190.48 318.006 190.48 317.936 190.474 317.866C190.477 317.838 190.477 317.809 190.474 317.781C190.451 317.716 190.423 317.652 190.389 317.592L190.347 317.508C190.302 317.444 190.25 317.385 190.193 317.332C190.171 317.305 190.148 317.279 190.123 317.255C190.029 317.174 189.928 317.101 189.821 317.037L84.1698 258.673C85.7672 256.437 86.717 253.804 86.9146 251.063C86.9298 250.83 86.9298 250.595 86.9146 250.361C86.9146 250.361 86.9146 250.305 86.9146 250.277C86.8304 246.865 84.2962 243.166 78.7433 239.347C67.1744 231.379 40.5475 224.38 29.1962 230.923C25.2369 233.211 24.1418 236.581 24.9842 240.274C25.7494 244.247 28.3678 249.4 33.7662 255.079L33.8083 255.128C34.1593 255.493 34.5103 255.83 34.9034 256.23L35.0509 256.377C35.4721 256.792 35.9143 257.213 36.3706 257.634C39.3851 260.512 42.8167 262.919 46.5496 264.773C47.6351 265.301 48.7482 265.77 49.8841 266.177C51.6977 266.832 53.5619 267.337 55.458 267.687C58.3021 268.203 61.188 268.455 64.0785 268.438C68.9445 268.453 73.7195 267.119 77.8728 264.584L178.385 325.201C181.551 327.034 190.495 322.393 190.502 319.698C190.502 319.438 190.502 318.385 190.502 318.104C190.481 318.097 190.474 318.09 190.474 318.076Z" fill="black"/>
<path d="M64.0504 264.514C76.6162 264.514 86.9427 255.816 86.9427 246.381L24.9911 236.384C25.8686 240.954 29.2032 247.111 36.3776 253.745C43.552 260.379 51.4776 264.514 64.0504 264.514Z" fill="#EBEBEB"/>
<path opacity="0.15" d="M64.0504 264.514C76.6162 264.514 86.9427 255.816 86.9427 246.381L24.9911 236.384C25.8686 240.954 29.2032 247.111 36.3776 253.745C43.552 260.379 51.4776 264.514 64.0504 264.514Z" fill="black"/>
<path opacity="0.15" d="M83.7977 247.806C83.9452 254.566 75.8651 262.948 63.2923 262.906C51.0916 262.857 39.9438 257.451 31.6111 248.796C33.0933 250.549 34.6853 252.207 36.3776 253.759C43.5591 260.4 51.4777 264.528 64.0505 264.528C76.6233 264.528 86.9427 255.83 86.9427 246.395L83.7626 245.883C83.7767 246.563 83.7837 247.209 83.7977 247.806Z" fill="black"/>
<path d="M78.7654 235.451C67.1965 227.483 40.5696 220.484 29.2183 227.027C17.8669 233.569 29.9975 248.95 43.7988 255.633C57.4527 262.246 70.2151 261.46 79.5376 256.083C88.8602 250.705 90.2221 243.334 78.7654 235.451Z" fill="#E6E6E6"/>
<path d="M41.5447 225.104C54.7072 225.104 70.6146 230.643 78.3927 235.992C83.763 239.691 86.4166 243.335 86.2832 246.81C86.1568 249.906 83.7139 252.917 79.207 255.515C74.2859 258.306 68.7187 259.758 63.061 259.727C56.4718 259.633 49.9903 258.041 44.107 255.072C33.8438 250.088 25.6374 241.046 25.3987 234.469C25.2934 231.576 26.6904 229.274 29.5475 227.624C32.4047 225.974 36.4623 225.118 41.5447 225.118V225.104ZM41.5447 224.458C36.6939 224.458 32.3696 225.23 29.2176 227.048C17.8733 233.598 29.9968 248.972 43.7982 255.655C49.7701 258.664 56.3466 260.279 63.033 260.379C68.8146 260.431 74.5077 258.957 79.537 256.104C88.8595 250.72 90.2214 243.349 78.7648 235.465C70.4039 229.709 54.1948 224.458 41.5588 224.458H41.5447Z" fill="#E0E0E0"/>
<path d="M72.2358 237.107C60.9476 229.589 37.3253 222.478 29.2383 227.981C21.1512 233.485 34.398 247.736 47.2867 254.166C60.021 260.533 70.4878 260.217 77.1428 255.668C83.7977 251.119 83.4046 244.549 72.2358 237.107Z" fill="#F0F0F0"/>
<path d="M59.5787 234.37C51.5689 229.042 34.8192 224.001 29.0768 227.925C23.3344 231.85 32.7483 241.909 41.8813 246.472C51.0143 251.035 58.3362 250.761 63.0536 247.539C67.771 244.317 67.4973 239.649 59.5787 234.37Z" fill="#FAFAFA"/>
<path d="M189.765 313.092L82.6956 253.934C80.5869 255.521 78.2933 256.846 75.8651 257.88V259.466L178.357 321.284C181.523 323.11 190.467 318.441 190.474 315.774C190.474 315.521 190.474 314.461 190.474 314.187C190.472 313.956 190.404 313.73 190.279 313.536C190.153 313.342 189.975 313.188 189.765 313.092Z" fill="#E0E0E0"/>
<path opacity="0.25" d="M189.765 313.092L82.6956 253.934C80.5914 255.528 78.2969 256.853 75.8651 257.88V259.466L178.357 321.284C181.523 323.11 190.467 318.441 190.474 315.774C190.474 315.521 190.474 314.461 190.474 314.187C190.472 313.956 190.404 313.73 190.279 313.536C190.153 313.342 189.975 313.188 189.765 313.092Z" fill="black"/>
<path d="M178.357 319.698C182.022 321.804 193.429 315.226 189.765 313.113L82.6956 253.934C80.5915 255.528 78.297 256.853 75.8651 257.88L178.357 319.698Z" fill="#F0F0F0"/>
<path d="M83.3344 255.605C83.3344 255.605 172.727 304.745 179.389 308.41C186.69 312.411 191.141 314.236 186.5 316.918C181.053 320.063 179.726 318.666 179.726 318.666C181.538 318.48 183.284 317.882 184.83 316.918C187.567 315.163 185.188 312.825 179.824 310.256C174.461 307.687 83.3344 255.605 83.3344 255.605Z" fill="#FAFAFA"/>
<path opacity="0.2" d="M185.16 178.842C186.339 171.576 183.054 165.981 175.963 161.172C167.778 155.619 154.201 147.996 150.986 131.787C144.998 101.271 184.036 84.4717 191.744 78.7715C200.477 72.3131 205.216 67.1885 203.973 54.8333C217.95 66.7181 223.629 92.5587 197.915 107.911C178.147 119.705 167.378 133.233 178.455 147.925C190.137 163.447 191.176 169.673 185.16 178.842Z" fill="#9269AD"/>
<path opacity="0.2" d="M207.315 74.3067C206.381 83.7486 195.381 90.3544 187.918 94.6647C180.456 98.975 172.355 102.766 166.016 108.894C160.66 114.075 156.89 121.327 157.073 129.028C157.388 141.207 164.633 147.785 171.885 151.379C172.173 151.52 172.362 151.379 171.464 150.677C167.252 147.167 163.496 142.639 162.211 138.589C160.533 133.282 160.267 128.29 161.65 123.784C164.31 115.121 171.351 109.21 178.736 104.507C189.793 97.4867 207.111 89.5822 207.624 74.2786C207.631 73.9487 207.336 74.1242 207.315 74.3067Z" fill="#9269AD"/>
<path opacity="0.2" d="M187.897 30.888C197.964 43.524 196.827 61.6356 181.895 71.3583C166.964 81.081 143.573 92.6149 144.121 111.618C135.486 99.9788 134.735 83.7135 149.372 72.5166C156.56 67.0129 170.698 60.9757 178.21 53.7311C184.71 47.4482 188.999 39.4173 187.897 30.888Z" fill="#9269AD"/>
<path d="M81.3899 70.3334C81.3899 72.8185 81.3337 75.2053 77.7465 75.7669C81.5303 75.7107 81.2565 78.0975 81.432 81.088C81.5303 78.0975 81.797 75.9564 84.7454 75.816C81.6917 75.3106 81.776 73.8925 81.3899 70.3334Z" fill="#455A64"/>
<path d="M302.752 112.145C302.752 114.623 302.688 117.016 299.101 117.571C302.892 117.522 302.611 119.909 302.787 122.899C302.892 119.909 303.152 117.761 306.107 117.62C303.053 117.115 303.131 115.697 302.752 112.145Z" fill="#455A64"/>
<path d="M98.1045 116.399C98.1045 118.884 98.0413 121.271 94.4541 121.832C98.2449 121.776 97.9641 124.163 98.1466 127.153C98.2449 124.163 98.5046 122.022 101.46 121.881C98.4063 121.376 98.4835 119.958 98.1045 116.399Z" fill="#9269AD"/>
<path d="M24.9561 170.34C24.9561 172.074 24.9982 173.738 27.4973 174.124C24.8578 174.124 25.0614 175.753 24.928 177.831C24.8578 175.725 24.6753 174.257 22.6184 174.159C24.7455 173.808 24.6893 172.818 24.9561 170.34Z" fill="#EBEBEB"/>
<path d="M255.718 89.2172C255.718 90.9441 255.76 92.6148 258.259 93.0009C255.619 93.0009 255.816 94.6296 255.689 96.7075C255.619 94.6015 255.437 93.1343 253.38 93.036C255.528 92.664 255.451 91.6952 255.718 89.2172Z" fill="#EBEBEB"/>
<path d="M46.5988 151.723C46.5988 154.208 46.6619 156.637 50.2562 157.164C46.4584 157.115 46.7462 159.508 46.5566 162.506C46.4584 159.508 46.1916 157.353 43.2292 157.213C46.332 156.707 46.2127 155.289 46.5988 151.723Z" fill="#E0E0E0"/>
<path d="M264.514 116.013C264.514 118.505 264.577 120.927 268.171 121.46C264.373 121.404 264.661 123.798 264.479 126.795C264.373 123.798 264.113 121.65 261.151 121.509C264.212 120.997 264.135 119.579 264.514 116.013Z" fill="#E0E0E0"/>
<path d="M227.209 35.1351C227.209 37.6272 227.273 40.0491 230.867 40.5756C227.069 40.5265 227.357 42.9203 227.167 45.9179C227.069 42.9203 226.802 40.7722 223.847 40.6248C226.907 40.1193 226.823 38.7013 227.209 35.1351Z" fill="#E0E0E0"/>
<path d="M41.0108 174.728C40.716 181.818 40.014 184.226 33.8224 185.328C40.0982 185.869 40.6528 189.884 41.0108 195.711C41.2074 189.884 42.5061 185.503 48.2625 185.23C42.3095 184.226 41.755 181.664 41.0108 174.728Z" fill="#9269AD"/>
<path d="M247.897 97.8167C247.539 105.539 246.788 108.192 240.042 109.379C246.893 109.975 247.497 114.356 247.897 120.73C248.108 114.356 249.533 109.575 255.816 109.273C249.315 108.199 248.712 105.398 247.897 97.8167Z" fill="#9269AD"/>
<path d="M147.476 33.9487C146.872 40.3299 147.174 42.9905 140.779 43.9171C147.174 44.3524 147.139 48.1291 147.476 53.6118C147.666 48.1432 147.799 44.4226 153.577 43.9171C147.799 43.0747 148.178 40.4563 147.476 33.9487Z" fill="#455A64"/>
<path d="M136.363 49.4349C136.363 51.1688 136.321 52.8326 133.822 53.2187C136.462 53.2187 136.265 54.8473 136.392 56.9322C136.462 54.8262 136.644 53.352 138.701 53.2538C136.574 52.9028 136.63 51.948 136.363 49.4349Z" fill="#EBEBEB"/>
<path d="M110.067 98.3221C109.744 105.405 109.056 107.82 102.878 108.908C109.147 109.449 109.702 113.464 110.067 119.291C110.263 113.464 111.562 109.084 117.318 108.803C111.365 107.82 110.811 105.258 110.067 98.3221Z" fill="#E0E0E0"/>
<path d="M294.552 172.369C294.875 179.452 295.563 181.867 301.741 182.955C295.472 183.496 294.917 187.511 294.552 193.345C294.356 187.511 293.057 183.131 287.301 182.857C293.253 181.867 293.808 179.305 294.552 172.369Z" fill="#E0E0E0"/>
<path d="M311.021 189.694C311.225 194.194 311.66 195.732 315.584 196.42C311.604 196.764 311.253 199.312 311.021 203.018C310.895 199.312 310.073 196.532 306.416 196.356C310.193 195.732 310.551 194.103 311.021 189.694Z" fill="#455A64"/>
<path d="M306.423 164.352C306.535 166.802 306.774 167.638 308.915 168.017C306.746 168.206 306.549 169.589 306.423 171.611C306.36 169.589 305.911 168.101 303.917 167.982C305.974 167.638 306.17 166.753 306.423 164.352Z" fill="#455A64"/>
<path d="M253.85 220.947C257.908 220.772 260.231 220.905 263.397 224.191C266.563 227.476 282.281 241.446 282.281 241.446L278.294 255.654C276.042 254.94 273.869 253.999 271.807 252.846C268.136 250.853 255.521 238.104 255.521 238.104L253.85 220.947Z" fill="#9269AD"/>
<path opacity="0.1" d="M253.85 220.947C257.908 220.772 260.231 220.905 263.397 224.191C266.563 227.476 282.281 241.446 282.281 241.446L278.294 255.654C276.042 254.94 273.869 253.999 271.807 252.846C268.136 250.853 255.521 238.104 255.521 238.104L253.85 220.947Z" fill="black"/>
<path d="M262.759 219.101C261.846 218.203 260.765 217.178 261.102 216.497C261.485 215.694 261.956 214.936 262.506 214.236C262.864 213.885 263.503 214.377 263.72 215.037C263.818 215.668 263.775 216.313 263.594 216.925L262.759 219.101Z" fill="#C8856A"/>
<path d="M263.531 216.293C264.612 215.732 266.009 216.342 266.514 218.069C267.02 219.796 268.705 224.507 267.441 225.925C267.14 226.319 266.709 226.594 266.225 226.702C265.741 226.81 265.234 226.743 264.794 226.514C264.794 226.514 261.249 217.494 263.531 216.293Z" fill="#E0E0E0"/>
<path d="M271.148 219.684C271.098 219.315 270.97 218.96 270.773 218.644C270.576 218.328 270.313 218.058 270.003 217.852C269.085 216.976 268.115 216.158 267.097 215.402C266.535 215.107 265.868 215.521 265.391 216.005C264.914 216.49 263.931 217.409 263.826 217.915C263.828 218.389 263.956 218.854 264.198 219.263L265.539 224.106C265.539 224.106 266.297 224.163 266.5 223.84C266.437 224.085 266.964 224.64 267.076 224.654L267.216 225.468C267.216 225.468 266.788 226.318 265.047 226.072C263.306 225.826 261.179 226.627 260.758 228.178C260.337 229.729 265.131 237.346 265.131 237.346C266.309 237.407 267.488 237.236 268.599 236.841C271.077 236.139 272.727 233.268 272.727 233.268C272.727 233.268 269.54 228.831 269.8 228.227C270.059 227.623 270.804 226.318 271.14 225.693C271.477 225.068 271.393 224.507 271.604 224.106C271.796 223.841 271.921 223.533 271.967 223.209C272.014 222.885 271.981 222.555 271.871 222.246C272.02 221.734 272.059 221.195 271.983 220.667C271.829 220.251 271.533 219.902 271.148 219.684Z" fill="#C8856A"/>
<path opacity="0.5" d="M269.568 225.033C268.831 224.984 268.206 224.029 267.869 223.468C267.532 222.906 266.893 223.159 266.507 223.84C266.444 224.085 266.971 224.64 267.083 224.654L267.223 225.468C267.223 225.468 266.795 226.318 265.054 226.072C263.313 225.826 261.186 226.627 260.765 228.178C260.344 229.729 265.138 237.346 265.138 237.346C266.316 237.407 267.495 237.236 268.606 236.841C271.084 236.139 272.734 233.268 272.734 233.268C272.734 233.268 269.547 228.831 269.807 228.227C270.01 227.743 270.382 227.09 270.874 226.198C271.105 225.763 270.27 225.089 269.568 225.033Z" fill="#AF6152"/>
<path d="M270.01 218.855C269.855 218.856 269.702 218.815 269.568 218.736L269.161 218.519L268.389 218.069C267.893 217.762 267.356 217.526 266.795 217.367C266.549 217.297 266.286 217.314 266.051 217.416C265.814 217.571 265.599 217.758 265.412 217.971C265.012 218.406 264.64 218.884 264.226 219.333C264.502 218.789 264.824 218.27 265.188 217.781C265.378 217.508 265.616 217.27 265.89 217.079C266.201 216.917 266.561 216.877 266.9 216.967C267.501 217.138 268.065 217.419 268.564 217.795C268.817 217.964 269.056 218.153 269.266 218.343C269.477 218.562 269.73 218.737 270.01 218.855Z" fill="#AF6152"/>
<path d="M269.982 220.856C269.84 220.875 269.696 220.843 269.575 220.765C269.448 220.707 269.326 220.639 269.21 220.561L268.508 220.105C268.066 219.807 267.595 219.553 267.104 219.347C267.002 219.304 266.892 219.282 266.781 219.282C266.67 219.282 266.56 219.304 266.458 219.347C266.231 219.473 266.017 219.621 265.819 219.789L264.549 220.835C264.87 220.382 265.229 219.956 265.623 219.564C265.822 219.357 266.046 219.176 266.29 219.024C266.438 218.958 266.598 218.923 266.76 218.923C266.922 218.923 267.082 218.958 267.23 219.024C267.754 219.241 268.242 219.537 268.676 219.901C268.894 220.077 269.091 220.266 269.294 220.449C269.481 220.646 269.72 220.787 269.982 220.856Z" fill="#AF6152"/>
<path d="M269.898 223.018C269.645 223.082 269.414 222.913 269.196 222.808C268.978 222.702 268.796 222.534 268.599 222.387L268.038 221.958C267.841 221.818 267.659 221.656 267.476 221.551C267.139 221.312 266.732 221.495 266.311 221.713C265.891 221.937 265.483 222.183 265.089 222.45C265.394 222.069 265.753 221.735 266.156 221.46C266.369 221.304 266.606 221.185 266.858 221.109C266.997 221.068 267.142 221.058 267.285 221.079C267.428 221.099 267.565 221.15 267.687 221.228C267.895 221.361 268.093 221.512 268.276 221.678C268.465 221.83 268.645 221.991 268.817 222.162L269.329 222.66C269.476 222.837 269.675 222.962 269.898 223.018Z" fill="#AF6152"/>
<path opacity="0.5" d="M271.842 220.351C271.884 220.441 271.906 220.539 271.907 220.638C271.908 220.737 271.888 220.835 271.848 220.926C271.808 221.017 271.75 221.099 271.676 221.165C271.602 221.232 271.516 221.282 271.421 221.313C270.958 221.439 271.47 221.818 271.871 222.246C272.02 221.734 272.059 221.195 271.983 220.667C271.951 220.555 271.903 220.449 271.842 220.351Z" fill="#AF6152"/>
<path d="M267.076 224.64C267.417 224.688 267.764 224.624 268.066 224.457C267.705 224.529 267.331 224.493 266.992 224.352C266.864 224.228 266.766 224.076 266.705 223.908C266.644 223.74 266.622 223.561 266.641 223.383C266.539 223.524 266.487 223.694 266.493 223.868C266.493 224.106 266.795 224.64 267.076 224.64Z" fill="#874C4C"/>
<path d="M264.598 237.114C264.598 237.114 265.075 238.097 267.666 243.039C268.908 245.412 271.779 251.169 275.1 253.78C279.445 257.192 282.702 256.342 284.226 255.001C285.749 253.661 286.051 247.504 284.113 244.043C282.499 241.165 281.446 240.688 278.062 237.402C274.679 234.117 271.288 230.902 271.288 230.902C270.431 235.423 264.598 237.114 264.598 237.114Z" fill="#9269AD"/>
<path d="M222.969 266.36C224.331 280.168 227.462 289.161 233.787 294.44L260.561 272.973L260.217 259.108L222.969 266.36Z" fill="#455A64"/>
<path d="M225.693 226.086C225.693 226.086 232.713 222.576 238.603 221.607C243.635 220.723 248.761 220.502 253.85 220.947C253.85 220.947 258.35 221.544 260.561 231.155C262.113 237.894 260.786 244.766 260.751 251.049C261.081 253.857 261.692 255.416 262.33 258.617C262.387 260.021 261.109 261.523 259.382 262.766C256.391 264.921 251.169 266.718 244.675 269.364C238.02 274.208 230.867 277.311 224.633 277.578C222.302 268.122 221.727 255.409 221.411 250.775C220.365 235.472 223.306 231.976 225.693 226.086Z" fill="#9269AD"/>
<path opacity="0.3" d="M225.693 226.086C225.693 226.086 232.713 222.576 238.603 221.607C243.635 220.723 248.761 220.502 253.85 220.947C253.85 220.947 258.35 221.544 260.561 231.155C262.113 237.894 260.786 244.766 260.751 251.049C261.081 253.857 261.692 255.416 262.33 258.617C262.387 260.021 261.109 261.523 259.382 262.766C256.391 264.921 251.169 266.718 244.675 269.364C238.02 274.208 230.867 277.311 224.633 277.578C222.302 268.122 221.727 255.409 221.411 250.775C220.365 235.472 223.306 231.976 225.693 226.086Z" fill="black"/>
<path d="M257.831 194.566C256.076 190.993 252.299 187.869 246.43 187.701C239.277 187.49 234.58 189.863 234.208 194.398C233.573 194.569 232.985 194.884 232.491 195.319C231.997 195.753 231.609 196.296 231.358 196.904C230.467 199.122 230.523 201.2 232.018 207.139C232.648 209.79 233.527 212.376 234.644 214.861C235.005 215.64 235.65 216.25 236.448 216.567L236.75 211.372V209.266C236.75 209.266 239.305 209.266 239.916 202.169C240 201.207 240.161 200.435 240.175 199.782L257.894 202.422C257.894 202.422 259.579 198.14 257.831 194.566Z" fill="#263238"/>
<path d="M231.885 212.481C233.829 213.696 235.865 211.99 235.865 211.99C235.865 211.99 235.704 216.904 235.521 219.593C235.339 222.281 234.517 222.59 233.647 222.864C235.266 224.481 237.208 225.737 239.347 226.549C244.865 228.424 250.516 226.549 247.82 222.85L248.052 219.965C249.513 220.136 250.991 220.113 252.446 219.894C255.338 219.305 256.623 217.915 257.276 215.177C258.182 211.4 258.505 208.052 257.796 205.862C257.671 205.457 257.611 205.035 257.62 204.612C257.734 202.976 257.734 201.334 257.62 199.698C257.473 198.414 256.87 197.226 255.921 196.349C252.973 193.724 248.712 196.855 244.605 198.076C242.906 198.582 239.579 198.224 238.568 197.641C239.824 199.291 239.305 202.106 238.189 205.883C237.81 207.188 237.325 207.42 237.037 207.385C235.886 207.266 235.577 205.805 234.931 204.984C234.6 204.658 234.197 204.413 233.755 204.269C233.313 204.124 232.844 204.085 232.384 204.153C231.924 204.221 231.486 204.395 231.104 204.661C230.723 204.927 230.409 205.278 230.186 205.686C229.846 206.242 229.62 206.861 229.522 207.505C229.423 208.15 229.454 208.807 229.612 209.439C229.77 210.072 230.053 210.667 230.443 211.189C230.833 211.711 231.323 212.15 231.885 212.481Z" fill="#C8856A"/>
<path d="M248.052 219.965C244.191 219.431 241.502 218.561 240.105 217.269C238.838 216.008 237.827 214.513 237.129 212.867C237.129 212.867 237.409 216.574 239.403 218.448C241.397 220.323 243.854 221.46 247.904 221.79L248.052 219.965Z" fill="#AF6152"/>
<path d="M249.498 203.187L249.842 210.684L253.878 209.561C252.913 207.136 251.416 204.958 249.498 203.187Z" fill="#AF6152"/>
<path d="M246.121 201.692L243.594 202.997C243.504 202.834 243.448 202.655 243.428 202.47C243.408 202.286 243.425 202.099 243.478 201.92C243.531 201.742 243.618 201.576 243.736 201.432C243.854 201.288 243.999 201.168 244.163 201.081C244.506 200.915 244.899 200.886 245.262 201C245.626 201.113 245.933 201.361 246.121 201.692Z" fill="#263238"/>
<path d="M253.422 201.284L256.23 201.881C256.274 201.701 256.281 201.514 256.252 201.331C256.223 201.147 256.158 200.972 256.061 200.814C255.964 200.656 255.836 200.519 255.686 200.41C255.535 200.302 255.365 200.224 255.184 200.182C254.805 200.104 254.41 200.174 254.082 200.38C253.753 200.585 253.517 200.909 253.422 201.284Z" fill="#263238"/>
<path d="M244.493 205.728C244.493 206.353 245.314 206.858 246.22 206.662C246.585 206.616 246.918 206.428 247.146 206.14C247.375 205.851 247.481 205.484 247.441 205.117C247.288 205.362 247.083 205.569 246.84 205.724C246.597 205.879 246.323 205.979 246.037 206.016C245.773 206.073 245.501 206.076 245.236 206.027C244.971 205.978 244.718 205.876 244.493 205.728Z" fill="#263238"/>
<path d="M253.169 204.654C253.036 205.272 253.661 205.967 254.573 206.016C254.939 206.07 255.311 205.979 255.61 205.761C255.908 205.542 256.108 205.215 256.167 204.851C255.957 205.043 255.707 205.187 255.436 205.273C255.164 205.36 254.877 205.385 254.594 205.349C254.323 205.334 254.057 205.264 253.812 205.145C253.567 205.026 253.349 204.859 253.169 204.654Z" fill="#263238"/>
<path d="M225.665 226.1C219.417 228.859 218.245 234.18 220.203 242.478C221.832 249.378 225.152 260.47 227.757 265.279C229.863 269.182 231.906 270.488 232.896 270.789L239.859 254.314L236.104 239.656C236.104 239.656 232.79 226.528 225.665 226.1Z" fill="#9269AD"/>
<path opacity="0.15" d="M238.42 248.698L237.459 244.942C235.507 247.392 233.352 250.502 232.179 252.165C230.628 254.37 229.996 259.185 230.242 261.888C230.417 263.791 235.458 254.412 238.42 248.698Z" fill="black"/>
<path d="M263.952 216.448C263.736 216.153 263.47 215.899 263.166 215.697L263.025 215.605C262.484 215.286 261.889 215.065 261.27 214.952C259.479 214.711 257.656 214.894 255.948 215.488C254.241 216.082 252.697 217.07 251.442 218.371C251.02 218.839 250.689 219.382 250.467 219.972C250.444 220.024 250.425 220.078 250.41 220.133C250.296 220.477 250.244 220.838 250.256 221.2C250.256 224.128 253.169 228.333 255.872 229.624L255.949 229.666L256.076 229.722L256.349 229.835L256.441 229.87L256.651 229.94L257.037 230.031C258.34 230.206 259.665 230.073 260.907 229.641C262.148 229.209 263.271 228.492 264.184 227.546C264.269 227.45 264.348 227.349 264.422 227.244L264.556 227.041L264.598 226.978L264.752 226.711C264.767 226.672 264.786 226.634 264.808 226.599L264.851 226.507C266.093 223.84 265.777 218.743 263.952 216.448Z" fill="white"/>
<path d="M259.74 215.163C260.237 215.16 260.733 215.204 261.221 215.296C261.809 215.398 262.373 215.608 262.885 215.914L262.997 215.984C263.273 216.173 263.511 216.411 263.699 216.686C265.377 218.792 265.805 223.706 264.507 226.437V226.479V226.528L264.464 226.613L264.331 226.858L264.296 226.907L264.184 227.076C264.117 227.174 264.045 227.268 263.966 227.357C263.218 228.13 262.322 228.747 261.333 229.17C260.343 229.593 259.279 229.814 258.203 229.821C257.845 229.821 257.487 229.788 257.136 229.722L256.792 229.638L256.595 229.575H256.553H256.511L256.258 229.47L256.146 229.421L255.998 229.73L256.104 229.4C253.429 228.073 250.705 223.959 250.705 221.235C250.695 220.914 250.74 220.594 250.839 220.288C250.855 220.237 250.873 220.188 250.895 220.14C251.107 219.591 251.416 219.085 251.807 218.645C252.835 217.571 254.065 216.71 255.426 216.113C256.788 215.515 258.254 215.192 259.74 215.163ZM259.74 214.812C256.742 214.812 253.289 216.216 251.449 218.371C251.027 218.839 250.696 219.382 250.474 219.972C250.451 220.024 250.432 220.078 250.417 220.133C250.303 220.477 250.251 220.838 250.263 221.2C250.263 224.128 253.176 228.333 255.879 229.624L255.956 229.666L256.083 229.722L256.356 229.835L256.448 229.87L256.658 229.94L257.044 230.031C257.415 230.097 257.791 230.13 258.168 230.13C259.293 230.12 260.404 229.886 261.439 229.443C262.473 228.999 263.408 228.355 264.191 227.546C264.276 227.45 264.355 227.349 264.429 227.244L264.563 227.041L264.605 226.978L264.759 226.711C264.774 226.671 264.793 226.634 264.815 226.599L264.858 226.507C266.128 223.805 265.812 218.708 264.001 216.413C263.785 216.118 263.519 215.863 263.215 215.661L263.075 215.57C262.533 215.25 261.938 215.029 261.32 214.917C260.797 214.834 260.269 214.799 259.74 214.812Z" fill="#E0E0E0"/>
<path d="M262.822 225.145C264.823 225.328 265.258 226.592 263.798 227.953C262.051 229.433 259.816 230.208 257.529 230.13C255.528 229.954 255.086 228.726 256.546 227.322C258.296 225.844 260.533 225.068 262.822 225.145Z" fill="#EBEBEB"/>
<path d="M262.583 225.426C264.387 225.567 264.766 226.676 263.44 227.904C261.847 229.22 259.833 229.918 257.767 229.87C255.963 229.73 255.577 228.62 256.911 227.392C258.504 226.076 260.518 225.378 262.583 225.426Z" fill="#E0E0E0"/>
<path opacity="0.1" d="M262.583 225.426C264.387 225.567 264.766 226.676 263.44 227.904C261.847 229.22 259.833 229.918 257.767 229.87C255.963 229.73 255.577 228.62 256.911 227.392C258.504 226.076 260.518 225.378 262.583 225.426Z" fill="black"/>
<path d="M262.583 225.426C260.518 225.378 258.504 226.076 256.911 227.392C256.767 227.442 256.635 227.519 256.521 227.62C256.407 227.721 256.314 227.844 256.248 227.981C256.181 228.118 256.142 228.266 256.133 228.418C256.124 228.57 256.145 228.722 256.195 228.866C256.245 229.01 256.322 229.142 256.423 229.256C256.524 229.37 256.647 229.463 256.784 229.529C256.921 229.596 257.069 229.635 257.221 229.644C257.373 229.653 257.525 229.632 257.669 229.582C259.736 229.629 261.75 228.929 263.341 227.609C263.495 227.568 263.638 227.495 263.762 227.396C263.885 227.297 263.988 227.173 264.062 227.032C264.136 226.892 264.18 226.738 264.192 226.579C264.204 226.421 264.184 226.262 264.132 226.112C264.08 225.962 263.997 225.824 263.89 225.707C263.782 225.59 263.651 225.497 263.506 225.433C263.361 225.368 263.204 225.335 263.045 225.333C262.887 225.332 262.729 225.364 262.583 225.426Z" fill="#E0E0E0"/>
<path d="M247.806 224.282C247.638 223.117 247.209 221.951 247.602 221.025C248.199 219.621 248.227 218.652 248.676 218.217C249.126 217.781 250.038 218.476 250.186 219.185L247.806 224.282Z" fill="#AF6152"/>
<path d="M248.396 222.766C248.994 221.413 249.664 220.094 250.403 218.813C251.168 217.82 252.068 216.938 253.078 216.195C254.103 215.345 255.086 214.166 255.521 214.615C255.749 214.836 255.895 215.128 255.936 215.443C255.977 215.758 255.91 216.078 255.746 216.349C255.367 216.981 254.3 218.371 254.3 218.371C254.3 218.371 256.406 216.855 257.22 216.153C258.034 215.451 258.624 214.875 259.094 215.275C259.565 215.675 259.466 216.398 258.806 217.206C258.124 218.038 257.4 218.834 256.637 219.593C256.005 220.217 255.493 220.842 255.493 220.842C255.493 220.842 257.501 219.473 258.182 218.884C258.863 218.294 259.684 217.536 259.972 217.81C260.379 218.196 260.449 219.129 259.565 220.175C258.21 221.769 256.883 223.089 256.265 223.84C255.647 224.591 254.959 225.524 255.268 225.735L256.75 224.331C257.606 223.503 258.856 222.225 259.438 222.043C260.021 221.86 260.842 222.113 260.217 223.243C259.415 224.587 258.473 225.843 257.409 226.992C256.181 228.396 255.9 228.634 255.802 229.322C255.704 230.01 256.237 232.881 256.125 234.187C255.991 235.732 255.423 236.012 254.545 237.395C253.843 238.533 251.737 243.264 251.737 243.264C247.336 241.86 245.833 239.55 246.121 236.757C246.121 236.757 247.624 234.103 247.82 232.081C248.073 229.428 247.652 226.669 247.666 225.44C247.678 224.501 247.929 223.581 248.396 222.766Z" fill="#C8856A"/>
<path d="M247.806 232.074C247.881 229.986 247.801 227.896 247.567 225.819C247.53 225.288 247.57 224.753 247.687 224.233C247.846 223.728 248.041 223.236 248.269 222.759C248.669 221.79 249.147 220.856 249.631 219.951C249.891 219.487 250.123 219.031 250.417 218.547C250.739 218.126 251.101 217.738 251.499 217.388C252.278 216.686 253.113 216.055 253.871 215.339C254.068 215.17 254.264 214.995 254.475 214.826C254.679 214.649 254.918 214.518 255.177 214.44C255.254 214.429 255.332 214.439 255.403 214.469C255.475 214.498 255.537 214.547 255.584 214.608C255.672 214.713 255.749 214.826 255.816 214.945C255.944 215.189 255.998 215.465 255.97 215.739C255.935 216.005 255.833 216.258 255.675 216.476C255.528 216.7 255.381 216.911 255.219 217.122C254.91 217.543 254.594 217.957 254.264 218.364C254.58 217.943 254.882 217.522 255.177 217.086C255.519 216.697 255.76 216.229 255.879 215.725C255.894 215.481 255.84 215.238 255.725 215.023C255.591 214.826 255.437 214.552 255.219 214.601C254.982 214.678 254.764 214.805 254.58 214.973C254.384 215.135 254.187 215.31 253.998 215.493C252.502 216.946 250.6 218.041 249.842 220.049C249.35 220.969 248.873 221.895 248.438 222.857C248.209 223.322 248.015 223.803 247.855 224.296C247.74 224.798 247.695 225.313 247.722 225.826C247.764 226.865 247.862 227.932 247.89 228.957C247.932 229.997 247.904 231.038 247.806 232.074Z" fill="#874C4C"/>
<path d="M254.3 218.371C253.906 218.75 253.478 219.073 253.113 219.466C252.75 219.857 252.424 220.28 252.137 220.73C251.821 221.172 251.506 221.607 251.176 222.036C251.01 222.256 250.827 222.463 250.628 222.653C250.419 222.839 250.156 222.953 249.877 222.976C250.425 222.836 250.698 222.351 251 221.902C251.302 221.453 251.597 221.004 251.906 220.561C252.201 220.099 252.555 219.677 252.959 219.305C253.378 218.956 253.827 218.644 254.3 218.371Z" fill="#AF6152"/>
<path d="M255.528 220.842C255.184 221.179 254.791 221.474 254.433 221.79C254.254 221.933 254.092 222.096 253.948 222.274C253.822 222.464 253.689 222.674 253.562 222.878C253.303 223.285 253.043 223.692 252.762 224.085C252.497 224.491 252.199 224.873 251.871 225.23C252.116 224.815 252.334 224.387 252.573 223.966C252.811 223.545 253.064 223.138 253.317 222.724C253.45 222.52 253.569 222.323 253.724 222.113C253.891 221.923 254.082 221.755 254.292 221.614C254.665 221.334 255.079 221.088 255.528 220.842Z" fill="#AF6152"/>
<path opacity="0.5" d="M256.265 223.84L256.483 223.587C255.69 224.267 254.973 225.03 254.342 225.862C254.019 226.332 254.005 226.564 254.138 226.641C254.271 226.718 254.714 226.248 254.714 226.248L255.268 225.742C254.959 225.518 255.654 224.591 256.265 223.84Z" fill="#AF6152"/>
<path d="M255.268 225.735C254.959 226.079 254.651 226.437 254.356 226.767C254.201 226.936 254.054 227.118 253.92 227.294C253.787 227.469 253.654 227.666 253.499 227.841C253.583 227.63 253.689 227.42 253.794 227.209C253.921 227.012 254.062 226.825 254.215 226.648C254.512 226.286 254.868 225.977 255.268 225.735Z" fill="#AF6152"/>
<path d="M254.503 220.646C254.484 220.59 254.46 220.536 254.433 220.484C254.433 220.435 254.363 220.393 254.328 220.344C254.242 220.238 254.143 220.144 254.033 220.063C253.916 219.976 253.789 219.906 253.654 219.852C253.598 219.828 253.539 219.812 253.478 219.803C253.422 219.803 253.373 219.803 253.373 219.873C253.376 219.901 253.387 219.928 253.404 219.95C253.422 219.973 253.445 219.99 253.471 220H253.527L253.619 220.049L253.731 220.112C253.808 220.165 253.881 220.223 253.949 220.288C253.981 220.316 254.011 220.347 254.04 220.379L254.082 220.428C254.142 220.521 254.21 220.607 254.285 220.688L254.335 220.751C254.384 220.828 254.503 220.821 254.489 220.709C254.495 220.688 254.5 220.667 254.503 220.646Z" fill="#AF6152"/>
<path d="M253.745 220.681C253.745 220.681 253.703 220.639 253.682 220.618L253.64 220.575H253.591L253.492 220.491L253.31 220.302C253.31 220.302 253.247 220.246 253.211 220.302C253.198 220.319 253.191 220.34 253.191 220.361C253.191 220.383 253.198 220.404 253.211 220.421C253.269 220.504 253.335 220.582 253.408 220.653L253.541 220.765C253.569 220.79 253.6 220.811 253.633 220.828C253.633 220.828 253.682 220.863 253.703 220.828C253.724 220.793 253.766 220.723 253.745 220.681Z" fill="#AF6152"/>
<path d="M251.723 219.115C251.73 219.092 251.73 219.068 251.723 219.045C251.706 218.997 251.677 218.953 251.639 218.919C251.6 218.878 251.558 218.84 251.513 218.806C251.437 218.748 251.354 218.699 251.267 218.659C251.172 218.61 251.07 218.576 250.965 218.561C250.916 218.55 250.866 218.55 250.818 218.561C250.775 218.561 250.768 218.624 250.775 218.666C250.783 218.695 250.799 218.72 250.822 218.739C250.844 218.758 250.872 218.769 250.902 218.771L251.021 218.806L251.126 218.841L251.246 218.905L251.295 218.94L251.393 219.017L251.435 219.059L251.506 219.122C251.506 219.122 251.555 219.164 251.576 219.178L251.639 219.214C251.647 219.22 251.657 219.224 251.667 219.224C251.677 219.224 251.687 219.22 251.695 219.214V219.171L251.723 219.115Z" fill="#AF6152"/>
<path d="M251.316 219.396C251.316 219.354 251.232 219.326 251.197 219.312H251.126L251.021 219.277L250.923 219.242H250.881H250.811H250.761C250.754 219.242 250.747 219.245 250.741 219.248C250.735 219.252 250.729 219.257 250.725 219.263C250.721 219.269 250.719 219.276 250.718 219.283C250.717 219.291 250.717 219.298 250.719 219.305C250.719 219.322 250.722 219.34 250.73 219.355C250.737 219.371 250.748 219.385 250.761 219.396C250.85 219.447 250.944 219.487 251.042 219.515L251.148 219.551H251.197H251.316C251.322 219.535 251.322 219.517 251.316 219.501C251.323 219.485 251.327 219.467 251.327 219.449C251.327 219.431 251.323 219.413 251.316 219.396Z" fill="#AF6152"/>
<path d="M255.324 222.759C255.133 222.673 254.953 222.562 254.791 222.429C254.615 222.281 254.503 222.092 254.335 221.937C254.335 221.937 254.271 221.937 254.271 221.972C254.27 222.045 254.284 222.118 254.311 222.186C254.339 222.253 254.381 222.315 254.433 222.365C254.509 222.464 254.596 222.554 254.693 222.632C254.871 222.797 255.088 222.913 255.324 222.969C255.336 222.973 255.349 222.973 255.361 222.971C255.372 222.968 255.384 222.963 255.393 222.956C255.403 222.948 255.411 222.938 255.416 222.927C255.421 222.916 255.423 222.904 255.423 222.892C255.422 222.862 255.412 222.834 255.394 222.81C255.377 222.786 255.352 222.768 255.324 222.759Z" fill="#AF6152"/>
<path d="M254.566 223.06L254.496 223.011L254.328 222.864C254.25 222.794 254.166 222.723 254.096 222.646C254.026 222.569 254.005 222.59 253.977 222.646C253.949 222.702 253.977 222.752 253.977 222.787C254.06 222.89 254.149 222.988 254.243 223.082L254.37 223.194L254.44 223.25L254.489 223.292C254.525 223.309 254.563 223.323 254.601 223.334C254.665 223.334 254.679 223.278 254.665 223.236C254.654 223.168 254.619 223.105 254.566 223.06Z" fill="#AF6152"/>
<path d="M256.721 226.346C256.651 226.247 256.568 226.158 256.476 226.079C256.379 225.988 256.27 225.91 256.153 225.847C256.099 225.82 256.043 225.799 255.984 225.784C255.893 225.784 255.886 225.883 255.984 225.932C256.031 225.971 256.08 226.006 256.132 226.037C256.175 226.063 256.218 226.091 256.258 226.121L256.307 226.163L256.406 226.255L256.448 226.304L256.525 226.409C256.577 226.501 256.638 226.588 256.707 226.669C256.707 226.669 256.82 226.732 256.834 226.669C256.848 226.606 256.799 226.451 256.721 226.346Z" fill="#AF6152"/>
<path d="M256.293 226.599C256.267 226.551 256.228 226.512 256.181 226.486L256.132 226.451L256.012 226.374L255.795 226.241H255.732C255.723 226.243 255.714 226.248 255.707 226.254C255.7 226.26 255.694 226.267 255.689 226.276C255.683 226.301 255.684 226.328 255.693 226.353C255.701 226.378 255.717 226.4 255.739 226.416L255.963 226.563L256.076 226.634L256.125 226.669L256.195 226.704H256.251C256.3 226.704 256.307 226.634 256.293 226.599Z" fill="#AF6152"/>
<path d="M246.304 236.146L234.187 252.72C233.141 254.159 230.031 258.336 230.109 264.212C230.158 267.897 230.874 272.341 236.672 270.656C240.926 269.421 242.681 267.848 245.216 263.327C246.732 260.618 248.634 254.994 249.779 251.681C251.758 245.932 252.881 242.169 252.881 242.169C251.119 242.541 246.585 239.017 246.304 236.146Z" fill="#9269AD"/>
<path d="M246.816 212.594C246.746 213.108 246.884 213.63 247.199 214.043C247.513 214.457 247.979 214.728 248.494 214.798C249.009 214.868 249.53 214.73 249.944 214.416C250.357 214.101 250.628 213.635 250.698 213.12L246.816 212.594Z" fill="#874C4C"/>
<path d="M248.508 214.812C248.928 214.867 249.354 214.783 249.722 214.573C249.4 214.127 248.967 213.774 248.466 213.547C247.965 213.32 247.413 213.229 246.865 213.282C246.947 213.675 247.149 214.034 247.444 214.308C247.738 214.582 248.11 214.758 248.508 214.812Z" fill="#F28F8F"/>
<path d="M332.748 334.25C332.696 334.873 332.425 335.458 331.983 335.9C330.889 336.886 329.51 337.498 328.045 337.648C326.676 337.912 325.275 337.972 323.889 337.823C322.497 337.673 321.172 337.146 320.056 336.3C319.229 335.57 318.474 334.761 317.802 333.885C317.266 333.216 316.629 332.633 315.914 332.158C315.582 331.987 315.24 331.837 314.889 331.709C314.489 331.512 314.096 331.302 313.689 331.119C312.671 330.656 311.141 330.059 310.488 329.147C309.715 328.087 309.905 327.125 309.786 325.314C309.442 324.163 309.231 323.208 309.231 323.208C307.441 321.053 302.337 315.591 300.582 313.703L309.863 305.932C313.008 311.225 314.861 314.889 317.409 318.729C318.898 320.968 319.761 322.127 320.547 323.201C321.634 324.652 322.846 326.005 324.17 327.244C324.91 327.979 325.711 328.651 326.563 329.252C327.195 329.71 327.856 330.125 328.543 330.495C329.68 331.14 330.01 331.161 331.07 331.772C331.543 332.001 331.947 332.351 332.241 332.786C332.536 333.221 332.711 333.726 332.748 334.25Z" fill="#C8856A"/>
<path d="M309.196 330.495C309.24 330.932 309.356 331.359 309.54 331.758C310.242 332.959 313.05 333.794 314.103 334.159C315.566 334.621 316.797 335.626 317.543 336.967C318.963 338.97 321.048 340.405 323.426 341.018C326.64 341.921 330.053 341.825 333.211 340.744C337.157 339.487 337.171 337.058 337.171 337.058C337.171 337.058 337.086 334.791 336.033 334.566C334.98 334.342 309.196 330.495 309.196 330.495Z" fill="#263238"/>
<path d="M309.21 323.215C308.761 323.299 308.817 323.594 308.803 323.875C308.929 324.719 308.929 325.578 308.803 326.423C308.499 327.786 308.631 329.211 309.182 330.495C310.586 332.558 315.345 332.825 317.262 334.868C319.178 336.911 321.06 339.515 326.486 339.873C331.913 340.231 335.71 338.013 336.49 336.363C337.269 334.714 336.188 333.422 332.558 332.039C328.704 330.572 323.201 325.412 323.201 325.405C323.067 325.293 322.948 325.166 322.829 325.047C322.225 324.443 320.877 323.243 320.688 322.33C320.652 321.995 320.584 321.663 320.484 321.341C320.406 321.208 320.297 321.096 320.166 321.014C320.035 320.932 319.887 320.883 319.733 320.87C318.225 320.937 316.756 321.368 315.451 322.127C314.815 322.435 314.251 322.872 313.794 323.411L313.696 323.545C313.487 323.822 313.373 324.159 313.373 324.507C313.488 325.063 313.728 325.586 314.075 326.037C313.579 325.845 313.137 325.534 312.79 325.131C312.589 324.866 312.323 324.655 312.018 324.521C311.035 324.261 310.01 324.275 309.68 323.945C309.476 323.736 309.316 323.487 309.21 323.215Z" fill="#37474F"/>
<path d="M322.92 339.066C322.826 337.833 323.07 336.599 323.627 335.495C324.184 334.391 325.032 333.461 326.079 332.804C329.8 330.242 332.397 331.232 333.731 331.955C335.324 332.804 337.69 334.714 336.637 336.469C335.5 338.364 333.422 339.466 329.357 340.049C325.293 340.631 322.92 339.066 322.92 339.066Z" fill="#FAFAFA"/>
<path d="M315.809 327.413C315.88 327.403 315.948 327.377 316.007 327.335C316.066 327.294 316.113 327.238 316.146 327.174C316.518 326.472 319.024 323.748 321.93 324.156C322.029 323.812 321.656 323.552 321.291 323.454C318.224 323.222 315.774 325.967 315.324 326.802C315.297 326.854 315.281 326.911 315.277 326.969C315.272 327.027 315.28 327.086 315.299 327.141C315.318 327.196 315.348 327.247 315.387 327.29C315.427 327.333 315.475 327.368 315.528 327.392C315.618 327.426 315.715 327.433 315.809 327.413Z" fill="#FAFAFA"/>
<path d="M323.903 326.051C323.987 325.791 323.411 325.349 323.103 325.349C320.098 325.349 317.887 327.932 317.487 328.733C317.459 328.784 317.443 328.841 317.439 328.899C317.434 328.958 317.442 329.016 317.461 329.071C317.48 329.127 317.51 329.177 317.55 329.221C317.589 329.264 317.637 329.298 317.69 329.322C317.777 329.367 317.875 329.382 317.971 329.364C318.042 329.354 318.109 329.327 318.168 329.285C318.227 329.244 318.274 329.189 318.308 329.126C318.645 328.424 321.102 325.826 323.903 326.051Z" fill="#FAFAFA"/>
<path d="M328.901 330.01C328.978 329.807 328.445 329.449 327.806 329.238C324.717 328.859 322.19 331.709 321.727 332.53C321.698 332.582 321.681 332.639 321.675 332.698C321.67 332.756 321.676 332.816 321.695 332.872C321.713 332.928 321.743 332.979 321.782 333.023C321.822 333.067 321.87 333.103 321.923 333.127C322.013 333.169 322.113 333.183 322.211 333.169C322.282 333.159 322.35 333.132 322.408 333.09C322.467 333.049 322.515 332.994 322.548 332.931C322.92 332.2 325.805 329.189 328.901 330.01Z" fill="#FAFAFA"/>
<path d="M320.112 331.246C320.182 331.235 320.249 331.209 320.308 331.169C320.366 331.129 320.414 331.076 320.449 331.014C320.814 330.312 323.355 327.644 326.22 327.981C326.29 327.701 325.77 327.329 325.314 327.279C322.246 327.279 320.056 329.849 319.628 330.649C319.6 330.701 319.583 330.758 319.578 330.816C319.573 330.875 319.58 330.934 319.599 330.989C319.617 331.045 319.647 331.096 319.685 331.141C319.724 331.185 319.771 331.22 319.824 331.246C319.918 331.277 320.019 331.277 320.112 331.246Z" fill="#FAFAFA"/>
<path d="M240.358 272.13C242.717 285.012 248.508 290.628 259.129 294.292C270.993 298.385 289.006 301.586 289.006 301.586C290.239 303.966 291.796 306.163 293.633 308.115C299.431 314.187 300.266 315.837 301.305 316.539C302.344 317.241 303.152 317.458 303.629 317.241L302.73 316.384C302.66 313.857 309.793 308.262 311.856 309.133L312.594 310.361C312.757 310.073 312.835 309.744 312.818 309.413C312.8 309.082 312.688 308.763 312.495 308.494C311.793 307.139 307.715 300.688 300.884 290.109C299.08 287.301 298.238 286.416 290.993 280.983C282.239 274.405 267.652 265.503 267.652 265.503L240.358 272.13Z" fill="#455A64"/>
<path d="M282.85 300.386C283.011 297.185 283.945 283.573 283.945 276.033C280.639 273.787 277.536 271.772 274.658 269.94L259.515 273.78L249.154 288.894C252.114 291.293 255.497 293.114 259.129 294.264C266.613 296.876 276.532 299.094 282.85 300.386Z" fill="#37474F"/>
<path d="M302.731 316.427C302.415 313.134 308.431 308.066 311.857 309.175L314.04 313.001C314.04 313.001 312.067 312.888 309.463 314.707C307.812 315.942 306.586 317.659 305.953 319.621L302.731 316.427Z" fill="#263238"/>
<path opacity="0.2" d="M289.006 301.586C288.445 299.968 288.116 298.278 288.031 296.567C287.77 298.165 287.751 299.793 287.974 301.397L289.006 301.586Z" fill="black"/>
<path d="M292.734 320.561C292.585 321.169 292.214 321.7 291.695 322.05C290.453 322.842 288.988 323.212 287.518 323.103C286.125 323.131 284.736 322.949 283.397 322.562C282.054 322.175 280.841 321.43 279.887 320.407C279.197 319.546 278.593 318.62 278.083 317.641C277.667 316.888 277.136 316.204 276.511 315.612C276.215 315.387 275.906 315.181 275.584 314.994C275.219 314.735 274.882 314.461 274.503 314.208C273.441 313.535 272.493 312.696 271.695 311.723C270.579 310.116 271.204 308.494 271.316 306.683C271.316 306.24 271.379 305.798 271.414 305.356L271.351 304.654C271.014 300.091 268.782 290.417 268.283 287.806L282.057 287.244C281.755 294.882 281.411 299.88 281.305 302.808C281.178 304.349 281.357 305.899 281.832 307.371C282.275 308.934 283.035 310.389 284.064 311.646C284.912 312.707 285.829 313.71 286.809 314.65C287.285 315.075 287.799 315.453 288.347 315.781C289.448 316.408 290.512 317.1 291.534 317.852C291.953 318.159 292.284 318.571 292.495 319.046C292.706 319.522 292.788 320.044 292.734 320.561Z" fill="#C8856A"/>
<path d="M270.179 312.825C270.147 313.265 270.189 313.706 270.305 314.131C270.789 315.437 273.401 316.742 274.384 317.276C275.747 317.98 276.788 319.182 277.29 320.632C278.217 322.85 280.154 324.493 282.394 325.637C285.406 327.076 288.784 327.566 292.081 327.041C296.188 326.479 296.616 324.092 296.616 324.092C296.616 324.092 296.918 321.839 295.914 321.446C294.91 321.053 270.179 312.825 270.179 312.825Z" fill="#263238"/>
<path d="M271.316 304.605C270.86 304.605 270.719 305.026 270.733 305.496C270.847 306.581 270.738 307.678 270.41 308.719C270.123 309.87 269.708 311.365 270.179 312.825C271.225 315.1 275.844 316.181 277.388 318.518C278.933 320.856 280.33 323.755 285.623 325.033C290.916 326.311 295.03 324.78 296.076 323.299C297.122 321.818 296.279 320.358 292.938 318.385C289.393 316.279 284.858 310.249 284.858 310.242C284.747 310.11 284.644 309.972 284.549 309.828C284.064 309.126 282.934 307.722 282.913 306.781C282.933 306.446 282.921 306.11 282.878 305.777C282.825 305.632 282.737 305.501 282.622 305.397C282.507 305.293 282.368 305.219 282.218 305.181C280.722 304.987 279.202 305.16 277.788 305.686C277.104 305.873 276.468 306.203 275.921 306.655L275.802 306.767C275.548 307.004 275.378 307.317 275.317 307.659C275.339 308.226 275.485 308.782 275.746 309.287C275.287 309.016 274.905 308.631 274.636 308.171C274.494 307.902 274.365 307.625 274.25 307.343C273.548 305.665 271.695 306.03 271.365 305.152L271.316 304.605Z" fill="#37474F"/>
<path d="M282.204 323.622C282.327 322.391 282.784 321.217 283.527 320.227C284.269 319.237 285.268 318.469 286.416 318.006C290.523 316.111 292.917 317.536 294.138 318.476C295.542 319.586 297.564 321.874 296.244 323.425C294.798 325.096 292.566 325.826 288.459 325.7C284.352 325.574 282.204 323.622 282.204 323.622Z" fill="#FAFAFA"/>
<path d="M277.22 310.923C277.292 310.925 277.364 310.911 277.43 310.88C277.496 310.85 277.554 310.804 277.599 310.747C278.076 310.13 281.018 307.862 283.805 308.768C283.966 308.445 283.643 308.122 283.299 307.939C280.316 307.188 277.437 309.47 276.855 310.214C276.818 310.26 276.792 310.312 276.777 310.369C276.762 310.426 276.758 310.485 276.767 310.542C276.775 310.6 276.796 310.656 276.826 310.706C276.857 310.755 276.898 310.798 276.946 310.832C277.025 310.891 277.121 310.923 277.22 310.923Z" fill="#FAFAFA"/>
<path d="M285.426 310.986C285.553 310.754 285.061 310.235 284.759 310.13C281.804 309.631 279.185 311.779 278.624 312.495C278.589 312.542 278.563 312.595 278.549 312.652C278.535 312.709 278.533 312.767 278.542 312.825C278.551 312.883 278.572 312.938 278.603 312.987C278.634 313.037 278.674 313.08 278.722 313.113C278.803 313.168 278.898 313.198 278.996 313.197C279.067 313.2 279.139 313.186 279.204 313.155C279.268 313.125 279.325 313.079 279.368 313.022C279.838 312.39 282.709 310.284 285.426 310.986Z" fill="#FAFAFA"/>
<path d="M289.673 315.724C289.786 315.542 289.315 315.093 288.733 314.777C285.749 313.871 282.745 316.251 282.169 316.981C282.134 317.028 282.109 317.081 282.095 317.138C282.081 317.194 282.078 317.253 282.087 317.311C282.096 317.368 282.117 317.424 282.148 317.473C282.179 317.523 282.219 317.565 282.267 317.599C282.346 317.659 282.442 317.691 282.541 317.69C282.612 317.691 282.683 317.676 282.748 317.646C282.812 317.615 282.869 317.57 282.913 317.515C283.426 316.862 286.76 314.384 289.673 315.724Z" fill="#FAFAFA"/>
<path d="M280.8 315.437C280.872 315.438 280.944 315.422 281.01 315.392C281.075 315.362 281.133 315.317 281.179 315.261C281.657 314.65 284.619 312.453 287.385 313.26C287.497 313.001 287.048 312.559 286.613 312.383C283.594 311.864 280.997 314.012 280.435 314.728C280.399 314.774 280.372 314.826 280.357 314.883C280.342 314.939 280.338 314.998 280.347 315.056C280.355 315.114 280.376 315.17 280.407 315.219C280.438 315.269 280.478 315.312 280.526 315.345C280.605 315.405 280.701 315.437 280.8 315.437Z" fill="#FAFAFA"/>
<path d="M268.929 291.211L270.017 296.567C270.017 296.567 271.899 297.894 276.216 297.634C280.533 297.374 281.741 295.893 281.741 295.893L282.141 289.926L268.929 291.211Z" fill="#263238"/>
<path d="M229.589 289.091C234.391 298.834 246.5 300.505 254.159 297.241C267.687 291.456 280.625 259.677 279.965 252.067C279.305 244.457 271.541 242.043 257.971 252.769C250.677 258.533 246.002 263.959 240.386 272.123C238.111 272.888 230.277 277.037 228.01 282.232C228.115 284.595 228.65 286.919 229.589 289.091Z" fill="#455A64"/>
<path d="M240.358 272.13L238.252 272.945C235.36 276.321 234.103 280 235.549 286.135C235.388 283.25 236.469 275.486 240.358 272.13Z" fill="#37474F"/>
<path d="M275.886 245.946C279.852 247.455 283.741 251.393 283.348 265.819C283.068 276.188 282.78 285.805 282.569 289.687C282.513 290.825 281.902 291.618 280.463 292.172C277.209 293.337 273.676 293.476 270.34 292.573C269.845 292.438 269.396 292.171 269.042 291.8C268.688 291.429 268.443 290.967 268.333 290.467C267.813 288.15 267.027 283.489 266.318 278.266C265.195 269.989 264.549 262.653 266.648 256.757C269.091 249.968 275.886 245.946 275.886 245.946Z" fill="#455A64"/>
<path d="M266.17 265.868C265.293 269.315 264.57 269.091 264.97 278.006C265.131 281.572 265.461 285.026 265.51 286.767C266.079 285.981 266.676 285.11 267.223 284.282C266.599 280.533 265.089 270.333 266.17 265.868Z" fill="#37474F"/>
</svg>
