<svg width="21" height="26" viewBox="0 0 21 26" fill="none" xmlns="http://www.w3.org/2000/svg">
<path d="M19.6031 20.192C19.091 19.7798 18.6953 19.241 18.4551 18.629C17.577 16.3517 17.1688 13.9203 17.2551 11.481C17.2551 11.472 17.2551 11.463 17.2551 11.454C17.249 10.1316 16.863 8.83876 16.143 7.72946C15.423 6.62017 14.3994 5.74116 13.1941 5.19705V3.55106C13.1938 2.83422 12.9096 2.14667 12.4035 1.63895C11.8975 1.13123 11.2109 0.844686 10.4941 0.842041H10.2701C9.55329 0.844686 8.86667 1.13123 8.36063 1.63895C7.8546 2.14667 7.57037 2.83422 7.57011 3.55106V5.19705C6.36025 5.74298 5.33355 6.62626 4.61307 7.74103C3.8926 8.85579 3.50893 10.1547 3.50809 11.4821C3.5944 13.9213 3.1862 16.3527 2.30808 18.63C2.06789 19.242 1.67218 19.7808 1.16007 20.1931C1.01579 20.2607 0.89927 20.376 0.830055 20.5195C0.76084 20.663 0.743156 20.826 0.780067 20.981C0.818191 21.1411 0.909707 21.2835 1.03947 21.3847C1.16923 21.486 1.32956 21.54 1.49412 21.5381H6.71513C6.73101 22.5002 7.12434 23.4176 7.8104 24.0925C8.49646 24.7673 9.42028 25.1455 10.3826 25.1455C11.3449 25.1455 12.2687 24.7673 12.9547 24.0925C13.6408 23.4176 14.0342 22.5002 14.0501 21.5381H19.2711C19.4357 21.54 19.596 21.486 19.7257 21.3847C19.8555 21.2835 19.947 21.1411 19.9851 20.981C20.022 20.826 20.0044 20.663 19.9352 20.5195C19.8659 20.376 19.7494 20.2607 19.6051 20.1931L19.6031 20.192ZM8.98508 3.55106C8.98508 3.21139 9.11991 2.8856 9.3599 2.64523C9.59989 2.40487 9.92545 2.26957 10.2651 2.26904H10.4891C10.8288 2.26957 11.1543 2.40487 11.3943 2.64523C11.6343 2.8856 11.7691 3.21139 11.7691 3.55106V4.73404C10.851 4.54502 9.90416 4.54502 8.98612 4.73404L8.98508 3.55106ZM10.3771 23.731C9.79101 23.7299 9.22853 23.4999 8.80955 23.0901C8.39056 22.6803 8.14815 22.123 8.13407 21.537H12.6191C12.605 22.123 12.3626 22.6803 11.9436 23.0901C11.5247 23.4999 10.9622 23.7299 10.3761 23.731H10.3771ZM13.2461 20.11H3.11509C3.25033 19.8981 3.37481 19.6795 3.48807 19.455C4.56621 16.9409 5.05832 14.2145 4.9271 11.4821C4.9271 10.0358 5.50163 8.64883 6.52427 7.62619C7.5469 6.60355 8.93388 6.02905 10.3801 6.02905C11.8263 6.02905 13.2133 6.60355 14.2359 7.62619C15.2586 8.64883 15.8331 10.0358 15.8331 11.4821C15.8331 11.4911 15.8331 11.5 15.8331 11.508C15.7051 14.2308 16.1971 16.9471 17.2721 19.452C17.3853 19.6765 17.5099 19.8951 17.6451 20.1071L13.2461 20.11Z" fill="#06103B"/>
</svg>
