<svg width="67" height="59" viewBox="0 0 67 59" fill="none" xmlns="http://www.w3.org/2000/svg">
<path d="M25.8541 0.258747C25.3236 0.582245 25.0389 1.13867 25.0389 1.83743C25.0389 2.14799 25.1812 3.32553 25.3495 4.47719C25.8153 7.55691 25.9965 10.8695 25.9059 15.2044C25.8024 20.6522 25.3106 24.5342 24.1978 28.9208C23.4085 32.0653 22.645 34.0839 21.0275 37.3448L19.6041 40.2175L17.6243 40.8645C10.0932 43.3619 3.72672 47.1274 1.28106 50.5436C0.29762 51.9152 0.01294 52.6916 0 53.9597C0 54.9044 0.05176 55.1632 0.36232 55.7972C1.00932 57.13 2.5233 58.3464 4.06316 58.7993C4.95602 59.0581 6.50882 59.071 7.5052 58.8122C11.4519 57.79 16.0197 53.0798 20.8075 45.0958C21.8557 43.3489 21.9074 43.2842 22.4638 43.116C23.7708 42.7408 27.0317 42.1585 29.9173 41.7961C31.6124 41.5762 33.644 41.3174 34.4204 41.2009C35.2227 41.0974 37.2672 40.968 39.0788 40.9292L42.3138 40.8515L42.8832 41.4856C43.2067 41.835 44.2807 42.896 45.2771 43.8536C53.8563 52.0058 60.7145 54.3609 64.5188 50.453C64.9459 50.026 65.4376 49.3402 65.6834 48.8226C66.0716 48.0591 66.1234 47.8132 66.1234 46.9721C66.1234 46.1957 66.0587 45.8593 65.774 45.2511C65.347 44.3324 64.2212 43.129 63.0696 42.3655C59.5499 40.0234 52.5364 38.1212 45.3547 37.5389L43.8666 37.4224L42.7926 36.2708C37.4095 30.5901 33.5534 23.2661 30.9266 13.794C29.8655 9.95081 29.322 7.32399 28.9209 4.01134C28.5845 1.34571 28.4809 0.957508 27.9504 0.426968C27.5881 0.0646477 27.4328 -5.34058e-05 26.9023 -5.34058e-05C26.5011 -5.34058e-05 26.1129 0.0905266 25.8541 0.258747ZM30.0855 22.3861C32.13 27.5233 34.8086 32.2335 37.8107 35.9343C38.4059 36.6719 38.8847 37.2801 38.8847 37.306C38.8847 37.3318 38.1342 37.3965 37.2025 37.4354C36.2838 37.4871 34.6404 37.6424 33.5534 37.7847C32.4665 37.9271 30.616 38.16 29.4385 38.3023C28.261 38.4447 26.6305 38.6776 25.8024 38.8199C24.9742 38.9623 24.2625 39.0787 24.2107 39.0787C24.1719 39.0787 24.3531 38.6258 24.6378 38.0694C26.747 33.8769 28.2868 28.2868 29.0115 22.205C29.1279 21.1698 29.2444 20.3416 29.2573 20.3546C29.2832 20.3675 29.6455 21.2862 30.0855 22.3861ZM52.3682 42.1067C57.6477 43.2454 61.6979 45.057 62.5131 46.6098C62.6814 46.9204 62.6814 47.0239 62.5131 47.3215C61.2838 49.6895 57.7383 49.1072 53.0799 45.7946C51.4624 44.6429 47.8133 41.5632 47.8133 41.3562C47.8133 41.2785 50.8801 41.7832 52.3682 42.1067ZM16.5632 45.2511C14.7128 48.1367 12.8753 50.4918 11.0119 52.3552C8.10044 55.2537 5.87476 56.1466 4.29608 55.0467C3.99846 54.8267 3.67496 54.5032 3.57144 54.3221C3.39028 54.0115 3.40322 53.9209 3.6879 53.2869C4.47724 51.5788 7.54402 49.1978 11.6201 47.1404C12.9918 46.4416 16.4338 44.9276 16.6797 44.9147C16.7314 44.9017 16.6797 45.057 16.5632 45.2511Z" fill="#4C4C4C"/>
</svg>
