<svg width="39" height="39" viewBox="0 0 39 39" fill="none" xmlns="http://www.w3.org/2000/svg">
<path opacity="0.61" d="M19.5 39C30.2696 39 39 30.2696 39 19.5C39 8.73045 30.2696 0 19.5 0C8.73045 0 0 8.73045 0 19.5C0 30.2696 8.73045 39 19.5 39Z" fill="black"/>
<path d="M26.6156 19.1478C26.7604 19.2375 26.8798 19.3627 26.9626 19.5114C27.0454 19.6602 27.0889 19.8276 27.0889 19.9978C27.0889 20.1681 27.0454 20.3355 26.9626 20.4843C26.8798 20.633 26.7604 20.7581 26.6156 20.8478L16.5237 27.0578C16.3724 27.1509 16.1991 27.202 16.0215 27.2059C15.844 27.2098 15.6686 27.1663 15.5134 27.08C15.3582 26.9936 15.2288 26.8675 15.1385 26.7146C15.0483 26.5616 15.0003 26.3874 14.9997 26.2098V13.7898C14.9996 13.6119 15.047 13.4372 15.137 13.2837C15.227 13.1302 15.3564 13.0035 15.5117 12.9167C15.667 12.8299 15.8426 12.7861 16.0205 12.7898C16.1984 12.7935 16.3721 12.8446 16.5237 12.9378L26.6156 19.1478Z" fill="white"/>
</svg>
