<svg width="11" height="15" viewBox="0 0 11 15" fill="none" xmlns="http://www.w3.org/2000/svg">
<path d="M2.05307 14.1004C1.64201 14.0992 1.24753 13.9382 0.953067 13.6514C0.80813 13.5096 0.693163 13.3402 0.615001 13.1531C0.536838 12.966 0.497072 12.7651 0.498065 12.5624V2.96239C0.498859 2.41558 0.716496 1.89142 1.10324 1.50486C1.48998 1.1183 2.01426 0.90092 2.56107 0.900391L8.43907 0.900391C8.98518 0.901977 9.50842 1.11983 9.89431 1.50627C10.2802 1.89271 10.4973 2.41628 10.4981 2.96239V10.0004C10.4922 10.1332 10.4353 10.2586 10.3393 10.3505C10.2433 10.4424 10.1155 10.4937 9.98256 10.4937C9.84964 10.4937 9.72185 10.4424 9.62582 10.3505C9.52978 10.2586 9.47292 10.1332 9.46707 10.0004V2.96239C9.4668 2.68903 9.35809 2.42695 9.1648 2.23366C8.97151 2.04036 8.70943 1.93166 8.43607 1.93139H2.56107C2.28771 1.93166 2.02562 2.04036 1.83233 2.23366C1.63904 2.42695 1.53033 2.68903 1.53007 2.96239V12.5624C1.52811 12.628 1.53971 12.6933 1.56414 12.7542C1.58858 12.8151 1.62532 12.8703 1.67206 12.9164C1.77679 13.0168 1.91697 13.0718 2.06206 13.0694C2.12784 13.0704 2.19311 13.0578 2.25384 13.0326C2.31456 13.0073 2.36944 12.9698 2.41506 12.9224L5.13107 10.1314C5.17914 10.0821 5.2366 10.0429 5.30006 10.0161C5.36352 9.98935 5.4317 9.97556 5.50057 9.97556C5.56944 9.97556 5.63761 9.98935 5.70107 10.0161C5.76453 10.0429 5.82199 10.0821 5.87007 10.1314L8.58606 12.9224C8.63112 12.9697 8.68548 13.0072 8.74571 13.0325C8.80594 13.0578 8.87075 13.0703 8.93607 13.0694C9.08138 13.07 9.22123 13.014 9.32607 12.9134C9.37367 12.8666 9.41111 12.8104 9.43606 12.7485C9.46101 12.6866 9.47292 12.6201 9.47106 12.5534C9.468 12.4838 9.47906 12.4143 9.50358 12.3491C9.5281 12.2838 9.56559 12.2243 9.61376 12.1739C9.66193 12.1236 9.71979 12.0835 9.78386 12.0562C9.84794 12.0288 9.91689 12.0147 9.98657 12.0147C10.0562 12.0147 10.1252 12.0288 10.1893 12.0562C10.2533 12.0835 10.3112 12.1236 10.3594 12.1739C10.4075 12.2243 10.445 12.2838 10.4695 12.3491C10.4941 12.4143 10.5051 12.4838 10.5021 12.5534C10.5035 12.7564 10.4644 12.9577 10.387 13.1454C10.3095 13.3331 10.1953 13.5035 10.0511 13.6464C9.74978 13.9406 9.34418 14.1035 8.92307 14.0994C8.72211 14.0989 8.52331 14.058 8.33847 13.9791C8.15363 13.9003 7.98653 13.7851 7.84706 13.6404L5.49806 11.2304L3.15206 13.6414C3.01284 13.7858 2.84605 13.9009 2.66158 13.9797C2.4771 14.0586 2.27868 14.0996 2.07807 14.1004H2.05307Z" fill="#06103B"/>
</svg>
