<svg width="15" height="15" viewBox="0 0 15 15" fill="none" xmlns="http://www.w3.org/2000/svg">
<path d="M11.3812 9.23586C10.9886 9.23586 10.6008 9.32252 10.2456 9.48968C9.89038 9.65684 9.57648 9.90034 9.32623 10.2028L6.13623 8.39184C6.3411 7.81482 6.3411 7.18486 6.13623 6.60784L9.32623 4.79586C9.75249 5.3089 10.3555 5.64364 11.0163 5.73416C11.6771 5.82467 12.3479 5.66437 12.8964 5.28484C13.4449 4.90532 13.8314 4.33413 13.9796 3.6838C14.1279 3.03347 14.0271 2.35119 13.6973 1.77145C13.3674 1.19171 12.8324 0.756567 12.1976 0.551752C11.5628 0.346936 10.8743 0.387313 10.2678 0.664941C9.66134 0.942569 9.18083 1.4373 8.92102 2.05163C8.66121 2.66596 8.64094 3.35531 8.8642 3.98385L5.67419 5.79586C5.32352 5.37278 4.85088 5.06814 4.32074 4.92352C3.7906 4.77889 3.22873 4.80131 2.71179 4.9877C2.19485 5.17408 1.748 5.51536 1.43213 5.96502C1.11626 6.41468 0.946777 6.95084 0.946777 7.50036C0.946777 8.04988 1.11626 8.58601 1.43213 9.03567C1.748 9.48533 2.19485 9.82664 2.71179 10.013C3.22873 10.1994 3.7906 10.2218 4.32074 10.0772C4.85088 9.93254 5.32352 9.62794 5.67419 9.20486L8.8642 11.0159C8.67483 11.5504 8.6605 12.1312 8.82324 12.6744C8.98599 13.2176 9.31734 13.6949 9.76941 14.0373C10.2215 14.3796 10.7708 14.5691 11.3378 14.5785C11.9047 14.5878 12.46 14.4165 12.9231 14.0893C13.3862 13.7621 13.7332 13.296 13.9138 12.7585C14.0943 12.221 14.0992 11.6399 13.9276 11.0995C13.756 10.559 13.4168 10.0872 12.9592 9.75234C12.5016 9.41748 11.9493 9.23691 11.3822 9.23684L11.3812 9.23586ZM11.3812 1.35485C11.7249 1.35465 12.0608 1.45639 12.3466 1.64718C12.6324 1.83797 12.8552 2.10922 12.9868 2.42666C13.1184 2.7441 13.1529 3.09344 13.0859 3.43047C13.0189 3.76751 12.8535 4.07711 12.6105 4.32009C12.3675 4.56308 12.0579 4.72854 11.7208 4.79553C11.3838 4.86252 11.0345 4.82803 10.717 4.69644C10.3996 4.56484 10.1283 4.34207 9.9375 4.05627C9.74671 3.77047 9.64501 3.43448 9.6452 3.09084C9.64573 2.63059 9.82879 2.18936 10.1542 1.86392C10.4797 1.53847 10.921 1.35538 11.3812 1.35485ZM3.6192 9.23586C3.27585 9.23586 2.94021 9.13405 2.65472 8.94329C2.36924 8.75254 2.14671 8.48139 2.01532 8.16418C1.88393 7.84697 1.84958 7.49794 1.91656 7.16119C1.98355 6.82444 2.14888 6.51509 2.39166 6.2723C2.63445 6.02952 2.94377 5.86419 3.28052 5.7972C3.61727 5.73022 3.96636 5.7646 4.28357 5.89599C4.60078 6.02738 4.87187 6.24991 5.06262 6.53539C5.25338 6.82088 5.35522 7.15649 5.35522 7.49984C5.35443 7.96001 5.17128 8.40113 4.84589 8.72653C4.52049 9.05192 4.07937 9.23507 3.6192 9.23586ZM11.3812 13.6439C11.0376 13.6441 10.7017 13.5424 10.4159 13.3516C10.1301 13.1609 9.90732 12.8896 9.7757 12.5723C9.64407 12.2549 9.60954 11.9056 9.67645 11.5686C9.74336 11.2316 9.90873 10.922 10.1516 10.679C10.3945 10.436 10.704 10.2704 11.041 10.2033C11.3779 10.1362 11.7272 10.1705 12.0447 10.302C12.3621 10.4334 12.6335 10.6561 12.8244 10.9417C13.0153 11.2274 13.1172 11.5633 13.1172 11.9069C13.1169 12.3673 12.934 12.8088 12.6085 13.1345C12.283 13.4601 11.8417 13.6433 11.3812 13.6439Z" fill="#06103B"/>
</svg>
