<svg width="337" height="337" viewBox="0 0 337 337" fill="none" xmlns="http://www.w3.org/2000/svg">
<path d="M278.942 167.152C217.547 131.706 118.334 131.706 57.3373 167.152C-3.65974 202.598 -3.32274 260.063 58.0584 295.509C119.44 330.954 218.666 330.961 279.663 295.509C340.66 260.056 340.37 202.591 278.942 167.152Z" fill="#F5F5F5"/>
<path d="M154.542 300.166L167.449 312.474L203.481 299.836L190.574 287.529L154.542 300.166Z" fill="#E0E0E0"/>
<path d="M90.0598 256.673L95.317 259.706L112.807 249.542L82.8817 232.261L65.3847 242.431L73.0615 246.86L60.9026 248.639L71.3698 272.33L95.4181 268.812L90.0598 256.673Z" fill="#E0E0E0"/>
<path d="M247.911 234.269L282.123 220.034L267.578 208.347L240.308 219.724L239.769 213.436L240.76 213.665L250.054 200.313L215.485 192.225L240.53 177.761L223.006 167.59L193.081 184.872L208.873 194.045L201.62 204.472L215.053 207.592L197.617 208.057L205.334 192.683L181.502 188.639L192.002 202.679L181.502 188.639L173.946 203.683L133.014 204.775L134.038 216.779L123.342 214.251L114.014 227.563L143.71 234.593L110.684 236.345L113.023 250.661L151.933 248.639L152.331 249.623L130.089 251.935L132.717 260.265L111.614 267.187L113.05 268.65L107.166 266.635L86.1575 287.798L107.725 294.99L123.43 279.151L132.535 288.425L152.587 281.847L150.915 283.532L172.483 290.723L187.19 275.895L189.212 277.061L216.846 261.094L237.497 253.802L222.838 239.944L223.188 240.079L237.046 228.176L220.87 221.827L236.143 221.416L233.406 222.555L247.911 234.269ZM111.641 281.732L108.197 270.22L111.641 281.732ZM193.573 216.139L197.165 208.987L197.934 218.019L194.671 220.823L186.307 214.905L193.573 216.139ZM176.372 218.012L175.961 213.139L183.955 214.487L161.228 225.271L162.454 223.519L143.003 218.915L176.372 218.012ZM173.002 266.102L172.955 265.927L173.002 266.102ZM176.689 263.972L171.87 262.368L161.827 272.478L157.622 259.16L193.243 254.388L176.689 263.972ZM147.775 274.905L160.81 273.557L153.591 280.836L147.775 274.905ZM176.399 277.439L173.569 268.003L176.399 277.439ZM196.774 252.38L191.706 239.85L154.454 244.831L153.146 236.817L156.368 232.22L168.163 240.618L193.64 228.554L209.816 234.903L194.2 240.416L207.72 253.222L201.533 249.63L196.774 252.38Z" fill="#E0E0E0"/>
<path d="M200.501 294.814L224.846 297.665L233.083 273.718L208.738 270.86L200.501 294.814Z" fill="#E0E0E0"/>
<path d="M231.283 245.39C243.415 238.387 263.001 238.387 275.046 245.39C287.09 252.393 287.023 263.736 274.904 270.732C262.786 277.728 243.186 277.735 231.141 270.732C219.097 263.729 219.164 252.386 231.283 245.39Z" fill="#E0E0E0"/>
<path d="M178.199 185.35L106.492 227.057C105.646 227.547 104.686 227.805 103.708 227.805C102.731 227.805 101.771 227.547 100.925 227.057L64.3265 205.921C64.1151 205.799 63.9395 205.624 63.8175 205.412C63.6954 205.201 63.6311 204.961 63.6311 204.718C63.6311 204.474 63.6954 204.234 63.8175 204.023C63.9395 203.812 64.1151 203.636 64.3265 203.514L136.033 161.828C136.879 161.338 137.839 161.08 138.817 161.08C139.794 161.08 140.755 161.338 141.601 161.828L178.199 182.964C178.405 183.087 178.577 183.262 178.695 183.471C178.814 183.68 178.877 183.917 178.877 184.157C178.877 184.398 178.814 184.634 178.695 184.843C178.577 185.052 178.405 185.227 178.199 185.35Z" fill="#E0E0E0"/>
<path d="M103.742 210.827L103.695 226.086L176.049 184.035L176.096 168.776L103.742 210.827Z" fill="#E6373C"/>
<path d="M91.2866 189.252L66.0521 174.694L65.9712 204.309L103.675 226.086L103.722 210.827L91.2866 189.252Z" fill="#E6373C"/>
<path opacity="0.3" d="M91.2866 189.252L66.0521 174.694L65.9712 204.309L103.675 226.086L103.722 210.827L91.2866 189.252Z" fill="black"/>
<path d="M103.742 210.827L176.096 168.776L163.647 147.208L91.2866 189.252L103.742 210.827Z" fill="#E6373C"/>
<path opacity="0.1" d="M103.742 210.827L176.096 168.776L163.647 147.208L91.2866 189.252L103.742 210.827Z" fill="black"/>
<g opacity="0.5">
<path opacity="0.5" d="M163.344 157.176L167.583 166.1C167.651 166.219 167.673 166.359 167.645 166.494C167.616 166.628 167.539 166.747 167.428 166.828L155.485 173.723C155.426 173.75 155.362 173.765 155.298 173.766C155.233 173.767 155.168 173.754 155.109 173.729C155.049 173.703 154.995 173.666 154.951 173.618C154.907 173.571 154.873 173.515 154.852 173.453L150.632 164.563C150.632 164.496 150.592 164.449 150.578 164.408C150.573 164.348 150.573 164.287 150.578 164.226C150.586 164.174 150.597 164.122 150.612 164.071C150.632 164.026 150.657 163.983 150.686 163.943C150.717 163.9 150.756 163.864 150.801 163.836L162.751 156.94C162.786 156.92 162.825 156.906 162.865 156.9C162.914 156.886 162.965 156.886 163.014 156.9C163.057 156.906 163.099 156.922 163.135 156.947C163.186 156.972 163.231 157.007 163.27 157.048C163.298 157.089 163.323 157.132 163.344 157.176ZM166.566 166.06L163.108 158.72L160.54 167.03C160.509 167.137 160.439 167.228 160.345 167.286C160.302 167.312 160.253 167.328 160.203 167.334C160.153 167.34 160.103 167.335 160.055 167.32L151.9 165.13L155.404 172.544L166.566 166.1V166.06ZM162.117 158.605L152.419 164.206L159.772 166.228L162.117 158.632" fill="white"/>
</g>
<path d="M163.641 147.208L138.426 132.65L66.0723 174.694L91.2866 189.252L163.641 147.208Z" fill="#E6373C"/>
<path opacity="0.2" d="M163.641 147.208L138.426 132.65L66.0723 174.694L91.2866 189.252L163.641 147.208Z" fill="black"/>
<path opacity="0.2" d="M138.426 132.65L66.0723 174.694L81.5001 183.604L153.854 141.553L138.426 132.65Z" fill="black"/>
<path d="M121.266 176.648L96.9751 190.769L105.259 205.125L129.556 191.005L121.266 176.648Z" fill="#455A64"/>
<g opacity="0.5">
<path opacity="0.5" d="M115.807 190.971L114.809 191.543L112.787 187.951L114.284 187.082L115.807 190.971Z" fill="white"/>
<path opacity="0.5" d="M115.537 191.725C115.64 191.666 115.754 191.63 115.871 191.621C115.989 191.611 116.108 191.627 116.218 191.668C116.329 191.709 116.43 191.774 116.512 191.859C116.595 191.943 116.658 192.045 116.697 192.157C116.826 192.381 116.863 192.646 116.802 192.897C116.74 193.148 116.584 193.366 116.366 193.505C116.261 193.563 116.145 193.597 116.026 193.605C115.906 193.614 115.786 193.596 115.674 193.554C115.562 193.512 115.46 193.446 115.376 193.36C115.292 193.275 115.227 193.173 115.187 193.06C115.058 192.836 115.023 192.571 115.089 192.321C115.154 192.071 115.315 191.857 115.537 191.725Z" fill="white"/>
<path opacity="0.5" d="M120.329 189.899C120.612 190.13 120.84 190.421 120.998 190.751C121.155 191.081 121.237 191.441 121.239 191.806C121.261 192.142 121.194 192.478 121.043 192.779C120.893 193.079 120.665 193.335 120.383 193.518L114.102 197.145C113.823 197.298 113.503 197.361 113.186 197.325C112.87 197.288 112.573 197.155 112.336 196.942C112.054 196.71 111.827 196.419 111.671 196.089C111.515 195.76 111.434 195.4 111.433 195.035L111.304 186.34C111.28 186.004 111.347 185.668 111.497 185.367C111.648 185.066 111.877 184.81 112.16 184.628C112.438 184.475 112.756 184.411 113.071 184.446C113.386 184.481 113.683 184.613 113.92 184.824L120.329 189.899ZM120.532 191.726C120.531 191.506 120.481 191.29 120.387 191.092C120.292 190.894 120.155 190.719 119.986 190.58L113.583 185.511C113.44 185.385 113.262 185.306 113.073 185.284C112.883 185.262 112.692 185.299 112.524 185.39C112.353 185.499 112.214 185.652 112.123 185.834C112.031 186.016 111.991 186.218 112.005 186.421L112.133 195.116C112.136 195.335 112.186 195.551 112.28 195.749C112.374 195.947 112.511 196.122 112.679 196.262C112.822 196.388 113 196.467 113.189 196.489C113.379 196.51 113.57 196.473 113.738 196.383L120.019 192.757C120.188 192.645 120.324 192.491 120.414 192.31C120.504 192.129 120.545 191.927 120.532 191.726Z" fill="white"/>
</g>
<path d="M131.437 189.906L123.153 175.557L121.266 176.649L129.556 191.005L131.437 189.906Z" fill="#E6373C"/>
<path opacity="0.3" d="M131.437 189.906L123.153 175.557L121.266 176.649L129.556 191.005L131.437 189.906Z" fill="black"/>
<path opacity="0.1" d="M105.259 205.125L129.556 191.005L128.788 189.724L106.546 202.651L98.9095 189.643L96.9751 190.769L105.259 205.125Z" fill="black"/>
<path d="M172.78 178.428L170.239 179.89L172.793 181.366L172.78 178.428Z" fill="#455A64"/>
<path d="M170.239 179.89L107.321 216.199L107.328 219.137L172.793 181.366L170.239 179.89Z" fill="#37474F"/>
<path d="M80.4486 69.2262C80.4486 69.3003 80.4486 69.3745 80.4958 69.4419C80.4958 69.5227 80.543 69.6104 80.57 69.6912C80.5951 69.7625 80.6243 69.8323 80.6576 69.9002L80.7856 70.1698L80.9002 70.3585C80.9631 70.4574 81.0305 70.5584 81.1024 70.6618L81.2237 70.8168L81.3383 70.9584L81.3922 71.019C81.4731 71.1066 81.5607 71.1875 81.6484 71.2751L81.7697 71.3897C81.8506 71.4639 81.9449 71.538 82.0393 71.6121L82.1943 71.7335L82.2886 71.8143L82.6054 72.0233C82.7133 72.0974 82.8211 72.1716 82.9424 72.239L91.0911 76.957L120.943 59.7228L112.794 55.0048C109.35 52.9828 103.756 52.9828 100.284 55.0048L83.0031 65.0541C81.1496 66.1258 80.3071 67.5547 80.4149 68.9566C80.4192 69.0472 80.4304 69.1373 80.4486 69.2262Z" fill="#455A64"/>
<path opacity="0.5" d="M80.4486 69.2262C80.4486 69.3003 80.4486 69.3745 80.4958 69.4419C80.4958 69.5227 80.543 69.6104 80.57 69.6912C80.5951 69.7625 80.6243 69.8323 80.6576 69.9002L80.7856 70.1698L80.9002 70.3585C80.9631 70.4574 81.0305 70.5584 81.1024 70.6618L81.2237 70.8168L81.3383 70.9584L81.3922 71.019C81.4731 71.1066 81.5607 71.1875 81.6484 71.2751L81.7697 71.3897C81.8506 71.4639 81.9449 71.538 82.0393 71.6121L82.1943 71.7335L82.2886 71.8143L82.6054 72.0233C82.7133 72.0974 82.8211 72.1716 82.9424 72.239L91.0911 76.957L120.943 59.7228L112.794 55.0048C109.35 52.9828 103.756 52.9828 100.284 55.0048L83.0031 65.0541C81.1496 66.1258 80.3071 67.5547 80.4149 68.9566C80.4192 69.0472 80.4304 69.1373 80.4486 69.2262Z" fill="white"/>
<path d="M82.9627 72.2996C82.8482 72.2322 82.7403 72.1581 82.6325 72.0839L82.3157 71.875L82.2213 71.7941L82.0731 71.6795C81.9787 71.6054 81.8843 71.5313 81.8035 71.4571L81.6821 71.3425C81.594 71.2645 81.5108 71.1813 81.4328 71.0932L81.3788 71.0325L81.2643 70.891L81.1497 70.7427C81.0733 70.6393 81.0059 70.5382 80.9475 70.4394C80.907 70.3787 80.8666 70.3181 80.8329 70.2574L80.7048 69.9878C80.7048 69.9204 80.6442 69.8597 80.6172 69.7923C80.6172 69.7115 80.57 69.6238 80.5431 69.543C80.5431 69.4756 80.5094 69.4082 80.4959 69.3408C80.4893 69.2533 80.4893 69.1654 80.4959 69.0779C80.4959 68.9903 80.4959 68.9094 80.4959 68.8218L80.5768 96.6984V96.7793C80.5735 96.8377 80.5735 96.8962 80.5768 96.9545C80.5702 97.0488 80.5702 97.1434 80.5768 97.2376V97.2848C80.5768 97.3455 80.6172 97.3994 80.6307 97.46C80.6442 97.5207 80.6779 97.642 80.7048 97.7296V97.7836C80.7268 97.8365 80.7515 97.8883 80.779 97.9386C80.8194 98.0329 80.8599 98.1273 80.907 98.2149V98.2823C80.907 98.3295 80.9677 98.3699 80.9947 98.4104C81.0216 98.4508 81.1295 98.6193 81.2036 98.7204C81.2262 98.7503 81.2465 98.7818 81.2643 98.8148L81.4395 99.017L81.5002 99.0844C81.5989 99.1966 81.7047 99.3024 81.8169 99.4012L81.8709 99.4483C81.9517 99.5225 82.0528 99.5966 82.1405 99.6708C82.2281 99.7449 82.3022 99.8056 82.3898 99.8662L82.7066 100.082L82.9358 100.23L83.0436 100.298L91.1923 105.016L91.1114 77.1457L82.9627 72.2996Z" fill="#37474F"/>
<path opacity="0.3" d="M82.9627 72.2996C82.8482 72.2322 82.7403 72.1581 82.6325 72.0839L82.3157 71.875L82.2213 71.7941L82.0731 71.6795C81.9787 71.6054 81.8843 71.5313 81.8035 71.4571L81.6821 71.3425C81.594 71.2645 81.5108 71.1813 81.4328 71.0932L81.3788 71.0325L81.2643 70.891L81.1497 70.7427C81.0733 70.6393 81.0059 70.5382 80.9475 70.4394C80.907 70.3787 80.8666 70.3181 80.8329 70.2574L80.7048 69.9878C80.7048 69.9204 80.6442 69.8597 80.6172 69.7923C80.6172 69.7115 80.57 69.6238 80.5431 69.543C80.5431 69.4756 80.5094 69.4082 80.4959 69.3408C80.4893 69.2533 80.4893 69.1654 80.4959 69.0779C80.4959 68.9903 80.4959 68.9094 80.4959 68.8218L80.5768 96.6984V96.7793C80.5735 96.8377 80.5735 96.8962 80.5768 96.9545C80.5702 97.0488 80.5702 97.1434 80.5768 97.2376V97.2848C80.5768 97.3455 80.6172 97.3994 80.6307 97.46C80.6442 97.5207 80.6779 97.642 80.7048 97.7296V97.7836C80.7268 97.8365 80.7515 97.8883 80.779 97.9386C80.8194 98.0329 80.8599 98.1273 80.907 98.2149V98.2823C80.907 98.3295 80.9677 98.3699 80.9947 98.4104C81.0216 98.4508 81.1295 98.6193 81.2036 98.7204C81.2262 98.7503 81.2465 98.7818 81.2643 98.8148L81.4395 99.017L81.5002 99.0844C81.5989 99.1966 81.7047 99.3024 81.8169 99.4012L81.8709 99.4483C81.9517 99.5225 82.0528 99.5966 82.1405 99.6708C82.2281 99.7449 82.3022 99.8056 82.3898 99.8662L82.7066 100.082L82.9358 100.23L83.0436 100.298L91.1923 105.016L91.1114 77.1457L82.9627 72.2996Z" fill="white"/>
<path d="M120.963 59.8037L91.1113 77.0379L91.1922 104.908L121.044 87.6803L120.963 59.8037Z" fill="#263238"/>
<path d="M58.8874 185.613L58.7054 103.991C58.7723 102.728 59.1368 101.497 59.7693 100.401C60.4018 99.3047 61.2843 98.3733 62.345 97.6828L163.782 39.2605C164.15 38.9941 164.582 38.829 165.033 38.7817C165.485 38.7344 165.942 38.8065 166.357 38.9909L162.535 36.7802C161.861 36.3555 160.924 36.3892 159.886 36.9958L58.4426 95.4249C57.3828 96.1148 56.5008 97.0451 55.8683 98.1401C55.2359 99.2352 54.8709 100.464 54.803 101.727L54.985 183.328C54.9403 183.76 55.0044 184.197 55.1716 184.599C55.3387 185 55.6036 185.353 55.942 185.626L56.1442 185.741L59.9119 187.938C59.5546 187.672 59.2724 187.318 59.0928 186.911C58.9133 186.503 58.8425 186.056 58.8874 185.613Z" fill="#E6373C"/>
<path opacity="0.3" d="M162.555 36.7802C161.881 36.3555 160.944 36.3892 159.907 36.9958L58.4426 95.4249C57.2445 96.1825 56.2807 97.2582 55.6589 98.532L59.5614 100.79C60.1832 99.5161 61.147 98.4403 62.345 97.6828L163.782 39.2605C164.15 38.9941 164.581 38.829 165.033 38.7817C165.485 38.7344 165.941 38.8065 166.357 38.9909L162.555 36.7802Z" fill="white"/>
<path opacity="0.2" d="M54.803 101.726L54.985 183.328C54.9403 183.76 55.0044 184.197 55.1716 184.598C55.3387 185 55.6036 185.353 55.942 185.626L56.1442 185.74L59.9119 187.938C59.5499 187.674 59.263 187.319 59.0798 186.91C58.8966 186.501 58.8233 186.052 58.8672 185.606L58.6852 103.984C58.7124 102.864 59.0058 101.767 59.5412 100.783L55.6387 98.5249C55.1132 99.5119 54.827 100.609 54.803 101.726Z" fill="black"/>
<path d="M167.469 41.343C167.513 40.8972 167.44 40.4475 167.255 40.0393C167.07 39.631 166.781 39.2786 166.417 39.0177C166.002 38.8334 165.546 38.7612 165.094 38.8085C164.642 38.8559 164.211 39.021 163.843 39.2873L62.3449 97.6827C61.2842 98.3732 60.4017 99.3046 59.7692 100.401C59.1367 101.497 58.7722 102.727 58.7053 103.991L58.8873 185.613C58.8434 186.059 58.9167 186.509 59.0999 186.918C59.2832 187.327 59.57 187.681 59.932 187.945H59.9927C60.4049 188.116 60.8539 188.179 61.2973 188.128C61.7407 188.077 62.1638 187.914 62.5269 187.655L164.011 129.273C165.072 128.584 165.954 127.654 166.587 126.559C167.219 125.463 167.584 124.234 167.651 122.971L167.469 41.343ZM162.205 126.152L62.4865 183.577L62.3112 103.985C62.3766 103.356 62.5737 102.749 62.8896 102.202C63.2055 101.655 63.6331 101.181 64.1445 100.81L163.896 43.3853L164.072 122.978C164.001 123.609 163.799 124.217 163.477 124.765C163.155 125.312 162.722 125.785 162.205 126.152Z" fill="#E6373C"/>
<path d="M163.87 43.3853L161.288 44.8681L161.457 121.704C161.39 122.332 161.192 122.939 160.876 123.485C160.56 124.032 160.134 124.507 159.623 124.879L62.4797 180.821V183.57L162.232 126.146C162.744 125.775 163.172 125.301 163.489 124.754C163.806 124.207 164.005 123.6 164.072 122.971L163.87 43.3853Z" fill="#E6373C"/>
<path opacity="0.3" d="M163.87 43.3853L161.288 44.8681L161.457 121.704C161.39 122.332 161.192 122.939 160.876 123.485C160.56 124.032 160.134 124.507 159.623 124.879L62.4797 180.821V183.57L162.232 126.146C162.744 125.775 163.172 125.301 163.489 124.754C163.806 124.207 164.005 123.6 164.072 122.971L163.87 43.3853Z" fill="black"/>
<path d="M161.457 121.717L161.288 44.8813L64.1446 100.823C63.6331 101.194 63.2055 101.668 62.8896 102.215C62.5738 102.762 62.3767 103.37 62.3113 103.998L62.4798 180.834L159.623 124.892C160.134 124.52 160.56 124.045 160.876 123.499C161.192 122.952 161.39 122.345 161.457 121.717Z" fill="#455A64"/>
<g opacity="0.5">
<path opacity="0.5" d="M131.659 126.334L131.666 129.226L102.077 146.305L102.071 143.414L131.659 126.334Z" fill="white"/>
<path opacity="0.5" d="M104.915 117.626L106.701 118.644L102.563 125.808L106.721 128.181L104.955 131.241L100.79 128.875L96.6583 136.033L94.8722 135.022L99.0105 127.857L94.8452 125.485L96.6178 122.418L100.783 124.784L104.915 117.626Z" fill="white"/>
<path opacity="0.5" d="M136.97 99.1182L138.75 100.136L134.618 107.301L138.777 109.673L137.004 112.74L132.845 110.367L128.714 117.525L126.928 116.514L131.059 109.356L126.901 106.984L128.673 103.91L132.832 106.283L136.97 99.1182Z" fill="white"/>
</g>
<path d="M80.3543 105.656L80.3611 107.064L74.8208 110.266L74.8275 113.73L79.7679 110.879L79.7747 112.254L74.8343 115.105L74.841 118.765L80.5835 115.449L80.5902 116.844L73.4458 120.969L73.4121 109.666L80.3543 105.656Z" fill="white"/>
<path d="M88.6378 108.392L90.9833 110.846L89.4533 111.729L87.31 109.491C87.1213 109.612 86.9124 109.761 86.6967 109.882L84.2501 111.284V114.721L82.8481 115.53V104.227L86.6899 102.01C89.2444 100.534 90.8013 101.12 90.8081 103.58C90.7869 104.487 90.5839 105.38 90.2111 106.206C89.8383 107.033 89.3033 107.776 88.6378 108.392ZM86.6563 108.521C88.4491 107.483 89.3927 106.006 89.3927 104.389C89.3927 102.771 88.4356 102.407 86.636 103.439L84.2501 104.82V109.902L86.6495 108.521" fill="white"/>
<path d="M98.8691 102.488L101.208 104.941L99.6779 105.818L97.5481 103.573C97.3459 103.701 97.1369 103.85 96.928 103.971L94.5016 105.373V108.803L93.0862 109.619L93.0525 98.316L96.8943 96.0986C99.4622 94.6158 101.006 95.2089 101.012 97.669C100.997 98.5751 100.8 99.4689 100.432 100.297C100.063 101.125 99.532 101.87 98.8691 102.488ZM96.8808 102.616C98.6871 101.578 99.624 100.102 99.6172 98.4845C99.6105 96.8669 98.6669 96.4625 96.8673 97.5342L94.4814 98.8822V103.957L96.8673 102.609" fill="white"/>
<path d="M107.739 89.7158C110.738 87.9836 112.962 89.1631 112.969 92.4859C112.893 94.2662 112.379 96.0003 111.472 97.5345C110.566 99.0687 109.295 100.356 107.773 101.282C104.746 103.034 102.522 101.834 102.515 98.5249C102.509 95.2156 104.713 91.4614 107.739 89.7158ZM107.773 99.8258C108.89 99.1275 109.819 98.1669 110.481 97.0275C111.142 95.888 111.515 94.6043 111.567 93.288C111.567 90.7739 109.923 89.918 107.746 91.1446C106.619 91.8409 105.681 92.803 105.014 93.9464C104.346 95.0899 103.97 96.3797 103.917 97.7027C103.917 100.21 105.562 101.073 107.773 99.8258Z" fill="white"/>
<path d="M120.916 89.763L123.268 92.2028L121.724 93.0925L119.595 90.8481C119.406 90.9694 119.184 91.1244 118.981 91.239L116.548 92.6477V96.0783L115.146 96.8871V85.5909L118.988 83.3667C121.542 81.8974 123.099 82.477 123.106 84.9439C123.081 85.8527 122.875 86.7474 122.499 87.5751C122.122 88.4028 121.584 89.1467 120.916 89.763ZM118.934 89.8843C120.734 88.8463 121.671 87.3703 121.63 85.7594C121.59 84.1485 120.687 83.7374 118.887 84.8023L116.494 86.184V91.266L118.887 89.918" fill="white"/>
<path d="M134.739 74.2612L129.934 84.1893L133.728 81.9988L133.715 79.5387L135.036 78.777L135.043 81.2371L136.91 80.1587L136.916 81.5404L135.049 82.6188L135.056 85.3957L133.695 86.1843L133.688 83.4074L128.208 86.5685V85.4429L133.216 75.1374L134.739 74.2612Z" fill="white"/>
<path d="M140.826 70.615C142.848 69.4287 144.196 69.8803 144.196 71.8214C144.196 72.9133 143.926 74.0659 142.592 76.3035L139.592 81.3787L144.64 78.4671V79.8623L137.57 83.9399V82.8481L141.567 76.1081C142.598 74.3422 142.794 73.5267 142.794 72.8122C142.794 71.6462 142.073 71.3564 140.698 72.1382C139.61 72.7687 138.733 73.7067 138.177 74.8342L137.22 74.4298C138.03 72.8384 139.282 71.514 140.826 70.615Z" fill="white"/>
<path d="M148.954 65.9103C151.596 64.3871 153.086 65.5598 153.099 69.1657C153.155 70.883 152.756 72.5846 151.941 74.0975C151.127 75.6105 149.926 76.8808 148.462 77.7795C147.739 78.2728 146.884 78.538 146.009 78.5411L146.548 76.9706C147.227 76.9882 147.894 76.7848 148.448 76.391C150.47 75.2385 151.704 73.0817 151.697 70.2509V69.8397C151.114 71.1607 150.121 72.2594 148.866 72.9738C146.912 74.0994 145.496 73.5669 145.496 71.4843C145.496 69.4016 147.013 67.0426 148.954 65.9103ZM149.096 71.5247C149.731 71.1703 150.269 70.6654 150.664 70.0543C151.059 69.4433 151.298 68.7448 151.36 68.0199C151.36 66.8539 150.545 66.3012 149.015 67.1842C148.392 67.528 147.866 68.0244 147.488 68.6268C147.11 69.2292 146.89 69.918 146.851 70.6283C146.851 71.9763 147.714 72.3201 149.096 71.5247Z" fill="white"/>
<path d="M98.1749 53.2459L95.2902 47.7259V47.645L96.2338 41.4105C96.316 40.8822 96.2356 40.3414 96.0033 39.8599C95.771 39.3783 95.3977 38.9789 94.933 38.7145L81.9315 31.2735C81.6428 31.1073 81.2999 31.0625 80.9782 31.1491C80.6565 31.2357 80.3824 31.4465 80.2162 31.7352C80.0499 32.0239 80.0052 32.3668 80.0918 32.6885C80.1783 33.0102 80.3892 33.2843 80.6779 33.4506L93.6861 40.9185L93.7467 41.0533L92.8098 47.2945C92.7259 47.8487 92.8203 48.4152 93.0795 48.9121L95.9642 54.4322V54.54L91.8258 64.4478C91.6916 64.7703 91.6229 65.1163 91.6236 65.4656V67.3595C91.6192 67.4789 91.651 67.5968 91.7147 67.6978C91.7785 67.7988 91.8712 67.8782 91.9808 67.9257C92.2578 68.0655 92.5637 68.1383 92.8739 68.1383C93.1841 68.1383 93.49 68.0655 93.7669 67.9257C93.8695 67.8802 93.958 67.8081 94.0232 67.7168C94.0884 67.6255 94.1279 67.5184 94.1376 67.4067V65.3847L98.2693 55.4769C98.4173 55.1207 98.4856 54.7364 98.4693 54.3509C98.453 53.9655 98.3525 53.5884 98.1749 53.2459Z" fill="#E6373C"/>
<path d="M101.774 46.9035V46.8159L103.378 42.1585C103.531 41.712 103.562 41.2324 103.466 40.7701L101.147 29.3121C101.081 28.9841 100.887 28.6958 100.609 28.5106C100.33 28.3254 99.989 28.2586 99.661 28.3247C99.333 28.3908 99.0447 28.5846 98.8595 28.8633C98.6743 29.142 98.6075 29.4829 98.6736 29.8109L100.999 41.3497L99.3948 46.0138C99.195 46.5878 99.195 47.2125 99.3948 47.7865L101.019 52.1944V52.2753L98.4984 60.4442C98.4235 60.6981 98.385 60.9613 98.3838 61.226V63.0054C98.394 63.1152 98.433 63.2205 98.4969 63.3104C98.5609 63.4003 98.6474 63.4718 98.7477 63.5176C99.0237 63.6606 99.33 63.7352 99.6408 63.7352C99.9516 63.7352 100.258 63.6606 100.534 63.5176C100.645 63.4712 100.739 63.3923 100.804 63.2912C100.869 63.1901 100.902 63.0716 100.898 62.9515V61.1721L103.419 53.0032C103.589 52.4494 103.572 51.855 103.371 51.3115L101.774 46.9035Z" fill="#455A64"/>
<path d="M124.394 35.7759H120.033C119.598 35.7745 119.17 35.8809 118.786 36.0855C118.403 36.2902 118.076 36.5867 117.836 36.9487L115.396 40.595L115.315 40.6489L112.12 41.4038C111.719 41.4987 111.346 41.6858 111.03 41.9502C110.714 42.2146 110.464 42.5491 110.3 42.927C110.053 43.5075 110.017 44.1562 110.199 44.7603L110.556 46.1083C110.569 46.1407 110.569 46.177 110.556 46.2094C110.536 46.2369 110.508 46.2579 110.476 46.2701L109.491 46.5127C109.046 46.6234 108.637 46.8482 108.305 47.1649C107.973 47.4816 107.729 47.8794 107.598 48.319L104.558 58.4762C104.49 58.7265 104.461 58.9855 104.47 59.2446V60.8083C104.478 60.9197 104.516 61.0269 104.58 61.1184C104.644 61.2099 104.732 61.2821 104.834 61.3272C105.111 61.467 105.417 61.5399 105.727 61.5399C106.037 61.5399 106.343 61.467 106.62 61.3272C106.736 61.28 106.833 61.1967 106.897 61.0899C106.961 60.983 106.99 60.8583 106.977 60.7341V59.2041L110.017 49.047L110.105 48.9593L111.089 48.7167C111.483 48.6143 111.849 48.4225 112.158 48.156C112.466 47.8895 112.709 47.5555 112.868 47.18C113.101 46.6008 113.135 45.9604 112.963 45.3602L112.599 44.0122C112.592 43.9962 112.588 43.979 112.588 43.9616C112.588 43.9442 112.592 43.927 112.599 43.9111C112.605 43.8943 112.616 43.8797 112.63 43.869C112.645 43.8583 112.662 43.8518 112.679 43.8504L115.928 43.136C116.579 42.9788 117.149 42.5848 117.526 42.0306L119.959 38.3843L120.067 38.3236H124.427C124.6 38.3363 124.774 38.3132 124.937 38.2557C125.101 38.1983 125.251 38.1078 125.377 37.9898C125.504 37.8719 125.606 37.729 125.675 37.5701C125.744 37.4113 125.78 37.2399 125.78 37.0666C125.78 36.8933 125.744 36.7219 125.675 36.5631C125.606 36.4042 125.504 36.2614 125.377 36.1434C125.251 36.0254 125.101 35.9349 124.937 35.8775C124.774 35.82 124.6 35.7969 124.427 35.8096L124.394 35.7759Z" fill="#E6373C"/>
<g opacity="0.1">
<path opacity="0.1" d="M98.1749 53.2459L95.2902 47.7259V47.645L96.2338 41.4105C96.316 40.8822 96.2356 40.3414 96.0033 39.8599C95.771 39.3783 95.3977 38.9789 94.933 38.7145L81.9315 31.2735C81.6428 31.1073 81.2999 31.0625 80.9782 31.1491C80.6565 31.2357 80.3824 31.4465 80.2162 31.7352C80.0499 32.0239 80.0052 32.3668 80.0918 32.6885C80.1783 33.0102 80.3892 33.2843 80.6779 33.4506L93.6861 40.9185L93.7467 41.0533L92.8098 47.2945C92.7259 47.8487 92.8203 48.4152 93.0795 48.9121L95.9642 54.4322V54.54L91.8258 64.4478C91.6916 64.7703 91.6229 65.1163 91.6236 65.4656V67.3595C91.6192 67.4789 91.651 67.5968 91.7147 67.6978C91.7785 67.7988 91.8712 67.8782 91.9808 67.9257C92.2578 68.0655 92.5637 68.1383 92.8739 68.1383C93.1841 68.1383 93.49 68.0655 93.7669 67.9257C93.8695 67.8802 93.958 67.8081 94.0232 67.7168C94.0884 67.6255 94.1279 67.5184 94.1376 67.4067V65.3847L98.2693 55.4769C98.4173 55.1207 98.4856 54.7364 98.4693 54.3509C98.453 53.9655 98.3525 53.5884 98.1749 53.2459Z" fill="white"/>
<path opacity="0.1" d="M101.774 46.9035V46.8159L103.378 42.1585C103.531 41.712 103.562 41.2324 103.466 40.7701L101.147 29.3121C101.081 28.9841 100.887 28.6958 100.609 28.5106C100.33 28.3254 99.989 28.2586 99.661 28.3247C99.333 28.3908 99.0447 28.5846 98.8595 28.8633C98.6743 29.142 98.6075 29.4829 98.6736 29.8109L100.999 41.3497L99.3948 46.0138C99.195 46.5878 99.195 47.2125 99.3948 47.7865L101.019 52.1944V52.2753L98.4984 60.4442C98.4235 60.6981 98.385 60.9613 98.3838 61.226V63.0054C98.394 63.1152 98.433 63.2205 98.4969 63.3104C98.5609 63.4003 98.6474 63.4718 98.7477 63.5176C99.0237 63.6606 99.33 63.7352 99.6408 63.7352C99.9516 63.7352 100.258 63.6606 100.534 63.5176C100.645 63.4712 100.739 63.3923 100.804 63.2912C100.869 63.1901 100.902 63.0716 100.898 62.9515V61.1721L103.419 53.0032C103.589 52.4494 103.572 51.855 103.371 51.3115L101.774 46.9035Z" fill="white"/>
<path opacity="0.1" d="M124.394 35.7759H120.033C119.598 35.7745 119.17 35.8809 118.786 36.0855C118.403 36.2902 118.076 36.5867 117.836 36.9487L115.396 40.595L115.315 40.6489L112.12 41.4038C111.719 41.4987 111.346 41.6858 111.03 41.9502C110.714 42.2146 110.464 42.5491 110.3 42.927C110.053 43.5075 110.017 44.1562 110.199 44.7603L110.556 46.1083C110.569 46.1407 110.569 46.177 110.556 46.2094C110.536 46.2369 110.508 46.2579 110.476 46.2701L109.491 46.5127C109.046 46.6234 108.637 46.8482 108.305 47.1649C107.973 47.4816 107.729 47.8794 107.598 48.319L104.558 58.4762C104.49 58.7265 104.461 58.9855 104.47 59.2446V60.8083C104.478 60.9197 104.516 61.0269 104.58 61.1184C104.644 61.2099 104.732 61.2821 104.834 61.3272C105.111 61.467 105.417 61.5399 105.727 61.5399C106.037 61.5399 106.343 61.467 106.62 61.3272C106.736 61.28 106.833 61.1967 106.897 61.0899C106.961 60.983 106.99 60.8583 106.977 60.7341V59.2041L110.017 49.047L110.105 48.9593L111.089 48.7167C111.483 48.6143 111.849 48.4225 112.158 48.156C112.466 47.8895 112.709 47.5555 112.868 47.18C113.101 46.6008 113.135 45.9604 112.963 45.3602L112.599 44.0122C112.592 43.9962 112.588 43.979 112.588 43.9616C112.588 43.9442 112.592 43.927 112.599 43.9111C112.605 43.8943 112.616 43.8797 112.63 43.869C112.645 43.8583 112.662 43.8518 112.679 43.8504L115.928 43.136C116.579 42.9788 117.149 42.5848 117.526 42.0306L119.959 38.3843L120.067 38.3236H124.427C124.6 38.3363 124.774 38.3132 124.937 38.2557C125.101 38.1983 125.251 38.1078 125.377 37.9898C125.504 37.8719 125.606 37.729 125.675 37.5701C125.744 37.4113 125.78 37.2399 125.78 37.0666C125.78 36.8933 125.744 36.7219 125.675 36.5631C125.606 36.4042 125.504 36.2614 125.377 36.1434C125.251 36.0254 125.101 35.9349 124.937 35.8775C124.774 35.82 124.6 35.7969 124.427 35.8096L124.394 35.7759Z" fill="white"/>
</g>
<path d="M58.9009 20.1792L66.1868 28.5503L71.2486 25.5712L77.1865 39.7185L70.2982 29.6893L64.913 33.302L58.9009 20.1792Z" fill="#E6373C"/>
<path d="M93.5041 17.4092L90.1206 24.1829L93.5041 24.7019L90.7272 31.5564L96.5438 23.6572L91.9404 22.8753L93.5041 17.4092Z" fill="#E6373C"/>
<path d="M123.187 19.6875L121.798 27.7418L119.022 26.6971L117.573 34.8592L119.83 28.6045L122.958 29.939L123.187 19.6875Z" fill="#E6373C"/>
<path d="M127.642 33.9895L133.23 29.0963V31.5429L137.253 28.7256L131.841 34.5422L131.983 31.1048L127.642 33.9895Z" fill="#E6373C"/>
<path d="M125.654 41.3429L130.54 46.007L131.464 43.3851L136.728 47.4695L131.194 40.5273L130.19 43.9984L125.654 41.3429Z" fill="#E6373C"/>
<path d="M86.8652 51.291L79.4378 54.0679L82.0596 56.0697L76.3171 59.379L85.6925 56.8448L82.8819 54.5869L86.8652 51.291Z" fill="#E6373C"/>
<g opacity="0.5">
<path opacity="0.5" d="M58.9009 20.1792L66.1868 28.5503L71.2486 25.5712L77.1865 39.7185L70.2982 29.6893L64.913 33.302L58.9009 20.1792Z" fill="white"/>
<path opacity="0.5" d="M93.5041 17.4092L90.1206 24.1829L93.5041 24.7019L90.7272 31.5564L96.5438 23.6572L91.9404 22.8753L93.5041 17.4092Z" fill="white"/>
<path opacity="0.5" d="M123.187 19.6875L121.798 27.7418L119.022 26.6971L117.573 34.8592L119.83 28.6045L122.958 29.939L123.187 19.6875Z" fill="white"/>
<path opacity="0.5" d="M127.642 33.9895L133.23 29.0963V31.5429L137.253 28.7256L131.841 34.5422L131.983 31.1048L127.642 33.9895Z" fill="white"/>
<path opacity="0.5" d="M125.654 41.3429L130.54 46.007L131.464 43.3851L136.728 47.4695L131.194 40.5273L130.19 43.9984L125.654 41.3429Z" fill="white"/>
<path opacity="0.5" d="M86.8652 51.291L79.4378 54.0679L82.0596 56.0697L76.3171 59.379L85.6925 56.8448L82.8819 54.5869L86.8652 51.291Z" fill="white"/>
</g>
<path d="M191.679 237.612L150.612 243.105L156.274 257.117L197.347 251.618L191.679 237.612Z" fill="#E6373C"/>
<path opacity="0.2" d="M191.679 237.612L175.746 249.757L150.612 243.105L191.679 237.612Z" fill="white"/>
<path opacity="0.1" d="M191.679 237.612L197.347 251.618L156.274 257.117L150.612 243.105L175.746 249.757L191.679 237.612Z" fill="white"/>
<path d="M210.881 188.888L201.62 202.213L240.76 211.4L250.027 198.075L210.881 188.888Z" fill="#E6373C"/>
<path opacity="0.3" d="M250.027 198.075L224.894 202.692L210.881 188.888L250.027 198.075Z" fill="white"/>
<path opacity="0.1" d="M250.027 198.075L240.76 211.4L201.62 202.213L210.881 188.888L224.894 202.692L250.027 198.075Z" fill="white"/>
<path d="M122.075 212.242L112.807 225.567L151.947 234.754L161.214 221.429L122.075 212.242Z" fill="#E6373C"/>
<path opacity="0.3" d="M161.214 221.429L136.08 226.046L122.075 212.242L161.214 221.429Z" fill="white"/>
<path opacity="0.1" d="M161.214 221.429L151.947 234.754L112.807 225.567L122.075 212.242L136.081 226.046L161.214 221.429Z" fill="white"/>
<path d="M267.605 206.109L233.386 220.337L247.911 232.024L282.123 217.796L267.605 206.109Z" fill="#E6373C"/>
<path opacity="0.5" d="M267.605 206.109L260.98 220.883L233.386 220.337L267.605 206.109Z" fill="white"/>
<path opacity="0.3" d="M267.605 206.109L282.123 217.796L247.911 232.024L233.386 220.337L260.98 220.883L267.605 206.109Z" fill="white"/>
<path d="M202.059 212.242L188.194 224.145L223.188 237.854L237.046 225.958L202.059 212.242Z" fill="#E6373C"/>
<path opacity="0.2" d="M237.046 225.958L210.8 227.427L202.058 212.242L237.046 225.958Z" fill="white"/>
<path opacity="0.1" d="M237.046 225.958L223.188 237.854L188.194 224.145L202.059 212.242L210.8 227.427L237.046 225.958Z" fill="white"/>
<path d="M233.083 271.474L208.738 268.623L200.501 292.57L224.846 295.428L233.083 271.474Z" fill="#E6373C"/>
<path opacity="0.5" d="M208.738 268.623L221.288 282.089L200.501 292.57L208.738 268.623Z" fill="white"/>
<path opacity="0.3" d="M224.846 295.428L200.501 292.57L221.288 282.089L208.738 268.623L233.083 271.474L224.846 295.428Z" fill="white"/>
<path d="M190.574 285.284L154.542 297.921L167.449 310.235L203.481 297.598L190.574 285.284Z" fill="#E6373C"/>
<path opacity="0.5" d="M190.574 285.284L181.98 299.721L154.542 297.921L190.574 285.284Z" fill="white"/>
<path opacity="0.3" d="M190.574 285.284L203.481 297.598L167.449 310.235L154.542 297.921L181.98 299.721L190.574 285.284Z" fill="white"/>
<path d="M223.006 165.332L193.081 182.613L210.578 192.777L240.503 175.503L223.006 165.332Z" fill="#E6373C"/>
<path opacity="0.5" d="M193.081 182.613L219.353 181.191L223.006 165.332L193.081 182.613Z" fill="white"/>
<path opacity="0.3" d="M193.081 182.613L210.578 192.777L240.503 175.503L223.006 165.332L219.353 181.191L193.081 182.613Z" fill="white"/>
<path d="M183.503 211.933L152.162 226.484L168.689 238.165L200.03 223.613L183.503 211.933Z" fill="#E6373C"/>
<path opacity="0.6" d="M152.162 226.484L178.462 227.401L183.503 211.933L152.162 226.484Z" fill="white"/>
<path opacity="0.4" d="M152.162 226.484L168.689 238.165L200.03 223.613L183.503 211.933L178.462 227.401L152.162 226.484Z" fill="white"/>
<path d="M239.223 204.721L197.084 205.846L198.311 220.209L240.449 219.084L239.223 204.721Z" fill="#E6373C"/>
<path opacity="0.5" d="M239.223 204.721L219.764 215.006L197.084 205.846L239.223 204.721Z" fill="white"/>
<path opacity="0.3" d="M239.223 204.721L240.449 219.084L198.311 220.209L197.084 205.846L219.764 215.006L239.223 204.721Z" fill="white"/>
<path d="M175.152 201.411L133.014 202.537L134.241 216.9L176.372 215.774L175.152 201.411Z" fill="#E6373C"/>
<path opacity="0.5" d="M175.152 201.411L155.694 211.696L133.014 202.537L175.152 201.411Z" fill="white"/>
<path opacity="0.3" d="M175.152 201.411L176.372 215.774L134.241 216.9L133.014 202.537L155.694 211.696L175.152 201.411Z" fill="white"/>
<path d="M193.398 267.322L171.87 260.164L150.888 281.321L172.456 288.519L193.398 267.322ZM173.218 264.72L176.352 275.201L173.218 264.72Z" fill="#E6373C"/>
<path opacity="0.2" d="M171.863 260.13L176.372 275.201L150.882 281.287L171.863 260.13Z" fill="white"/>
<path opacity="0.1" d="M172.416 288.479L150.882 281.287L176.372 275.201L171.863 260.13L193.398 267.322L172.416 288.479Z" fill="white"/>
<path d="M181.501 186.401L169.727 209.843L193.573 213.901L205.334 190.452L181.501 186.401Z" fill="#E6373C"/>
<path opacity="0.5" d="M181.501 186.401L192.002 200.441L169.727 209.843L181.501 186.401Z" fill="white"/>
<path opacity="0.3" d="M193.573 213.901L169.727 209.843L192.002 200.441L181.501 186.401L205.334 190.452L193.573 213.901Z" fill="white"/>
<path d="M215.397 230.669L194.227 238.144L216.266 259.025L237.43 251.55L215.397 230.669Z" fill="#E6373C"/>
<path opacity="0.5" d="M215.397 230.669L237.43 251.55L212.465 246.569L215.397 230.669Z" fill="white"/>
<path opacity="0.3" d="M215.397 230.669L212.465 246.569L237.43 251.55L216.266 259.025L194.227 238.144L215.397 230.669Z" fill="white"/>
<path d="M201.56 247.358L171.634 264.639L189.131 274.81L219.057 257.529L201.56 247.358Z" fill="#E6373C"/>
<path opacity="0.6" d="M171.634 264.639L197.907 263.217L201.56 247.358L171.634 264.639Z" fill="white"/>
<path opacity="0.4" d="M171.634 264.639L189.131 274.81L219.057 257.529L201.56 247.358L197.907 263.217L171.634 264.639Z" fill="white"/>
<path d="M133.189 257.838L111.621 264.915L132.502 286.187L154.076 279.11L133.189 257.838Z" fill="#E6373C"/>
<path opacity="0.5" d="M136.31 270.355L132.502 286.187L111.621 264.916L136.31 270.355Z" fill="white"/>
<path opacity="0.3" d="M133.189 257.838L154.076 279.11L132.502 286.187L111.621 264.915L132.502 286.187L136.31 270.355L111.621 264.915L133.189 257.838Z" fill="white"/>
<path d="M154.514 247.115L130.095 249.663L137.685 273.711L162.104 271.17L154.514 247.115Z" fill="#E6373C"/>
<path opacity="0.6" d="M154.514 247.115L162.104 271.17L141.89 261.31L154.514 247.115Z" fill="white"/>
<path opacity="0.4" d="M154.514 247.115L141.89 261.31L162.104 271.17L137.685 273.711L130.095 249.663L154.514 247.115Z" fill="white"/>
<path d="M128.673 271.588L107.132 264.396L111.641 279.467L107.132 264.396L86.1575 285.553L107.692 292.752L128.673 271.588Z" fill="#E6373C"/>
<path opacity="0.6" d="M107.132 264.396L111.641 279.467L86.1575 285.553L107.132 264.396Z" fill="white"/>
<path opacity="0.4" d="M107.692 292.752L86.1575 285.553L111.641 279.467L107.132 264.396L128.673 271.588L107.692 292.752Z" fill="white"/>
<path d="M82.8818 230.022L65.3848 240.186L95.3171 257.468L112.807 247.297L82.8818 230.022Z" fill="#E6373C"/>
<path opacity="0.2" d="M112.807 247.297L86.5349 245.875L82.8818 230.022L112.807 247.297Z" fill="white"/>
<path opacity="0.1" d="M112.807 247.297L95.3171 257.468L65.3848 240.186L82.8818 230.022L86.5349 245.875L112.807 247.297Z" fill="white"/>
<path d="M84.9509 242.882L60.9026 246.401L71.3698 270.092L95.4181 266.573L84.9509 242.882Z" fill="#E6373C"/>
<path opacity="0.5" d="M84.951 242.882L95.4182 266.573L74.0659 257.555L84.951 242.882Z" fill="white"/>
<path opacity="0.3" d="M84.9509 242.882L74.0658 257.555L95.4181 266.573L71.3698 270.092L60.9026 246.401L84.9509 242.882Z" fill="white"/>
<path d="M152.681 231.883L110.684 234.1L113.016 248.423L155.013 246.205L152.681 231.883Z" fill="#E6373C"/>
<path opacity="0.6" d="M152.681 231.883L134.038 242.667L110.684 234.1L152.681 231.883Z" fill="white"/>
<path opacity="0.3" d="M152.681 231.883L155.013 246.205L113.016 248.423L110.684 234.1L134.038 242.667L152.681 231.883Z" fill="white"/>
<path opacity="0.1" d="M150.686 191.16L144.492 194.739L132.798 201.485L163.249 213.408L177.107 201.506L150.686 191.16Z" fill="black"/>
<path d="M152.782 189.967L146.581 193.539L134.887 200.286L163.249 211.4L177.107 199.497L152.782 189.967Z" fill="#E6373C"/>
<path opacity="0.6" d="M150.861 200.966L177.107 199.497L152.782 189.967L146.582 193.539L150.861 200.966Z" fill="white"/>
<path opacity="0.4" d="M177.107 199.497L150.861 200.967L146.581 193.539L134.887 200.286L163.249 211.4L177.107 199.497Z" fill="white"/>
<path d="M280.552 148.468L281.449 133.283C281.574 131.214 281.185 129.146 280.316 127.264C279.447 125.382 278.125 123.745 276.468 122.499L271.015 118.395L271.811 150.976L280.552 148.468Z" fill="#E6373C"/>
<path opacity="0.1" d="M280.552 148.468L281.449 133.283C281.574 131.214 281.185 129.146 280.316 127.264C279.447 125.382 278.125 123.745 276.468 122.499L271.015 118.395L271.811 150.976L280.552 148.468Z" fill="black"/>
<path opacity="0.1" d="M272.073 131.854C274.694 132.75 277.407 133.347 280.161 133.634C279.524 134.119 278.794 134.469 278.016 134.662C277.238 134.854 276.429 134.885 275.639 134.753C274.877 134.542 274.166 134.176 273.553 133.677C272.939 133.178 272.435 132.558 272.073 131.854Z" fill="black"/>
<path d="M261.984 265.845C261.539 267.241 260.002 268.043 258.539 268.157C257.073 268.157 255.612 267.972 254.192 267.605C250.957 267.018 247.836 267.605 244.615 267.524C243.556 267.531 242.499 267.416 241.467 267.18C240.426 266.94 239.484 266.385 238.771 265.589C238.369 265.106 238.102 264.524 237.996 263.904C237.933 264.373 237.969 264.85 238.103 265.305C238.236 265.759 238.464 266.179 238.771 266.54C239.487 267.331 240.428 267.884 241.467 268.124C242.499 268.359 243.556 268.475 244.615 268.467C247.836 268.541 250.957 267.962 254.192 268.548C255.611 268.921 257.072 269.109 258.539 269.108C260.002 268.986 261.539 268.191 261.984 266.789C262.123 266.306 262.162 265.799 262.098 265.299C262.073 265.484 262.035 265.666 261.984 265.845Z" fill="#263238"/>
<path d="M261.903 263.163L261.303 260.224C261.23 259.701 261.061 259.196 260.804 258.735C260.676 258.502 260.486 258.309 260.255 258.177C260.025 258.045 259.762 257.979 259.497 257.987C257.731 257.751 255.237 257.11 253.768 258.121C251.441 259.714 248.666 260.519 245.848 260.42C244.386 260.366 242.923 260.062 241.467 260.244C240.011 260.426 238.508 261.228 238.097 262.63C237.978 263.044 237.953 263.479 238.023 263.904C238.129 264.524 238.396 265.105 238.798 265.589C239.511 266.385 240.453 266.94 241.494 267.18C242.526 267.416 243.583 267.531 244.642 267.524C247.863 267.598 250.984 267.018 254.219 267.604C255.639 267.972 257.1 268.157 258.567 268.157C260.029 268.043 261.566 267.241 262.011 265.845C262.062 265.666 262.1 265.484 262.125 265.299C262.162 264.58 262.087 263.859 261.903 263.163Z" fill="#37474F"/>
<path d="M253.336 255.042L253.215 258.87C253.2 259.261 253.338 259.644 253.6 259.935C253.861 260.227 254.226 260.406 254.617 260.433C255.9 260.535 257.189 260.535 258.472 260.433C258.988 260.385 259.469 260.155 259.831 259.785C260.193 259.415 260.411 258.928 260.447 258.412L260.602 255.581L253.336 255.042Z" fill="#FFA8A7"/>
<path d="M278.362 253.006C278.344 253.572 278.166 254.121 277.85 254.59C277.393 255.139 276.75 255.502 276.043 255.608C275.198 255.751 274.33 255.654 273.537 255.328C272.745 255.001 272.06 254.458 271.561 253.761C271.076 253.087 270.8 252.245 270.348 251.53C269.658 250.576 268.807 249.748 267.834 249.083C266.86 248.421 266.004 247.601 265.3 246.657C264.969 246.195 264.753 245.66 264.669 245.097C264.586 244.535 264.638 243.96 264.821 243.422C264.726 243.55 264.645 243.688 264.579 243.833C264.366 244.401 264.297 245.012 264.377 245.612C264.457 246.213 264.683 246.785 265.037 247.277C265.752 248.249 266.625 249.094 267.618 249.778C268.615 250.462 269.484 251.315 270.186 252.298C270.651 253.033 270.928 253.876 271.42 254.597C271.923 255.314 272.62 255.874 273.429 256.21C274.238 256.547 275.126 256.646 275.99 256.497C276.714 256.391 277.372 256.018 277.836 255.453C278.25 254.796 278.437 254.022 278.369 253.249C278.362 253.168 278.362 253.087 278.362 253.006Z" fill="#263238"/>
<path d="M277.162 248.207C276.003 246.185 273.603 244.682 271.77 243.24C270.758 242.359 269.513 241.793 268.184 241.608C267.517 241.524 266.839 241.641 266.238 241.945C265.637 242.249 265.142 242.725 264.814 243.314C264.814 243.347 264.814 243.388 264.781 243.421C264.598 243.96 264.546 244.534 264.629 245.097C264.712 245.66 264.928 246.194 265.259 246.657C265.963 247.601 266.82 248.421 267.794 249.083C268.766 249.747 269.617 250.575 270.308 251.53C270.759 252.244 271.035 253.066 271.521 253.761C272.019 254.458 272.704 255.001 273.497 255.327C274.289 255.654 275.158 255.751 276.003 255.607C276.709 255.501 277.352 255.139 277.809 254.59C278.126 254.12 278.303 253.571 278.321 253.006C278.321 252.824 278.321 252.642 278.321 252.453C278.298 250.963 277.899 249.502 277.162 248.207Z" fill="#37474F"/>
<path d="M272.121 246.435V249.912C272.972 250.311 273.907 250.497 274.846 250.456C275.784 250.415 276.699 250.147 277.513 249.677L277.836 246.542L272.121 246.435Z" fill="#FFA8A7"/>
<path d="M278.773 183.328C279.811 186.462 278.53 201.323 277.924 215.585C280.182 220.977 280.249 236.419 278.942 247.263C278.942 247.263 274.52 248.611 270.436 247.203L266.796 217.129L266.082 200.178C266.082 200.178 264.794 215.215 263.318 224.866C264.707 232.28 264.855 233.81 261.424 256.544C261.424 256.544 255.857 258.223 251.685 256.174C249.744 224.239 252.002 195.338 252.359 184.871L278.773 183.328Z" fill="#455A64"/>
<path opacity="0.3" d="M266.513 210.53L265.933 196.7C269.506 196.7 272.828 194.004 275.369 191.497C272.943 195.81 268.252 197.724 268.252 197.724L266.513 210.53Z" fill="black"/>
<path d="M251.934 155.512L251.826 185.748C267.766 192.427 278.112 186.422 279.508 183.254C278.773 172.234 281.375 159.34 281.172 153.861C280.97 148.381 280.303 142.207 271.81 143.447L262.779 144.33L258.196 145.442L251.934 155.512Z" fill="#E6373C"/>
<path d="M271.811 139.12C272.455 139.162 273.09 138.946 273.576 138.52C273.759 138.318 273.893 138.075 273.965 137.812C274.038 137.548 274.048 137.272 273.994 137.004C274.262 136.953 274.513 136.836 274.725 136.664C274.936 136.493 275.102 136.271 275.207 136.02C275.29 135.741 275.308 135.447 275.258 135.161C275.209 134.875 275.095 134.604 274.924 134.368C275.311 134.268 275.671 134.086 275.981 133.833C276.29 133.581 276.542 133.264 276.717 132.906C276.898 132.537 276.999 132.135 277.013 131.725C277.027 131.315 276.953 130.906 276.798 130.527C277.224 130.414 277.614 130.193 277.93 129.886C278.246 129.579 278.478 129.196 278.604 128.774C278.737 128.336 278.759 127.872 278.67 127.423C278.581 126.974 278.382 126.554 278.092 126.2C278.458 125.709 278.688 125.13 278.759 124.522C278.83 123.913 278.74 123.297 278.497 122.735C278.218 122.17 277.797 121.688 277.276 121.333C276.756 120.979 276.152 120.765 275.524 120.713C275.613 120.125 275.552 119.523 275.348 118.964C275.145 118.405 274.804 117.906 274.358 117.512C273.911 117.134 273.375 116.877 272.8 116.765C272.226 116.653 271.632 116.69 271.076 116.871C270.872 116.379 270.547 115.947 270.131 115.615C269.714 115.283 269.221 115.061 268.696 114.971C268.171 114.881 267.632 114.925 267.129 115.099C266.626 115.274 266.175 115.573 265.819 115.968C265.555 115.673 265.223 115.446 264.852 115.309C264.481 115.171 264.081 115.127 263.689 115.18C263.29 115.222 262.907 115.36 262.572 115.581C262.238 115.803 261.962 116.102 261.768 116.453C261.265 116.224 260.711 116.128 260.16 116.175C259.609 116.221 259.079 116.408 258.621 116.718C258.163 117.027 257.792 117.45 257.544 117.944C257.296 118.438 257.179 118.988 257.205 119.54C256.805 119.662 256.456 119.912 256.212 120.252C255.968 120.592 255.843 121.003 255.857 121.421C255.891 121.851 256.062 122.259 256.344 122.585C256.627 122.912 257.006 123.139 257.427 123.234C258.227 127.554 259.652 131.734 261.66 135.642C262.557 137.388 263.682 139.154 265.394 140.057C267.254 141.054 270.2 140.495 271.811 139.12Z" fill="#455A64"/>
<path d="M256.767 128.916L254.9 132.171L256.949 132.926L256.767 128.916Z" fill="#F28F8F"/>
<path d="M257.414 123.254C256.173 127.757 255.988 132.486 256.875 137.071C256.973 137.863 257.27 138.616 257.738 139.262C258.355 139.922 259.207 140.314 260.11 140.354C261.016 140.389 261.923 140.303 262.806 140.098V144.33C266.014 145.085 269.317 145.382 271.838 143.447V139.12C270.026 139.699 268.099 139.817 266.23 139.464C264.013 138.271 263.568 134.22 263.878 133.149C264.075 133.408 264.345 133.604 264.653 133.712C264.961 133.82 265.293 133.835 265.61 133.755C265.916 133.675 266.202 133.532 266.45 133.336C266.698 133.14 266.903 132.895 267.052 132.616C267.349 132.058 267.532 131.446 267.591 130.817C267.748 130.057 267.631 129.267 267.261 128.586C266.978 128.206 266.585 127.922 266.136 127.77C265.687 127.618 265.203 127.607 264.747 127.737C263.836 128.022 263.075 128.657 262.631 129.502C262.488 129.763 262.364 130.033 262.26 130.311C262.224 130.421 262.15 130.514 262.053 130.575C261.955 130.637 261.84 130.663 261.725 130.648C261.611 130.634 261.505 130.58 261.425 130.497C261.346 130.413 261.298 130.305 261.29 130.19C261.173 128.975 261.393 127.751 261.923 126.651C261.557 126.613 261.204 126.493 260.891 126.301C260.577 126.108 260.31 125.848 260.11 125.539C259.901 125.251 259.761 124.919 259.7 124.569C259.64 124.218 259.66 123.859 259.76 123.517C258.968 123.569 258.174 123.48 257.414 123.254Z" fill="#FFA8A7"/>
<path d="M259.975 129.3C261.449 129.346 262.915 129.08 264.278 128.517C265.641 127.955 266.869 127.11 267.881 126.038C268.025 125.887 268.116 125.694 268.141 125.487C268.165 125.281 268.121 125.072 268.016 124.892C267.949 124.781 267.86 124.685 267.754 124.611C267.648 124.536 267.528 124.485 267.401 124.46C267.275 124.434 267.144 124.436 267.017 124.464C266.891 124.492 266.772 124.546 266.668 124.622C265.803 125.299 264.776 125.736 263.689 125.889C263.763 124.319 265.94 121.259 267.059 120.154C267.414 119.893 267.674 119.524 267.8 119.102C267.818 118.964 267.802 118.823 267.754 118.691C267.706 118.56 267.627 118.442 267.524 118.347C267.427 118.25 267.307 118.178 267.175 118.138C267.043 118.098 266.904 118.091 266.769 118.118C266.901 118.064 267.012 117.97 267.088 117.849C267.163 117.728 267.197 117.586 267.187 117.444C267.161 117.299 267.097 117.162 267.001 117.05C266.905 116.937 266.781 116.852 266.641 116.804C266.506 116.746 266.36 116.715 266.213 116.715C266.066 116.715 265.92 116.746 265.785 116.804C265.764 116.68 265.708 116.564 265.625 116.47C265.542 116.376 265.434 116.307 265.313 116.271C265.073 116.191 264.812 116.191 264.572 116.271C264.325 116.357 264.088 116.467 263.864 116.602C263.729 116.41 263.532 116.271 263.306 116.207C263.08 116.143 262.839 116.159 262.624 116.251C259.786 117.694 256.383 122.317 256.356 125.499C256.39 126.465 256.777 127.385 257.444 128.086C258.111 128.786 259.011 129.218 259.975 129.3Z" fill="#FFA8A7"/>
<path d="M266.735 118.064C265.142 118.833 263.864 120.128 263.116 121.731C263.379 119.298 265.772 118.172 266.735 118.064Z" fill="#F28F8F"/>
<path d="M265.751 116.73C263.352 117.869 262.294 119.062 261.64 120.1C261.988 119.239 262.547 118.479 263.265 117.89C263.983 117.301 264.838 116.902 265.751 116.73Z" fill="#F28F8F"/>
<path d="M263.83 116.555C262.456 117.136 261.275 118.097 260.427 119.325C260.69 118.598 261.146 117.956 261.745 117.469C262.345 116.981 263.065 116.665 263.83 116.555Z" fill="#F28F8F"/>
<path d="M264.74 127.709C263.174 128.461 261.417 128.724 259.699 128.464C259.445 127.482 258.888 126.605 258.108 125.957C257.593 125.53 256.994 125.218 256.349 125.04C256.349 125.175 256.349 125.316 256.349 125.451C256.373 126.431 256.76 127.368 257.435 128.079C258.11 128.79 259.025 129.225 260.002 129.3C261.471 129.342 262.933 129.074 264.291 128.512C265.649 127.949 266.872 127.106 267.881 126.038C268.02 125.894 268.109 125.71 268.135 125.513C268.162 125.315 268.125 125.114 268.03 124.939C267.182 126.123 266.051 127.075 264.74 127.709Z" fill="#F28F8F"/>
<path opacity="0.2" d="M260.636 154.346C257.94 154.393 255.244 154.528 252.5 154.629L251.934 155.545V161.207C253.811 160.8 255.57 159.971 257.078 158.782C258.586 157.593 259.803 156.076 260.636 154.346Z" fill="black"/>
<path d="M260.899 144.782L242.889 139.68L258.748 132.104C261.054 127.885 256.828 124.292 253.242 124.811L234.902 133.87C233.556 134.488 232.415 135.48 231.616 136.727C230.817 137.974 230.392 139.425 230.393 140.906C230.393 142.407 230.828 143.875 231.647 145.133C232.465 146.39 233.631 147.383 235.003 147.99L255.897 157.251C262.186 159.361 266.58 146.393 260.899 144.782Z" fill="#E6373C"/>
<path opacity="0.2" d="M242.889 139.68L237.747 138.217C240.407 137.676 243.135 137.546 245.835 137.833L246.589 137.914L242.889 139.68Z" fill="black"/>
<path d="M184.46 59.3118L227.886 84.3712C228.645 84.8068 229.272 85.4404 229.699 86.2044C230.107 86.9312 230.323 87.7501 230.326 88.5836V115.254C230.326 118.516 227.556 120.727 223.91 118.624L220.445 116.649L219.737 116.245L219.582 116.157L196.37 102.677L180.484 93.5982C179.741 93.1735 179.124 92.5603 178.694 91.8207C178.265 91.081 178.038 90.2411 178.037 89.3857V62.6818C178.037 59.204 182.283 58.0649 184.46 59.3118Z" fill="#E6373C"/>
<path opacity="0.4" d="M225.79 88.3948C225.476 87.7676 225.033 87.214 224.489 86.7705C224.305 86.6204 224.109 86.4852 223.903 86.366L180.464 61.3337C180.218 61.1917 179.938 61.1169 179.654 61.117C179.37 61.117 179.091 61.1918 178.845 61.3339C178.6 61.476 178.395 61.6804 178.253 61.9264C178.112 62.1725 178.037 62.4516 178.037 62.7356C178.037 59.2308 182.283 58.0917 184.46 59.3656L227.886 84.4249C228.645 84.8605 229.272 85.4942 229.699 86.2582L225.79 88.3948Z" fill="white"/>
<path opacity="0.2" d="M226.329 117.228V90.5785C226.33 90.3845 226.316 90.1908 226.289 89.9988C226.209 89.4401 226.038 88.8983 225.783 88.3947L229.699 86.2109C230.107 86.9377 230.323 87.7566 230.326 88.5902V115.254C230.326 118.516 227.556 120.726 223.91 118.624C224.155 118.764 224.433 118.837 224.715 118.836C224.998 118.836 225.275 118.761 225.52 118.62C225.764 118.479 225.968 118.276 226.11 118.032C226.252 117.788 226.328 117.511 226.329 117.228Z" fill="white"/>
<path d="M220.445 116.656L219.738 116.251L220.445 116.656Z" fill="#E6373C"/>
<path d="M174.822 77.3348L178.037 75.4678V76.4114L174.822 77.3348Z" fill="#E6373C"/>
<path opacity="0.4" d="M174.822 77.3348L178.037 75.4678V76.4114L174.822 77.3348Z" fill="white"/>
<path d="M178.61 76.2495L175.004 77.2538C174.867 77.2905 174.742 77.3635 174.643 77.4652C174.544 77.5669 174.474 77.6935 174.441 77.8315C174.408 77.9696 174.413 78.114 174.455 78.2496C174.497 78.3851 174.575 78.5068 174.681 78.6018L178.428 82.0729L178.61 76.2495Z" fill="#E6373C"/>
<path d="M186.509 73.7219V74.9756L185.013 74.1196L185.006 78.4669L183.625 77.6716L183.638 73.3175L182.142 72.4548V71.2012L186.509 73.7219Z" fill="white"/>
<path d="M186.759 86.8516L187.81 89.2241L186.327 88.3681L185.451 86.3461L184.676 85.9349V87.4245L183.328 86.6292V81.0215L185.559 82.3088C186.177 82.627 186.701 83.1009 187.079 83.6837C187.457 84.2665 187.677 84.9379 187.716 85.6317C187.716 86.4607 187.372 86.8651 186.759 86.8516ZM185.465 85.1531C186.038 85.4834 186.327 85.3486 186.327 84.8296C186.324 84.5475 186.242 84.2719 186.091 84.0338C185.94 83.7957 185.725 83.6044 185.471 83.4816L184.703 83.0435V84.6813L185.471 85.1262" fill="white"/>
<path d="M189.394 75.2924C190.178 75.7582 190.834 76.4105 191.304 77.1914C191.775 77.9722 192.045 78.8573 192.09 79.7677C192.09 81.4527 190.931 82.0189 189.394 81.1157C188.612 80.6477 187.958 79.9948 187.488 79.2144C187.018 78.4341 186.746 77.5501 186.698 76.6404C186.698 74.9554 187.857 74.3892 189.394 75.2924ZM189.394 79.8082C190.129 80.2328 190.742 79.9295 190.742 78.9657C190.737 78.4949 190.615 78.0327 190.386 77.6209C190.158 77.2091 189.831 76.8605 189.434 76.6067C188.693 76.1753 188.086 76.4786 188.086 77.4424C188.089 77.9154 188.211 78.38 188.441 78.7935C188.671 79.2069 189.001 79.5559 189.401 79.8082" fill="white"/>
<path d="M195.325 78.6959C196.108 79.1631 196.763 79.8158 197.233 80.5963C197.703 81.3769 197.974 82.2612 198.021 83.1713C198.021 84.8563 196.862 85.4224 195.325 84.5193C194.542 84.0515 193.886 83.3978 193.416 82.6159C192.945 81.8341 192.675 80.9484 192.629 80.0372C192.602 78.3589 193.761 77.7928 195.325 78.6959ZM195.325 83.2117C196.06 83.6431 196.673 83.333 196.673 82.3692C196.669 81.8982 196.548 81.4355 196.319 81.0235C196.091 80.6115 195.763 80.2632 195.366 80.0102C194.624 79.5856 194.018 79.8822 194.018 80.846C194.021 81.3188 194.143 81.7832 194.373 82.1965C194.603 82.6099 194.932 82.9589 195.332 83.2117" fill="white"/>
<path d="M203.609 92.7289V95.836C203.609 97.5143 202.759 97.9591 201.31 97.1301C200.609 96.7406 200.026 96.1683 199.624 95.474C199.221 94.7798 199.015 93.9895 199.026 93.1872V90.0801L200.407 90.8821V93.9354C200.367 94.305 200.433 94.6785 200.596 95.0125C200.759 95.3465 201.014 95.6273 201.331 95.8226C201.904 96.1528 202.247 95.9641 202.254 95.0003V91.9471L203.609 92.7289Z" fill="white"/>
<path d="M206.446 85.2337V90.8481L205.172 90.1135V87.1344L203.912 88.8329L203.292 88.4757L202.058 85.4157L202.045 88.3072L200.771 87.5725L200.784 81.9648L201.924 82.6186L203.629 86.8446L205.314 84.5732L206.446 85.2337Z" fill="white"/>
<path d="M208.367 95.4788V96.7055L205.907 95.2901V96.2337L208.071 97.4806V98.6735L205.907 97.4199L205.9 98.4444L208.448 99.9137L208.441 101.14L204.525 98.8757L204.546 93.2681L208.367 95.4788Z" fill="white"/>
<path d="M210.369 87.4986L212.512 94.36L211.077 93.5242L210.692 92.2099L208.637 90.99L208.246 91.8594L206.837 91.0506L209.007 86.6831L210.369 87.4986ZM209.021 90.0801L210.275 90.808L209.654 88.6512L209.021 90.0801Z" fill="white"/>
<path d="M211.131 96.9683C211.809 97.3589 212.41 97.8707 212.903 98.478L212.479 99.4081C212.101 98.9305 211.645 98.5203 211.131 98.1949C210.551 97.8579 210.342 97.959 210.342 98.2421C210.342 99.0981 213.105 100.055 213.099 102.124C213.099 103.102 212.384 103.526 210.935 102.684C210.14 102.223 209.442 101.612 208.879 100.884L209.338 99.981C209.78 100.569 210.326 101.071 210.949 101.464C211.521 101.787 211.744 101.733 211.744 101.464C211.744 100.574 208.967 99.6171 208.974 97.5344C208.94 96.5369 209.681 96.1325 211.131 96.9683Z" fill="white"/>
<path d="M217.567 91.6503L217.547 97.258L216.408 96.5975L214.265 92.3715L214.258 95.3573L212.903 94.5755L212.923 88.9678L214.056 89.6216L216.199 93.8543L216.212 90.8685L217.567 91.6503Z" fill="white"/>
<path d="M223.027 94.8047L221.139 97.3187V99.3272L219.758 98.5319L219.764 96.4964L217.918 91.8525L219.367 92.695L220.526 95.5865L221.685 94.0296L223.027 94.8047Z" fill="white"/>
<path d="M192.312 86.2112L192.306 87.4311L189.852 86.0158L189.846 86.9594L192.009 88.2062V89.3992L189.846 88.1456L189.839 89.1701L192.393 90.6461L192.387 91.8661L188.471 89.6082L188.484 84.0005L192.312 86.2112Z" fill="white"/>
<path d="M197.974 94.926L198.567 96.0852C198.362 96.2123 198.122 96.2728 197.88 96.2583C197.639 96.2438 197.408 96.1551 197.219 96.0044C196.424 95.546 195.905 94.926 195.089 93.4836C194.452 92.995 193.929 92.3735 193.557 91.6623C193.185 90.9512 192.971 90.1674 192.933 89.3655C192.933 87.6805 194.085 87.1143 195.629 88.0175C196.412 88.4857 197.067 89.1395 197.537 89.9213C198.008 90.703 198.278 91.5885 198.325 92.4996C198.325 93.7734 197.651 94.407 196.66 94.2452C196.781 94.5212 196.98 94.7556 197.233 94.9192C197.342 94.9927 197.471 95.0325 197.602 95.0337C197.734 95.0349 197.863 94.9974 197.974 94.926ZM195.615 92.5265C196.35 92.9511 196.963 92.6546 196.963 91.6908C196.959 91.2181 196.837 90.7539 196.607 90.3407C196.377 89.9274 196.048 89.5783 195.649 89.325C194.914 88.9004 194.301 89.197 194.301 90.1675C194.31 90.6422 194.438 91.1071 194.673 91.5193C194.909 91.9316 195.244 92.2779 195.649 92.5265" fill="white"/>
<path d="M217.581 100.797L217.574 102.05L216.084 101.194L216.071 105.542L214.696 104.746L214.703 100.399L213.206 99.5295L213.213 98.2759L217.581 100.797Z" fill="white"/>
<path d="M219.987 102.077C220.661 102.474 221.261 102.985 221.76 103.587L221.328 104.524C220.949 104.046 220.494 103.633 219.98 103.304C219.401 102.974 219.192 103.075 219.192 103.358C219.192 104.214 221.955 105.171 221.955 107.24C221.955 108.211 221.234 108.635 219.785 107.799C219.001 107.332 218.315 106.719 217.763 105.993L218.221 105.09C218.66 105.681 219.207 106.184 219.832 106.573C220.398 106.903 220.627 106.842 220.627 106.573C220.627 105.683 217.85 104.733 217.857 102.643C217.823 101.646 218.538 101.241 219.987 102.077Z" fill="white"/>
</svg>
